<svg xmlns="http://www.w3.org/2000/svg" xmlns:xlink="http://www.w3.org/1999/xlink" width="50" zoomAndPan="magnify" viewBox="0 0 37.5 37.499999" height="50" preserveAspectRatio="xMidYMid meet" version="1.0"><defs><clipPath id="04a05389ae"><path d="M 3 2.882812 L 34.5 2.882812 L 34.5 15 L 3 15 Z M 3 2.882812 " clip-rule="nonzero"/></clipPath><clipPath id="22f6a4a2e7"><path d="M 4 2.882812 L 33 2.882812 L 33 12 L 4 12 Z M 4 2.882812 " clip-rule="nonzero"/></clipPath><clipPath id="2932a7f354"><path d="M 23 24 L 34 24 L 34 34.382812 L 23 34.382812 Z M 23 24 " clip-rule="nonzero"/></clipPath></defs><path fill="#2f84b9" d="M 32.589844 13.09375 L 32.320312 13.902344 L 5.179688 13.902344 L 4.910156 13.09375 Z M 32.589844 13.09375 " fill-opacity="1" fill-rule="nonzero"/><path fill="#8ecaef" d="M 32.863281 12.289062 L 32.589844 13.09375 L 4.910156 13.09375 L 4.636719 12.289062 Z M 32.863281 12.289062 " fill-opacity="1" fill-rule="nonzero"/><path fill="#52a7d7" d="M 20.105469 9.835938 L 20.105469 9.902344 C 20.105469 10.179688 19.878906 10.410156 19.597656 10.410156 L 17.359375 10.410156 C 17.078125 10.410156 16.851562 10.179688 16.851562 9.902344 L 16.851562 9.835938 C 16.851562 9.558594 17.078125 9.332031 17.359375 9.332031 L 19.597656 9.332031 C 19.878906 9.332031 20.105469 9.558594 20.105469 9.835938 Z M 20.105469 9.835938 " fill-opacity="1" fill-rule="nonzero"/><path fill="#f9b132" d="M 30.148438 10.136719 C 30.449219 10.136719 30.691406 10.378906 30.691406 10.675781 C 30.691406 10.972656 30.449219 11.214844 30.148438 11.214844 C 29.847656 11.214844 29.605469 10.972656 29.605469 10.675781 C 29.605469 10.378906 29.847656 10.136719 30.148438 10.136719 Z M 30.148438 10.136719 " fill-opacity="1" fill-rule="nonzero"/><path fill="#ae2c36" d="M 32.046875 10.136719 C 32.347656 10.136719 32.589844 10.378906 32.589844 10.675781 C 32.589844 10.972656 32.347656 11.214844 32.046875 11.214844 C 31.75 11.214844 31.503906 10.972656 31.503906 10.675781 C 31.503906 10.378906 31.75 10.136719 32.046875 10.136719 Z M 32.046875 10.136719 " fill-opacity="1" fill-rule="nonzero"/><g clip-path="url(#04a05389ae)"><path fill="#c3ddda" d="M 34.492188 4.941406 L 34.492188 13.097656 C 34.492188 14.136719 33.640625 14.976562 32.59375 14.976562 L 4.90625 14.976562 C 3.859375 14.976562 3.007812 14.136719 3.007812 13.097656 L 3.007812 4.941406 C 3.007812 4.5625 3.140625 4.191406 3.382812 3.894531 L 3.554688 3.6875 C 3.945312 3.207031 4.402344 2.980469 4.636719 2.882812 L 4.636719 11.214844 L 28.789062 11.214844 L 28.789062 10.140625 C 28.789062 9.695312 29.15625 9.332031 29.609375 9.332031 L 32.863281 9.332031 L 32.863281 2.882812 C 33.097656 2.980469 33.554688 3.207031 33.945312 3.6875 L 34.117188 3.894531 C 34.359375 4.191406 34.492188 4.5625 34.492188 4.941406 Z M 32.589844 13.09375 L 32.863281 12.289062 L 4.636719 12.289062 L 4.910156 13.09375 L 5.179688 13.902344 L 32.320312 13.902344 Z M 32.589844 10.675781 C 32.589844 10.378906 32.347656 10.136719 32.046875 10.136719 C 31.75 10.136719 31.503906 10.378906 31.503906 10.675781 C 31.503906 10.972656 31.75 11.214844 32.046875 11.214844 C 32.347656 11.214844 32.589844 10.972656 32.589844 10.675781 Z M 30.691406 10.675781 C 30.691406 10.378906 30.449219 10.136719 30.148438 10.136719 C 29.847656 10.136719 29.605469 10.378906 29.605469 10.675781 C 29.605469 10.972656 29.847656 11.214844 30.148438 11.214844 C 30.449219 11.214844 30.691406 10.972656 30.691406 10.675781 Z M 30.691406 10.675781 " fill-opacity="1" fill-rule="nonzero"/></g><g clip-path="url(#22f6a4a2e7)"><path fill="#e7f2f1" d="M 32.863281 2.882812 L 32.863281 9.332031 L 29.609375 9.332031 C 29.15625 9.332031 28.789062 9.695312 28.789062 10.140625 L 28.789062 11.214844 L 4.636719 11.214844 L 4.636719 2.882812 Z M 20.105469 9.902344 L 20.105469 9.835938 C 20.105469 9.558594 19.878906 9.332031 19.597656 9.332031 L 17.359375 9.332031 C 17.078125 9.332031 16.851562 9.558594 16.851562 9.835938 L 16.851562 9.902344 C 16.851562 10.179688 17.078125 10.410156 17.359375 10.410156 L 19.597656 10.410156 C 19.878906 10.410156 20.105469 10.179688 20.105469 9.902344 Z M 20.105469 9.902344 " fill-opacity="1" fill-rule="nonzero"/></g><path fill="#e7f2f1" d="M 23.21875 24.335938 L 22.847656 24.367188 L 22.644531 23.890625 L 22.847656 23.875 C 22.988281 23.863281 23.089844 23.742188 23.082031 23.605469 C 23.070312 23.464844 22.949219 23.359375 22.808594 23.371094 L 22.433594 23.402344 L 22.230469 22.925781 L 22.433594 22.910156 C 22.574219 22.898438 22.679688 22.777344 22.667969 22.640625 C 22.65625 22.5 22.53125 22.398438 22.394531 22.40625 L 22.023438 22.4375 L 21.746094 21.792969 L 22.074219 21.460938 L 22.726562 21.722656 L 22.703125 22.09375 C 22.695312 22.234375 22.800781 22.351562 22.941406 22.359375 C 22.949219 22.363281 22.953125 22.363281 22.957031 22.363281 C 23.089844 22.363281 23.203125 22.257812 23.210938 22.125 L 23.222656 21.921875 L 23.707031 22.117188 L 23.683594 22.488281 C 23.675781 22.625 23.78125 22.746094 23.921875 22.753906 C 23.929688 22.753906 23.933594 22.753906 23.9375 22.753906 C 24.070312 22.753906 24.183594 22.652344 24.191406 22.519531 L 24.203125 22.316406 L 24.6875 22.507812 L 24.664062 22.878906 C 24.65625 23.019531 24.761719 23.136719 24.902344 23.148438 C 24.90625 23.148438 24.910156 23.148438 24.917969 23.148438 C 25.050781 23.148438 25.164062 23.042969 25.171875 22.910156 L 25.183594 22.707031 L 25.507812 22.839844 C 25.539062 22.851562 25.574219 22.859375 25.605469 22.859375 C 25.707031 22.859375 25.800781 22.796875 25.839844 22.699219 C 25.890625 22.570312 25.828125 22.421875 25.699219 22.371094 L 25.375 22.242188 L 25.507812 22.085938 C 25.597656 21.980469 25.585938 21.820312 25.476562 21.730469 C 25.371094 21.640625 25.210938 21.652344 25.121094 21.761719 L 24.878906 22.042969 L 24.394531 21.847656 L 24.527344 21.695312 C 24.617188 21.589844 24.605469 21.429688 24.5 21.339844 C 24.390625 21.25 24.230469 21.261719 24.140625 21.367188 L 23.898438 21.648438 L 23.414062 21.457031 L 23.546875 21.300781 C 23.636719 21.195312 23.625 21.035156 23.519531 20.945312 C 23.414062 20.855469 23.253906 20.867188 23.160156 20.972656 L 22.917969 21.257812 L 22.265625 20.996094 L 22.261719 20.527344 L 22.910156 20.257812 L 23.15625 20.535156 C 23.207031 20.589844 23.277344 20.621094 23.347656 20.621094 C 23.40625 20.621094 23.46875 20.597656 23.515625 20.558594 C 23.621094 20.464844 23.628906 20.304688 23.539062 20.199219 L 23.402344 20.046875 L 23.882812 19.847656 L 24.128906 20.125 C 24.179688 20.179688 24.25 20.210938 24.320312 20.210938 C 24.378906 20.210938 24.441406 20.1875 24.488281 20.148438 C 24.59375 20.054688 24.601562 19.894531 24.511719 19.792969 L 24.375 19.640625 L 24.855469 19.4375 L 25.101562 19.714844 C 25.152344 19.773438 25.222656 19.800781 25.292969 19.800781 C 25.351562 19.800781 25.410156 19.78125 25.460938 19.738281 C 25.566406 19.644531 25.574219 19.484375 25.484375 19.382812 L 25.347656 19.230469 L 25.671875 19.09375 C 25.800781 19.039062 25.859375 18.890625 25.804688 18.761719 C 25.75 18.632812 25.601562 18.574219 25.472656 18.628906 L 25.148438 18.765625 L 25.132812 18.5625 C 25.121094 18.425781 25 18.316406 24.859375 18.332031 C 24.71875 18.34375 24.613281 18.464844 24.625 18.601562 L 24.65625 18.972656 L 24.175781 19.175781 L 24.160156 18.972656 C 24.148438 18.835938 24.027344 18.730469 23.886719 18.742188 C 23.746094 18.753906 23.644531 18.875 23.652344 19.011719 L 23.683594 19.382812 L 23.203125 19.585938 L 23.1875 19.382812 C 23.175781 19.242188 23.058594 19.140625 22.914062 19.152344 C 22.773438 19.164062 22.671875 19.285156 22.683594 19.421875 L 22.710938 19.792969 L 22.0625 20.066406 L 21.730469 19.738281 L 21.992188 19.089844 L 22.367188 19.113281 C 22.371094 19.113281 22.375 19.113281 22.382812 19.113281 C 22.515625 19.113281 22.625 19.011719 22.632812 18.878906 C 22.644531 18.738281 22.535156 18.621094 22.398438 18.609375 L 22.191406 18.597656 L 22.386719 18.121094 L 22.761719 18.140625 C 22.765625 18.144531 22.773438 18.144531 22.777344 18.144531 C 22.910156 18.144531 23.023438 18.039062 23.03125 17.90625 C 23.039062 17.769531 22.933594 17.648438 22.792969 17.640625 L 22.589844 17.625 L 22.785156 17.148438 L 23.15625 17.171875 C 23.160156 17.171875 23.167969 17.171875 23.171875 17.171875 C 23.304688 17.171875 23.417969 17.066406 23.425781 16.933594 C 23.433594 16.796875 23.328125 16.675781 23.1875 16.667969 L 22.984375 16.65625 L 23.117188 16.332031 C 23.167969 16.203125 23.105469 16.054688 22.976562 16.003906 C 22.84375 15.953125 22.695312 16.011719 22.644531 16.140625 L 22.511719 16.464844 L 22.355469 16.335938 C 22.25 16.246094 22.089844 16.257812 22 16.363281 C 21.910156 16.46875 21.921875 16.628906 22.027344 16.71875 L 22.3125 16.957031 L 22.117188 17.4375 L 21.960938 17.304688 C 21.855469 17.214844 21.695312 17.226562 21.605469 17.335938 C 21.511719 17.441406 21.523438 17.597656 21.632812 17.691406 L 21.917969 17.929688 L 21.722656 18.410156 L 21.566406 18.277344 C 21.460938 18.1875 21.296875 18.199219 21.207031 18.308594 C 21.117188 18.414062 21.128906 18.570312 21.238281 18.664062 L 21.519531 18.902344 L 21.257812 19.550781 L 20.789062 19.554688 L 20.511719 18.910156 L 20.792969 18.667969 C 20.898438 18.574219 20.910156 18.414062 20.816406 18.308594 C 20.722656 18.207031 20.5625 18.195312 20.457031 18.289062 L 20.304688 18.421875 L 20.101562 17.945312 L 20.382812 17.703125 C 20.484375 17.609375 20.496094 17.449219 20.402344 17.347656 C 20.308594 17.242188 20.148438 17.230469 20.042969 17.324219 L 19.890625 17.457031 L 19.6875 16.980469 L 19.96875 16.734375 C 20.074219 16.644531 20.085938 16.484375 19.992188 16.378906 C 19.898438 16.277344 19.738281 16.265625 19.632812 16.359375 L 19.480469 16.492188 L 19.34375 16.171875 C 19.289062 16.042969 19.136719 15.984375 19.011719 16.039062 C 18.878906 16.09375 18.820312 16.242188 18.875 16.367188 L 19.011719 16.691406 L 18.808594 16.707031 C 18.667969 16.71875 18.566406 16.839844 18.578125 16.976562 C 18.585938 17.109375 18.699219 17.210938 18.828125 17.210938 C 18.835938 17.210938 18.84375 17.207031 18.847656 17.207031 L 19.222656 17.179688 L 19.425781 17.65625 L 19.222656 17.671875 C 19.082031 17.683594 18.976562 17.804688 18.988281 17.941406 C 19 18.074219 19.109375 18.175781 19.242188 18.175781 C 19.25 18.175781 19.257812 18.175781 19.261719 18.171875 L 19.632812 18.144531 L 19.839844 18.621094 L 19.636719 18.636719 C 19.496094 18.648438 19.390625 18.769531 19.402344 18.90625 C 19.414062 19.039062 19.523438 19.140625 19.65625 19.140625 C 19.660156 19.140625 19.667969 19.140625 19.675781 19.136719 L 20.046875 19.109375 L 20.324219 19.753906 L 19.992188 20.085938 L 19.339844 19.824219 L 19.363281 19.453125 C 19.375 19.3125 19.265625 19.195312 19.128906 19.183594 C 18.988281 19.175781 18.867188 19.28125 18.859375 19.421875 L 18.84375 19.625 L 18.363281 19.429688 L 18.386719 19.058594 C 18.394531 18.921875 18.289062 18.800781 18.148438 18.792969 C 18.007812 18.78125 17.886719 18.890625 17.878906 19.027344 L 17.867188 19.230469 L 17.382812 19.035156 L 17.40625 18.667969 C 17.414062 18.527344 17.308594 18.410156 17.167969 18.398438 C 17.03125 18.390625 16.90625 18.496094 16.898438 18.636719 L 16.886719 18.835938 L 16.558594 18.707031 C 16.429688 18.65625 16.28125 18.714844 16.230469 18.847656 C 16.175781 18.976562 16.238281 19.121094 16.371094 19.175781 L 16.695312 19.304688 L 16.5625 19.460938 C 16.472656 19.566406 16.484375 19.722656 16.59375 19.8125 C 16.640625 19.855469 16.699219 19.875 16.757812 19.875 C 16.828125 19.875 16.898438 19.84375 16.949219 19.785156 L 17.191406 19.503906 L 17.675781 19.699219 L 17.542969 19.851562 C 17.453125 19.957031 17.464844 20.117188 17.570312 20.207031 C 17.617188 20.246094 17.675781 20.265625 17.734375 20.265625 C 17.808594 20.265625 17.878906 20.238281 17.929688 20.179688 L 18.171875 19.894531 L 18.652344 20.089844 L 18.523438 20.246094 C 18.429688 20.351562 18.445312 20.507812 18.550781 20.597656 C 18.597656 20.640625 18.65625 20.660156 18.714844 20.660156 C 18.785156 20.660156 18.859375 20.628906 18.90625 20.570312 L 19.152344 20.289062 L 19.804688 20.550781 L 19.808594 21.015625 L 19.160156 21.289062 L 18.914062 21.011719 C 18.820312 20.90625 18.660156 20.898438 18.554688 20.988281 C 18.449219 21.082031 18.4375 21.242188 18.53125 21.34375 L 18.667969 21.496094 L 18.1875 21.699219 L 17.941406 21.421875 C 17.847656 21.316406 17.6875 21.308594 17.582031 21.398438 C 17.476562 21.492188 17.464844 21.648438 17.558594 21.753906 L 17.695312 21.90625 L 17.214844 22.109375 L 16.96875 21.832031 C 16.875 21.726562 16.714844 21.714844 16.609375 21.808594 C 16.503906 21.898438 16.496094 22.058594 16.585938 22.164062 L 16.722656 22.316406 L 16.398438 22.453125 C 16.269531 22.507812 16.210938 22.65625 16.265625 22.78125 C 16.304688 22.878906 16.398438 22.9375 16.5 22.9375 C 16.53125 22.9375 16.566406 22.929688 16.597656 22.917969 L 16.921875 22.78125 L 16.9375 22.980469 C 16.949219 23.113281 17.058594 23.214844 17.191406 23.214844 C 17.199219 23.214844 17.203125 23.214844 17.210938 23.214844 C 17.351562 23.203125 17.457031 23.082031 17.445312 22.941406 L 17.414062 22.574219 L 17.894531 22.371094 L 17.910156 22.574219 C 17.921875 22.703125 18.03125 22.804688 18.164062 22.804688 C 18.167969 22.804688 18.175781 22.804688 18.183594 22.804688 C 18.324219 22.792969 18.425781 22.671875 18.417969 22.53125 L 18.386719 22.164062 L 18.867188 21.960938 L 18.882812 22.164062 C 18.894531 22.292969 19.003906 22.394531 19.136719 22.394531 C 19.140625 22.394531 19.148438 22.394531 19.15625 22.394531 C 19.296875 22.382812 19.398438 22.261719 19.386719 22.121094 L 19.359375 21.753906 L 20.007812 21.480469 L 20.339844 21.808594 L 20.078125 22.453125 L 19.703125 22.429688 C 19.558594 22.421875 19.445312 22.527344 19.433594 22.667969 C 19.425781 22.804688 19.53125 22.925781 19.671875 22.933594 L 19.878906 22.945312 L 19.683594 23.425781 L 19.308594 23.402344 C 19.164062 23.394531 19.046875 23.5 19.039062 23.640625 C 19.03125 23.777344 19.136719 23.898438 19.277344 23.90625 L 19.480469 23.917969 L 19.285156 24.398438 L 18.914062 24.375 C 18.769531 24.363281 18.652344 24.472656 18.644531 24.609375 C 18.636719 24.75 18.742188 24.867188 18.882812 24.878906 L 19.085938 24.890625 L 18.953125 25.214844 C 18.902344 25.34375 18.964844 25.488281 19.09375 25.542969 C 19.125 25.554688 19.15625 25.5625 19.1875 25.5625 C 19.289062 25.5625 19.382812 25.5 19.425781 25.402344 L 19.554688 25.078125 L 19.710938 25.210938 C 19.757812 25.25 19.816406 25.269531 19.875 25.269531 C 19.949219 25.269531 20.019531 25.242188 20.070312 25.183594 C 20.160156 25.078125 20.148438 24.917969 20.039062 24.828125 L 19.757812 24.585938 L 19.953125 24.109375 L 20.109375 24.238281 C 20.15625 24.28125 20.214844 24.300781 20.273438 24.300781 C 20.34375 24.300781 20.414062 24.269531 20.464844 24.210938 C 20.554688 24.105469 20.542969 23.945312 20.4375 23.855469 L 20.152344 23.613281 L 20.347656 23.136719 L 20.503906 23.265625 C 20.550781 23.308594 20.609375 23.328125 20.667969 23.328125 C 20.738281 23.328125 20.808594 23.296875 20.859375 23.238281 C 20.953125 23.132812 20.9375 22.972656 20.832031 22.882812 L 20.546875 22.644531 L 20.8125 21.996094 L 21.28125 21.992188 L 21.554688 22.632812 L 21.273438 22.878906 C 21.171875 22.972656 21.160156 23.132812 21.253906 23.234375 C 21.304688 23.292969 21.375 23.320312 21.441406 23.320312 C 21.503906 23.320312 21.5625 23.300781 21.613281 23.257812 L 21.765625 23.125 L 21.96875 23.597656 L 21.6875 23.84375 C 21.582031 23.9375 21.574219 24.097656 21.664062 24.199219 C 21.714844 24.257812 21.785156 24.285156 21.855469 24.285156 C 21.914062 24.285156 21.976562 24.265625 22.023438 24.222656 L 22.175781 24.089844 L 22.382812 24.5625 L 22.101562 24.808594 C 21.996094 24.902344 21.984375 25.0625 22.078125 25.164062 C 22.128906 25.222656 22.199219 25.25 22.269531 25.25 C 22.328125 25.25 22.386719 25.230469 22.4375 25.1875 L 22.589844 25.054688 L 22.726562 25.375 C 22.769531 25.472656 22.863281 25.527344 22.960938 25.527344 C 22.996094 25.527344 23.027344 25.523438 23.058594 25.507812 C 23.191406 25.453125 23.25 25.304688 23.195312 25.179688 L 23.058594 24.855469 L 23.261719 24.839844 C 23.402344 24.828125 23.503906 24.707031 23.492188 24.570312 C 23.484375 24.429688 23.359375 24.328125 23.21875 24.335938 Z M 20.730469 20.058594 L 21.328125 20.054688 L 21.753906 20.46875 L 21.757812 21.0625 L 21.339844 21.488281 L 20.742188 21.492188 L 20.316406 21.074219 L 20.3125 20.484375 Z M 20.730469 20.058594 " fill-opacity="1" fill-rule="nonzero"/><path fill="#c3ddda" d="M 15.664062 24.855469 L 15.332031 24.902344 L 15.367188 24.714844 C 15.390625 24.578125 15.296875 24.449219 15.160156 24.421875 C 15.023438 24.398438 14.890625 24.492188 14.867188 24.628906 L 14.804688 24.980469 L 14.3125 25.054688 L 14.34375 24.867188 C 14.367188 24.730469 14.277344 24.597656 14.136719 24.574219 C 14 24.550781 13.867188 24.644531 13.84375 24.78125 L 13.78125 25.132812 L 13.289062 25.207031 L 13.324219 25.019531 C 13.347656 24.882812 13.253906 24.75 13.117188 24.726562 C 12.976562 24.703125 12.847656 24.796875 12.824219 24.933594 L 12.761719 25.285156 L 12.085938 25.386719 L 11.851562 25.003906 L 12.257812 24.457031 L 12.601562 24.570312 C 12.628906 24.578125 12.65625 24.582031 12.679688 24.582031 C 12.789062 24.582031 12.886719 24.515625 12.921875 24.410156 C 12.964844 24.277344 12.894531 24.132812 12.761719 24.089844 L 12.578125 24.03125 L 12.871094 23.632812 L 13.21875 23.746094 C 13.242188 23.753906 13.269531 23.757812 13.296875 23.757812 C 13.402344 23.757812 13.503906 23.691406 13.539062 23.582031 C 13.582031 23.453125 13.507812 23.308594 13.375 23.265625 L 13.191406 23.207031 L 13.488281 22.808594 L 13.832031 22.921875 C 13.859375 22.929688 13.882812 22.933594 13.910156 22.933594 C 14.015625 22.933594 14.117188 22.863281 14.152344 22.757812 C 14.195312 22.625 14.121094 22.484375 13.988281 22.441406 L 13.804688 22.382812 L 14.003906 22.113281 C 14.089844 22 14.066406 21.84375 13.953125 21.761719 C 13.839844 21.675781 13.679688 21.703125 13.597656 21.8125 L 13.398438 22.082031 L 13.285156 21.925781 C 13.207031 21.8125 13.046875 21.785156 12.933594 21.863281 C 12.816406 21.945312 12.789062 22.101562 12.871094 22.214844 L 13.078125 22.507812 L 12.78125 22.90625 L 12.671875 22.75 C 12.589844 22.636719 12.433594 22.609375 12.320312 22.6875 C 12.203125 22.769531 12.175781 22.925781 12.257812 23.039062 L 12.464844 23.335938 L 12.167969 23.730469 L 12.058594 23.574219 C 11.976562 23.460938 11.820312 23.433594 11.703125 23.515625 C 11.589844 23.59375 11.5625 23.75 11.640625 23.863281 L 11.851562 24.160156 L 11.445312 24.703125 L 11.007812 24.59375 L 10.90625 23.925781 L 11.226562 23.761719 C 11.351562 23.699219 11.402344 23.546875 11.339844 23.425781 C 11.277344 23.300781 11.121094 23.25 10.996094 23.3125 L 10.824219 23.398438 L 10.753906 22.910156 L 11.074219 22.75 C 11.199219 22.683594 11.25 22.53125 11.1875 22.410156 C 11.121094 22.285156 10.96875 22.234375 10.84375 22.300781 L 10.671875 22.386719 L 10.597656 21.894531 L 10.921875 21.734375 C 11.046875 21.671875 11.097656 21.519531 11.03125 21.394531 C 10.96875 21.269531 10.816406 21.21875 10.691406 21.285156 L 10.519531 21.371094 L 10.46875 21.039062 C 10.449219 20.902344 10.324219 20.804688 10.179688 20.828125 C 10.042969 20.847656 9.945312 20.976562 9.96875 21.113281 L 10.015625 21.445312 L 9.828125 21.414062 C 9.691406 21.386719 9.558594 21.480469 9.535156 21.617188 C 9.507812 21.753906 9.601562 21.886719 9.738281 21.910156 L 10.097656 21.972656 L 10.171875 22.460938 L 9.980469 22.425781 C 9.84375 22.402344 9.710938 22.496094 9.6875 22.632812 C 9.664062 22.769531 9.753906 22.898438 9.894531 22.925781 L 10.25 22.984375 L 10.324219 23.476562 L 10.132812 23.441406 C 9.996094 23.417969 9.863281 23.511719 9.839844 23.648438 C 9.816406 23.785156 9.910156 23.914062 10.046875 23.9375 L 10.402344 24 L 10.503906 24.667969 L 10.117188 24.902344 L 9.570312 24.5 L 9.683594 24.15625 C 9.726562 24.023438 9.652344 23.882812 9.519531 23.839844 C 9.386719 23.796875 9.242188 23.867188 9.199219 24 L 9.140625 24.183594 L 8.738281 23.890625 L 8.851562 23.546875 C 8.894531 23.414062 8.820312 23.273438 8.6875 23.230469 C 8.554688 23.1875 8.410156 23.257812 8.367188 23.390625 L 8.308594 23.574219 L 7.90625 23.28125 L 8.019531 22.9375 C 8.0625 22.804688 7.988281 22.664062 7.855469 22.621094 C 7.722656 22.578125 7.578125 22.648438 7.535156 22.78125 L 7.476562 22.964844 L 7.207031 22.765625 C 7.09375 22.683594 6.933594 22.707031 6.851562 22.816406 C 6.765625 22.929688 6.789062 23.085938 6.902344 23.171875 L 7.175781 23.367188 L 7.015625 23.480469 C 6.902344 23.558594 6.875 23.714844 6.957031 23.828125 C 7.003906 23.898438 7.082031 23.9375 7.164062 23.9375 C 7.214844 23.9375 7.265625 23.921875 7.308594 23.890625 L 7.605469 23.683594 L 8.003906 23.980469 L 7.847656 24.089844 C 7.734375 24.167969 7.707031 24.324219 7.785156 24.441406 C 7.835938 24.507812 7.914062 24.546875 7.996094 24.546875 C 8.042969 24.546875 8.09375 24.53125 8.140625 24.5 L 8.4375 24.292969 L 8.835938 24.589844 L 8.679688 24.699219 C 8.566406 24.777344 8.535156 24.933594 8.617188 25.050781 C 8.667969 25.121094 8.746094 25.15625 8.824219 25.15625 C 8.875 25.15625 8.925781 25.140625 8.972656 25.109375 L 9.265625 24.90625 L 9.816406 25.304688 L 9.707031 25.742188 L 9.03125 25.84375 L 8.867188 25.523438 C 8.804688 25.398438 8.652344 25.347656 8.527344 25.410156 C 8.402344 25.472656 8.351562 25.625 8.414062 25.75 L 8.503906 25.921875 L 8.011719 25.996094 L 7.847656 25.675781 C 7.78125 25.550781 7.628906 25.5 7.503906 25.5625 C 7.378906 25.625 7.328125 25.777344 7.394531 25.902344 L 7.480469 26.074219 L 6.988281 26.144531 L 6.824219 25.824219 C 6.761719 25.703125 6.605469 25.652344 6.480469 25.714844 C 6.355469 25.777344 6.308594 25.929688 6.371094 26.054688 L 6.457031 26.226562 L 6.125 26.273438 C 5.988281 26.296875 5.890625 26.421875 5.910156 26.5625 C 5.929688 26.6875 6.039062 26.777344 6.164062 26.777344 C 6.175781 26.777344 6.1875 26.773438 6.199219 26.773438 L 6.535156 26.722656 L 6.5 26.910156 C 6.476562 27.046875 6.570312 27.179688 6.707031 27.203125 C 6.722656 27.207031 6.734375 27.207031 6.75 27.207031 C 6.871094 27.207031 6.980469 27.121094 7 27 L 7.0625 26.644531 L 7.554688 26.570312 L 7.523438 26.757812 C 7.496094 26.894531 7.589844 27.027344 7.726562 27.050781 C 7.742188 27.054688 7.757812 27.054688 7.773438 27.054688 C 7.894531 27.054688 8 26.96875 8.023438 26.847656 L 8.085938 26.492188 L 8.578125 26.417969 L 8.542969 26.605469 C 8.519531 26.742188 8.613281 26.875 8.75 26.898438 C 8.765625 26.902344 8.78125 26.902344 8.792969 26.902344 C 8.914062 26.902344 9.023438 26.816406 9.042969 26.695312 L 9.105469 26.339844 L 9.78125 26.238281 L 10.011719 26.625 L 9.609375 27.167969 L 9.265625 27.054688 C 9.132812 27.011719 8.988281 27.085938 8.945312 27.21875 C 8.898438 27.351562 8.972656 27.492188 9.105469 27.535156 L 9.289062 27.59375 L 8.992188 27.992188 L 8.648438 27.882812 C 8.515625 27.835938 8.371094 27.910156 8.328125 28.042969 C 8.285156 28.175781 8.359375 28.316406 8.492188 28.359375 L 8.675781 28.417969 L 8.378906 28.816406 L 8.035156 28.707031 C 7.902344 28.664062 7.757812 28.734375 7.714844 28.867188 C 7.671875 29 7.746094 29.140625 7.878906 29.183594 L 8.0625 29.246094 L 7.859375 29.511719 C 7.777344 29.625 7.800781 29.78125 7.914062 29.867188 C 7.960938 29.898438 8.011719 29.914062 8.066406 29.914062 C 8.144531 29.914062 8.21875 29.878906 8.269531 29.8125 L 8.46875 29.542969 L 8.578125 29.699219 C 8.628906 29.769531 8.707031 29.808594 8.789062 29.808594 C 8.839844 29.808594 8.890625 29.792969 8.933594 29.761719 C 9.046875 29.679688 9.074219 29.523438 8.996094 29.410156 L 8.789062 29.117188 L 9.082031 28.71875 L 9.195312 28.875 C 9.242188 28.945312 9.324219 28.980469 9.402344 28.980469 C 9.453125 28.980469 9.503906 28.96875 9.546875 28.9375 C 9.664062 28.855469 9.691406 28.699219 9.609375 28.585938 L 9.402344 28.292969 L 9.699219 27.894531 L 9.808594 28.050781 C 9.859375 28.121094 9.9375 28.15625 10.015625 28.15625 C 10.066406 28.15625 10.117188 28.140625 10.164062 28.109375 C 10.277344 28.03125 10.304688 27.875 10.222656 27.761719 L 10.015625 27.464844 L 10.421875 26.921875 L 10.859375 27.03125 L 10.960938 27.699219 L 10.636719 27.863281 C 10.511719 27.925781 10.464844 28.078125 10.527344 28.203125 C 10.570312 28.289062 10.660156 28.339844 10.753906 28.339844 C 10.792969 28.339844 10.832031 28.328125 10.867188 28.3125 L 11.039062 28.226562 L 11.113281 28.714844 L 10.792969 28.875 C 10.667969 28.941406 10.617188 29.089844 10.679688 29.214844 C 10.726562 29.304688 10.816406 29.351562 10.90625 29.351562 C 10.945312 29.351562 10.984375 29.34375 11.023438 29.324219 L 11.195312 29.238281 L 11.265625 29.730469 L 10.945312 29.890625 C 10.820312 29.953125 10.769531 30.105469 10.835938 30.230469 C 10.878906 30.316406 10.96875 30.367188 11.0625 30.367188 C 11.097656 30.367188 11.140625 30.359375 11.175781 30.339844 L 11.347656 30.253906 L 11.398438 30.585938 C 11.414062 30.710938 11.523438 30.800781 11.648438 30.800781 C 11.660156 30.800781 11.671875 30.796875 11.6875 30.796875 C 11.824219 30.777344 11.921875 30.648438 11.898438 30.507812 L 11.847656 30.179688 L 12.039062 30.210938 C 12.175781 30.238281 12.308594 30.144531 12.332031 30.007812 C 12.355469 29.871094 12.265625 29.738281 12.125 29.714844 L 11.769531 29.652344 L 11.695312 29.164062 L 11.886719 29.195312 C 12.023438 29.222656 12.15625 29.128906 12.179688 28.992188 C 12.203125 28.855469 12.109375 28.722656 11.972656 28.699219 L 11.617188 28.640625 L 11.542969 28.148438 L 11.730469 28.183594 C 11.867188 28.207031 12 28.113281 12.027344 27.976562 C 12.050781 27.839844 11.957031 27.710938 11.820312 27.6875 L 11.464844 27.625 L 11.363281 26.957031 L 11.75 26.722656 L 12.296875 27.125 L 12.183594 27.46875 C 12.140625 27.601562 12.214844 27.742188 12.347656 27.785156 C 12.375 27.792969 12.398438 27.796875 12.425781 27.796875 C 12.53125 27.796875 12.632812 27.730469 12.667969 27.625 L 12.726562 27.441406 L 13.128906 27.734375 L 13.015625 28.078125 C 12.972656 28.210938 13.046875 28.351562 13.179688 28.394531 C 13.203125 28.402344 13.230469 28.40625 13.257812 28.40625 C 13.363281 28.40625 13.464844 28.339844 13.5 28.234375 L 13.558594 28.050781 L 13.960938 28.347656 L 13.847656 28.6875 C 13.804688 28.820312 13.875 28.960938 14.011719 29.003906 C 14.035156 29.011719 14.0625 29.019531 14.089844 29.019531 C 14.195312 29.019531 14.296875 28.949219 14.332031 28.84375 L 14.390625 28.660156 L 14.660156 28.859375 C 14.707031 28.894531 14.757812 28.910156 14.8125 28.910156 C 14.890625 28.910156 14.964844 28.875 15.015625 28.808594 C 15.097656 28.695312 15.074219 28.539062 14.960938 28.457031 L 14.691406 28.257812 L 14.847656 28.148438 C 14.964844 28.066406 14.992188 27.910156 14.910156 27.796875 C 14.832031 27.679688 14.671875 27.652344 14.558594 27.734375 L 14.261719 27.941406 L 13.859375 27.644531 L 14.019531 27.535156 C 14.132812 27.457031 14.160156 27.300781 14.078125 27.183594 C 14 27.070312 13.839844 27.042969 13.726562 27.125 L 13.429688 27.332031 L 13.03125 27.039062 L 13.1875 26.929688 C 13.300781 26.847656 13.328125 26.691406 13.25 26.578125 C 13.167969 26.460938 13.011719 26.4375 12.894531 26.515625 L 12.601562 26.722656 L 12.050781 26.320312 L 12.160156 25.882812 L 12.832031 25.785156 L 13 26.105469 C 13.042969 26.191406 13.132812 26.242188 13.226562 26.242188 C 13.261719 26.242188 13.304688 26.234375 13.339844 26.214844 C 13.464844 26.152344 13.515625 26 13.449219 25.875 L 13.363281 25.707031 L 13.855469 25.632812 L 14.019531 25.953125 C 14.066406 26.039062 14.15625 26.089844 14.246094 26.089844 C 14.285156 26.089844 14.324219 26.082031 14.363281 26.0625 C 14.488281 26 14.535156 25.847656 14.472656 25.722656 L 14.386719 25.554688 L 14.878906 25.480469 L 15.042969 25.800781 C 15.085938 25.886719 15.175781 25.9375 15.269531 25.9375 C 15.308594 25.9375 15.347656 25.929688 15.382812 25.910156 C 15.507812 25.847656 15.558594 25.695312 15.496094 25.570312 L 15.410156 25.402344 L 15.742188 25.351562 C 15.878906 25.332031 15.976562 25.203125 15.957031 25.066406 C 15.933594 24.929688 15.808594 24.832031 15.664062 24.855469 Z M 11.046875 26.558594 L 10.480469 26.417969 L 10.183594 25.925781 L 10.324219 25.367188 L 10.820312 25.066406 L 11.382812 25.207031 L 11.683594 25.699219 L 11.542969 26.261719 Z M 11.046875 26.558594 " fill-opacity="1" fill-rule="nonzero"/><g clip-path="url(#2932a7f354)"><path fill="#b8d3cf" d="M 33.476562 29.089844 L 33.136719 29.089844 L 33.199219 28.90625 C 33.242188 28.777344 33.171875 28.632812 33.039062 28.589844 C 32.90625 28.542969 32.761719 28.617188 32.714844 28.75 L 32.601562 29.089844 L 32.105469 29.089844 L 32.164062 28.90625 C 32.210938 28.777344 32.136719 28.632812 32.003906 28.589844 C 31.871094 28.542969 31.726562 28.617188 31.683594 28.746094 L 31.570312 29.089844 L 31.070312 29.089844 L 31.132812 28.90625 C 31.175781 28.777344 31.105469 28.632812 30.96875 28.589844 C 30.835938 28.542969 30.695312 28.617188 30.648438 28.746094 L 30.535156 29.089844 L 29.855469 29.089844 L 29.679688 28.675781 L 30.164062 28.195312 L 30.484375 28.355469 C 30.523438 28.375 30.5625 28.382812 30.597656 28.382812 C 30.691406 28.382812 30.78125 28.332031 30.828125 28.246094 C 30.890625 28.121094 30.839844 27.96875 30.714844 27.90625 L 30.539062 27.820312 L 30.894531 27.472656 L 31.21875 27.632812 C 31.253906 27.648438 31.292969 27.65625 31.332031 27.65625 C 31.421875 27.65625 31.511719 27.605469 31.558594 27.519531 C 31.621094 27.394531 31.570312 27.242188 31.445312 27.179688 L 31.273438 27.09375 L 31.625 26.746094 L 31.949219 26.90625 C 31.984375 26.925781 32.023438 26.933594 32.0625 26.933594 C 32.15625 26.933594 32.242188 26.882812 32.289062 26.792969 C 32.351562 26.667969 32.300781 26.515625 32.175781 26.453125 L 32.003906 26.371094 L 32.242188 26.132812 C 32.339844 26.035156 32.339844 25.875 32.242188 25.777344 C 32.140625 25.679688 31.980469 25.679688 31.882812 25.777344 L 31.644531 26.011719 L 31.558594 25.84375 C 31.496094 25.71875 31.34375 25.667969 31.21875 25.730469 C 31.09375 25.792969 31.042969 25.945312 31.105469 26.066406 L 31.265625 26.390625 L 30.914062 26.738281 L 30.828125 26.566406 C 30.765625 26.445312 30.613281 26.394531 30.488281 26.457031 C 30.359375 26.515625 30.308594 26.667969 30.371094 26.792969 L 30.535156 27.113281 L 30.183594 27.464844 L 30.097656 27.292969 C 30.035156 27.167969 29.882812 27.117188 29.753906 27.179688 C 29.628906 27.242188 29.578125 27.394531 29.640625 27.519531 L 29.804688 27.839844 L 29.320312 28.316406 L 28.90625 28.148438 L 28.90625 27.472656 L 29.25 27.355469 C 29.382812 27.3125 29.453125 27.171875 29.410156 27.039062 C 29.363281 26.90625 29.222656 26.835938 29.085938 26.878906 L 28.90625 26.9375 L 28.90625 26.445312 L 29.25 26.332031 C 29.382812 26.285156 29.453125 26.144531 29.410156 26.011719 C 29.363281 25.878906 29.222656 25.808594 29.085938 25.851562 L 28.90625 25.914062 L 28.90625 25.417969 L 29.25 25.304688 C 29.382812 25.261719 29.453125 25.117188 29.410156 24.988281 C 29.363281 24.855469 29.222656 24.78125 29.085938 24.828125 L 28.90625 24.886719 L 28.90625 24.554688 C 28.90625 24.414062 28.792969 24.300781 28.652344 24.300781 C 28.511719 24.300781 28.398438 24.414062 28.398438 24.554688 L 28.398438 24.886719 L 28.214844 24.828125 C 28.082031 24.78125 27.9375 24.855469 27.894531 24.984375 C 27.847656 25.117188 27.921875 25.261719 28.054688 25.304688 L 28.398438 25.417969 L 28.398438 25.914062 L 28.214844 25.851562 C 28.082031 25.808594 27.9375 25.878906 27.894531 26.011719 C 27.847656 26.144531 27.921875 26.285156 28.054688 26.332031 L 28.398438 26.445312 L 28.398438 26.9375 L 28.214844 26.878906 C 28.082031 26.835938 27.9375 26.90625 27.894531 27.039062 C 27.847656 27.171875 27.921875 27.3125 28.054688 27.355469 L 28.398438 27.46875 L 28.398438 28.148438 L 27.980469 28.320312 L 27.5 27.839844 L 27.660156 27.519531 C 27.722656 27.394531 27.671875 27.242188 27.546875 27.179688 C 27.421875 27.117188 27.269531 27.167969 27.207031 27.292969 L 27.121094 27.464844 L 26.769531 27.113281 L 26.929688 26.792969 C 26.992188 26.667969 26.941406 26.515625 26.816406 26.457031 C 26.691406 26.394531 26.539062 26.445312 26.476562 26.566406 L 26.390625 26.738281 L 26.035156 26.390625 L 26.199219 26.066406 C 26.261719 25.945312 26.210938 25.792969 26.085938 25.730469 C 25.960938 25.667969 25.808594 25.71875 25.746094 25.84375 L 25.660156 26.011719 L 25.421875 25.777344 C 25.320312 25.679688 25.160156 25.679688 25.0625 25.777344 C 24.960938 25.875 24.960938 26.035156 25.0625 26.132812 L 25.300781 26.371094 L 25.128906 26.457031 C 25.003906 26.515625 24.953125 26.667969 25.015625 26.792969 C 25.058594 26.882812 25.148438 26.933594 25.242188 26.933594 C 25.28125 26.933594 25.320312 26.925781 25.355469 26.90625 L 25.679688 26.746094 L 26.03125 27.09375 L 25.859375 27.179688 C 25.734375 27.242188 25.683594 27.394531 25.746094 27.519531 C 25.789062 27.609375 25.878906 27.660156 25.972656 27.660156 C 26.011719 27.660156 26.050781 27.648438 26.085938 27.632812 L 26.410156 27.472656 L 26.761719 27.820312 L 26.589844 27.90625 C 26.464844 27.96875 26.414062 28.121094 26.476562 28.246094 C 26.519531 28.332031 26.609375 28.382812 26.703125 28.382812 C 26.742188 28.382812 26.78125 28.375 26.816406 28.359375 L 27.140625 28.199219 L 27.621094 28.675781 L 27.449219 29.089844 L 26.769531 29.089844 L 26.652344 28.75 C 26.609375 28.617188 26.464844 28.546875 26.332031 28.589844 C 26.199219 28.632812 26.128906 28.777344 26.171875 28.910156 L 26.234375 29.089844 L 25.734375 29.089844 L 25.621094 28.75 C 25.574219 28.617188 25.433594 28.546875 25.296875 28.589844 C 25.164062 28.632812 25.09375 28.777344 25.136719 28.910156 L 25.199219 29.089844 L 24.699219 29.089844 L 24.585938 28.75 C 24.542969 28.617188 24.398438 28.546875 24.265625 28.589844 C 24.132812 28.632812 24.058594 28.777344 24.105469 28.910156 L 24.164062 29.089844 L 23.828125 29.089844 C 23.6875 29.089844 23.574219 29.203125 23.574219 29.339844 C 23.574219 29.480469 23.6875 29.59375 23.828125 29.59375 L 24.164062 29.59375 L 24.101562 29.773438 C 24.058594 29.90625 24.132812 30.050781 24.265625 30.09375 C 24.289062 30.101562 24.316406 30.105469 24.34375 30.105469 C 24.449219 30.105469 24.550781 30.039062 24.585938 29.933594 L 24.699219 29.59375 L 25.199219 29.59375 L 25.136719 29.773438 C 25.09375 29.90625 25.164062 30.050781 25.296875 30.09375 C 25.324219 30.101562 25.351562 30.105469 25.378906 30.105469 C 25.484375 30.105469 25.582031 30.039062 25.617188 29.933594 L 25.734375 29.59375 L 26.230469 29.59375 L 26.171875 29.773438 C 26.125 29.90625 26.199219 30.050781 26.332031 30.09375 C 26.359375 30.101562 26.386719 30.105469 26.410156 30.105469 C 26.519531 30.105469 26.617188 30.039062 26.652344 29.933594 L 26.765625 29.59375 L 27.449219 29.59375 L 27.621094 30.007812 L 27.140625 30.484375 L 26.816406 30.324219 C 26.691406 30.261719 26.539062 30.3125 26.476562 30.4375 C 26.410156 30.5625 26.460938 30.714844 26.589844 30.777344 L 26.761719 30.859375 L 26.40625 31.210938 L 26.085938 31.050781 C 25.960938 30.988281 25.808594 31.039062 25.742188 31.164062 C 25.679688 31.289062 25.730469 31.4375 25.855469 31.5 L 26.03125 31.585938 L 25.675781 31.9375 L 25.355469 31.773438 C 25.226562 31.714844 25.074219 31.761719 25.011719 31.886719 C 24.949219 32.011719 25 32.164062 25.125 32.226562 L 25.296875 32.3125 L 25.058594 32.546875 C 24.960938 32.644531 24.960938 32.804688 25.058594 32.902344 C 25.109375 32.953125 25.175781 32.976562 25.238281 32.976562 C 25.304688 32.976562 25.371094 32.953125 25.417969 32.902344 L 25.65625 32.667969 L 25.742188 32.839844 C 25.789062 32.925781 25.878906 32.976562 25.972656 32.976562 C 26.007812 32.976562 26.046875 32.96875 26.085938 32.953125 C 26.210938 32.890625 26.261719 32.738281 26.199219 32.613281 L 26.035156 32.292969 L 26.386719 31.941406 L 26.472656 32.113281 C 26.519531 32.203125 26.609375 32.253906 26.703125 32.253906 C 26.738281 32.253906 26.777344 32.246094 26.816406 32.226562 C 26.941406 32.164062 26.992188 32.011719 26.929688 31.886719 L 26.765625 31.566406 L 27.121094 31.21875 L 27.207031 31.386719 C 27.25 31.476562 27.339844 31.527344 27.433594 31.527344 C 27.472656 31.527344 27.507812 31.519531 27.546875 31.5 C 27.671875 31.4375 27.722656 31.289062 27.660156 31.164062 L 27.496094 30.84375 L 27.980469 30.363281 L 28.398438 30.535156 L 28.398438 31.210938 L 28.054688 31.324219 C 27.921875 31.367188 27.847656 31.511719 27.890625 31.644531 C 27.9375 31.777344 28.078125 31.847656 28.214844 31.804688 L 28.398438 31.742188 L 28.398438 32.238281 L 28.054688 32.351562 C 27.921875 32.394531 27.847656 32.539062 27.894531 32.667969 C 27.9375 32.800781 28.078125 32.875 28.214844 32.828125 L 28.398438 32.769531 L 28.398438 33.261719 L 28.054688 33.375 C 27.921875 33.421875 27.847656 33.5625 27.894531 33.695312 C 27.9375 33.828125 28.078125 33.898438 28.214844 33.855469 L 28.398438 33.792969 L 28.398438 34.128906 C 28.398438 34.269531 28.511719 34.378906 28.652344 34.378906 C 28.789062 34.378906 28.90625 34.269531 28.90625 34.128906 L 28.90625 33.792969 L 29.085938 33.855469 C 29.113281 33.863281 29.140625 33.867188 29.167969 33.867188 C 29.273438 33.867188 29.371094 33.800781 29.40625 33.695312 C 29.453125 33.5625 29.378906 33.421875 29.246094 33.375 L 28.90625 33.261719 L 28.90625 32.769531 L 29.085938 32.828125 C 29.113281 32.839844 29.140625 32.84375 29.167969 32.84375 C 29.273438 32.84375 29.375 32.777344 29.410156 32.667969 C 29.453125 32.539062 29.382812 32.394531 29.246094 32.351562 L 28.90625 32.238281 L 28.90625 31.742188 L 29.085938 31.804688 C 29.113281 31.8125 29.140625 31.816406 29.167969 31.816406 C 29.273438 31.816406 29.375 31.75 29.410156 31.644531 C 29.453125 31.511719 29.382812 31.367188 29.246094 31.324219 L 28.90625 31.210938 L 28.90625 30.535156 L 29.320312 30.363281 L 29.804688 30.839844 L 29.640625 31.164062 C 29.578125 31.289062 29.628906 31.4375 29.753906 31.5 C 29.792969 31.519531 29.832031 31.527344 29.867188 31.527344 C 29.960938 31.527344 30.050781 31.476562 30.09375 31.386719 L 30.183594 31.21875 L 30.535156 31.566406 L 30.371094 31.886719 C 30.308594 32.011719 30.359375 32.164062 30.484375 32.226562 C 30.523438 32.246094 30.5625 32.253906 30.597656 32.253906 C 30.691406 32.253906 30.78125 32.203125 30.828125 32.113281 L 30.914062 31.941406 L 31.265625 32.292969 L 31.101562 32.613281 C 31.039062 32.738281 31.089844 32.890625 31.214844 32.953125 C 31.253906 32.96875 31.292969 32.976562 31.328125 32.976562 C 31.421875 32.976562 31.511719 32.925781 31.558594 32.839844 L 31.644531 32.667969 L 31.882812 32.902344 C 31.929688 32.953125 31.996094 32.976562 32.0625 32.976562 C 32.125 32.976562 32.191406 32.953125 32.242188 32.902344 C 32.339844 32.804688 32.339844 32.644531 32.242188 32.546875 L 32.003906 32.3125 L 32.175781 32.226562 C 32.300781 32.164062 32.351562 32.011719 32.289062 31.886719 C 32.226562 31.761719 32.074219 31.714844 31.945312 31.773438 L 31.625 31.9375 L 31.269531 31.585938 L 31.445312 31.5 C 31.570312 31.4375 31.621094 31.285156 31.558594 31.164062 C 31.492188 31.039062 31.339844 30.988281 31.214844 31.050781 L 30.894531 31.210938 L 30.539062 30.859375 L 30.710938 30.773438 C 30.835938 30.710938 30.886719 30.5625 30.824219 30.4375 C 30.761719 30.3125 30.609375 30.261719 30.484375 30.324219 L 30.160156 30.484375 L 29.679688 30.007812 L 29.851562 29.59375 L 30.535156 29.59375 L 30.648438 29.933594 C 30.683594 30.039062 30.78125 30.105469 30.890625 30.105469 C 30.914062 30.105469 30.941406 30.101562 30.96875 30.09375 C 31.101562 30.046875 31.175781 29.90625 31.128906 29.773438 L 31.070312 29.59375 L 31.566406 29.59375 L 31.683594 29.933594 C 31.71875 30.039062 31.816406 30.105469 31.921875 30.105469 C 31.949219 30.105469 31.976562 30.101562 32.003906 30.09375 C 32.136719 30.046875 32.207031 29.90625 32.164062 29.773438 L 32.101562 29.59375 L 32.601562 29.59375 L 32.714844 29.933594 C 32.75 30.039062 32.851562 30.105469 32.957031 30.105469 C 32.984375 30.105469 33.007812 30.101562 33.035156 30.09375 C 33.167969 30.046875 33.242188 29.90625 33.195312 29.773438 L 33.136719 29.59375 L 33.472656 29.59375 C 33.613281 29.59375 33.726562 29.480469 33.726562 29.339844 C 33.726562 29.199219 33.613281 29.089844 33.476562 29.089844 Z M 28.652344 30.09375 L 28.113281 29.875 L 27.890625 29.339844 L 28.113281 28.808594 L 28.652344 28.585938 L 29.1875 28.808594 L 29.410156 29.339844 L 29.1875 29.875 Z M 28.652344 30.09375 " fill-opacity="1" fill-rule="nonzero"/></g></svg>