<svg xmlns="http://www.w3.org/2000/svg" xmlns:xlink="http://www.w3.org/1999/xlink" width="50" zoomAndPan="magnify" viewBox="0 0 37.5 37.499999" height="50" preserveAspectRatio="xMidYMid meet" version="1.0"><defs><clipPath id="99962c6ee7"><path d="M 9 1.863281 L 31 1.863281 L 31 25 L 9 25 Z M 9 1.863281 " clip-rule="nonzero"/></clipPath><clipPath id="9d6d48aadf"><path d="M 5.316406 16.957031 L 31.855469 16.957031 L 31.855469 35.613281 L 5.316406 35.613281 Z M 5.316406 16.957031 " clip-rule="nonzero"/></clipPath></defs><g clip-path="url(#99962c6ee7)"><path fill="#f17e00" d="M 25.667969 11.292969 C 25.859375 10.152344 25.210938 8 23.253906 7.820312 C 23.253906 7.820312 23.710938 9.09375 23.339844 10 C 23.035156 10.753906 22.101562 10.804688 21.863281 10.183594 C 21.585938 9.472656 22.011719 8.03125 22.058594 7.792969 C 22.160156 7.25 22.261719 6.59375 21.738281 5.761719 C 21.054688 4.671875 19.714844 4.03125 20.265625 2.566406 C 20.417969 2.152344 20.65625 1.914062 20.554688 1.894531 C 20.410156 1.863281 18.03125 2.832031 18.566406 4.40625 C 18.785156 5.054688 19.0625 5.714844 19.140625 6.125 C 19.335938 7.238281 18.207031 8.007812 17.320312 7.171875 C 16.980469 6.855469 16.820312 6.269531 16.855469 5.707031 C 16.890625 5.191406 17.132812 4.621094 17.253906 4.449219 C 17.472656 4.132812 17.015625 4.117188 16.777344 4.304688 C 15.542969 5.046875 13.910156 5.230469 13.375 7.667969 C 13.164062 8.621094 13.359375 9.332031 13.652344 10.21875 C 14.027344 11.402344 15.042969 15.25 13.527344 15.957031 C 13.199219 16.109375 12.417969 16.023438 12.429688 14.476562 C 12.4375 12.371094 10.886719 12.390625 9.058594 12.527344 C 11.089844 14.261719 7.5625 19.546875 10.507812 22.507812 C 12.214844 24.507812 21.847656 25.265625 25.546875 21.84375 C 28.941406 18.703125 24.9375 15.667969 25.667969 11.292969 Z M 28.238281 8.925781 C 32.292969 11.90625 28.257812 15.539062 29.144531 16.746094 C 25.207031 13.667969 28.246094 12.238281 28.238281 8.925781 " fill-opacity="1" fill-rule="evenodd"/></g><g clip-path="url(#9d6d48aadf)"><path fill="#141515" d="M 29.144531 18.230469 Z M 29.144531 18.230469 C 30.761719 19.113281 31.753906 20.203125 31.847656 21.378906 C 31.855469 21.410156 31.855469 21.445312 31.855469 21.472656 C 31.855469 21.488281 31.855469 21.503906 31.855469 21.515625 C 31.855469 21.53125 31.855469 21.546875 31.855469 21.558594 C 31.855469 21.667969 31.84375 21.769531 31.835938 21.878906 L 31.828125 21.972656 C 31.804688 22.316406 31.785156 22.730469 31.769531 22.851562 C 31.386719 25.796875 30.085938 28.152344 28.230469 29.882812 C 28.847656 31.507812 29.933594 34.765625 29.882812 34.859375 C 29.824219 34.980469 28.707031 35.328125 28.375 35.105469 C 28.164062 34.960938 27.054688 32.886719 26.265625 31.371094 C 24.699219 32.324219 22.929688 32.945312 21.085938 33.21875 C 21.035156 33.675781 20.722656 35.394531 20.546875 35.523438 C 20.34375 35.667969 18.667969 35.59375 18.667969 35.59375 C 18.667969 35.59375 18.378906 33.871094 18.371094 33.386719 C 16.515625 33.328125 14.671875 32.925781 12.976562 32.171875 C 12.4375 31.933594 11.917969 31.660156 11.414062 31.351562 C 10.8125 32.765625 9.777344 35.125 9.59375 35.125 C 9.339844 35.125 8.941406 35.046875 8.957031 34.714844 C 8.972656 34.375 10.625 30.265625 10.558594 30.058594 C 10.503906 29.839844 10.277344 29.667969 10.058594 29.992188 C 9.835938 30.324219 7.890625 34.664062 7.746094 34.679688 C 7.601562 34.6875 7.59375 34.578125 7.59375 34.578125 L 9.195312 29.617188 C 7.722656 28.167969 6.5625 26.296875 5.886719 23.980469 C 5.839844 23.804688 5.714844 23.371094 5.605469 22.976562 C 5.53125 22.714844 5.46875 22.476562 5.4375 22.363281 C 5.4375 22.339844 5.4375 22.316406 5.4375 22.304688 C 5.359375 22.058594 5.316406 21.8125 5.316406 21.558594 C 5.316406 20.417969 6.15625 19.367188 7.585938 18.492188 C 7.949219 18.261719 8.347656 18.253906 7.773438 18.695312 C 6.976562 19.316406 6.484375 20.007812 6.382812 20.738281 C 7.136719 20.414062 13.394531 16.988281 13.484375 16.96875 C 13.578125 16.945312 13.671875 17.0625 13.671875 17.199219 C 13.664062 17.328125 13.5625 17.367188 13.5625 17.367188 L 6.460938 21.625 L 6.449219 21.597656 C 6.546875 21.941406 6.730469 22.273438 7 22.59375 C 7.8125 22.230469 16.863281 17.039062 16.945312 17.019531 C 17.046875 16.996094 17.140625 17.113281 17.132812 17.25 C 17.132812 17.378906 17.03125 17.417969 17.03125 17.417969 L 7.746094 23.308594 C 8.109375 23.589844 8.535156 23.855469 9.023438 24.101562 C 9.949219 23.691406 20.535156 17.035156 20.613281 17.019531 C 20.722656 16.996094 20.816406 17.113281 20.816406 17.25 C 20.808594 17.394531 20.699219 17.429688 20.699219 17.429688 L 10.125 24.59375 C 10.710938 24.824219 11.367188 25.027344 12.0625 25.207031 C 12.816406 24.78125 23.582031 17.394531 24.039062 17.191406 C 24.769531 16.859375 25.148438 17.335938 24.457031 17.8125 L 13.503906 25.523438 C 14.296875 25.667969 15.128906 25.785156 15.992188 25.855469 C 16.886719 25.257812 26.675781 18.109375 27.136719 17.898438 C 27.867188 17.574219 28.238281 18.03125 27.554688 18.527344 L 17.546875 25.941406 C 17.855469 25.957031 18.175781 25.957031 18.488281 25.957031 C 18.910156 25.957031 19.324219 25.949219 19.730469 25.933594 C 19.859375 25.839844 26.257812 20.851562 26.832031 20.578125 C 27.511719 20.253906 27.941406 20.707031 27.324219 21.207031 L 21.832031 25.769531 C 22.890625 25.648438 23.886719 25.464844 24.800781 25.234375 C 25.183594 24.851562 28.441406 21.574219 28.984375 21.183594 C 29.660156 20.699219 30.128906 21.089844 29.542969 21.742188 L 27.035156 24.519531 C 29.246094 23.625 30.617188 22.382812 30.617188 21.011719 C 30.617188 20.347656 30.296875 19.710938 29.710938 19.132812 C 29.324219 19.378906 29 19.574219 28.839844 19.648438 C 28.195312 19.9375 27.875 19.546875 28.46875 19.082031 L 29.09375 18.605469 C 29.050781 18.578125 29.007812 18.550781 28.96875 18.519531 C 28.449219 18.160156 28.59375 17.9375 29.144531 18.230469 Z M 14.824219 31.4375 Z M 14.824219 31.4375 C 15.527344 31.652344 17.753906 32.253906 20.136719 31.878906 C 21.898438 31.597656 23.050781 30.832031 23.683594 30.28125 C 22.210938 30.78125 19.242188 31.597656 16.644531 31.164062 C 13.019531 30.550781 11.25 28.757812 11.25 28.757812 C 11.25 28.757812 11.386719 29.011719 11.664062 29.34375 C 12.011719 29.753906 12.546875 30.273438 12.960938 30.511719 C 13.699219 30.945312 13.535156 31.082031 13.394531 31.074219 C 13.34375 31.074219 12.824219 30.894531 12.402344 30.648438 C 12.226562 30.550781 12.046875 30.433594 11.851562 30.3125 C 11.851562 30.3125 11.765625 30.527344 11.617188 30.867188 C 12.125 31.183594 12.648438 31.457031 13.1875 31.703125 C 15.265625 32.628906 17.589844 32.996094 19.851562 32.835938 C 22.050781 32.6875 24.191406 32.035156 26.023438 30.917969 C 25.980469 30.824219 25.929688 30.738281 25.886719 30.65625 C 25.023438 31.257812 23.03125 32.382812 20.097656 32.46875 C 18.183594 32.527344 16.5 32.453125 14.730469 31.726562 C 14.417969 31.601562 14.332031 31.277344 14.824219 31.4375 Z M 10.167969 28.980469 Z M 10.167969 28.980469 C 10.050781 28.867188 9.941406 28.757812 9.847656 28.648438 C 8.929688 27.632812 8.449219 25.863281 8.449219 25.863281 C 8.449219 25.863281 14.5625 28.800781 22.457031 27.34375 C 26.316406 26.628906 28.410156 25.558594 29.542969 24.65625 C 27.148438 26.109375 23.136719 27.054688 18.582031 27.054688 C 16.289062 27.054688 14.136719 26.816406 12.25 26.390625 L 12.242188 26.390625 C 9.601562 25.792969 7.507812 24.839844 6.339844 23.683594 C 6.359375 23.742188 6.375 23.796875 6.382812 23.835938 C 7.027344 26.035156 8.128906 27.820312 9.515625 29.199219 C 9.667969 29.089844 9.886719 28.988281 10.167969 28.980469 " fill-opacity="1" fill-rule="evenodd"/></g></svg>