<svg xmlns="http://www.w3.org/2000/svg" xmlns:xlink="http://www.w3.org/1999/xlink" width="50" zoomAndPan="magnify" viewBox="0 0 37.5 37.499999" height="50" preserveAspectRatio="xMidYMid meet" version="1.0"><defs><clipPath id="8853154aaa"><path d="M 23 31 L 26 31 L 26 34.675781 L 23 34.675781 Z M 23 31 " clip-rule="nonzero"/></clipPath><clipPath id="7250afc6c1"><path d="M 25 32 L 26 32 L 26 34.675781 L 25 34.675781 Z M 25 32 " clip-rule="nonzero"/></clipPath><clipPath id="494f188f99"><path d="M 23 31 L 25 31 L 25 34.675781 L 23 34.675781 Z M 23 31 " clip-rule="nonzero"/></clipPath><clipPath id="202771a29f"><path d="M 12 31 L 14 31 L 14 34.675781 L 12 34.675781 Z M 12 31 " clip-rule="nonzero"/></clipPath><clipPath id="6e4562b8cb"><path d="M 13 32 L 14 32 L 14 34.675781 L 13 34.675781 Z M 13 32 " clip-rule="nonzero"/></clipPath><clipPath id="ad97d43309"><path d="M 12 31 L 13 31 L 13 34.675781 L 12 34.675781 Z M 12 31 " clip-rule="nonzero"/></clipPath><clipPath id="a455c3f58f"><path d="M 16 3.175781 L 21 3.175781 L 21 11 L 16 11 Z M 16 3.175781 " clip-rule="nonzero"/></clipPath><clipPath id="66b35e7cdb"><path d="M 19 3.175781 L 21 3.175781 L 21 11 L 19 11 Z M 19 3.175781 " clip-rule="nonzero"/></clipPath><clipPath id="e8f3c17c11"><path d="M 16 3.175781 L 18 3.175781 L 18 11 L 16 11 Z M 16 3.175781 " clip-rule="nonzero"/></clipPath><clipPath id="717c321169"><path d="M 11.273438 11 L 26.273438 11 L 26.273438 33 L 11.273438 33 Z M 11.273438 11 " clip-rule="nonzero"/></clipPath><clipPath id="31acbfe91a"><path d="M 24 11 L 26.273438 11 L 26.273438 33 L 24 33 Z M 24 11 " clip-rule="nonzero"/></clipPath><clipPath id="26595fb95b"><path d="M 11.273438 11 L 13 11 L 13 33 L 11.273438 33 Z M 11.273438 11 " clip-rule="nonzero"/></clipPath></defs><g clip-path="url(#8853154aaa)"><path fill="#33322f" d="M 25.394531 31.921875 L 25.394531 34.671875 L 23.960938 34.671875 L 23.960938 31.921875 L 25.394531 31.921875 " fill-opacity="1" fill-rule="nonzero"/></g><g clip-path="url(#7250afc6c1)"><path fill="#2e2d2b" d="M 25.394531 32.105469 L 25.394531 34.671875 L 25.035156 34.671875 L 25.035156 32.105469 L 25.394531 32.105469 " fill-opacity="1" fill-rule="nonzero"/></g><g clip-path="url(#494f188f99)"><path fill="#373633" d="M 24.25 31.921875 L 24.25 34.671875 L 23.960938 34.671875 L 23.960938 31.921875 L 24.25 31.921875 " fill-opacity="1" fill-rule="nonzero"/></g><g clip-path="url(#202771a29f)"><path fill="#33322f" d="M 13.660156 31.921875 L 13.660156 34.671875 L 12.226562 34.671875 L 12.226562 31.921875 L 13.660156 31.921875 " fill-opacity="1" fill-rule="nonzero"/></g><g clip-path="url(#6e4562b8cb)"><path fill="#2e2d2b" d="M 13.660156 32.105469 L 13.660156 34.671875 L 13.300781 34.671875 L 13.300781 32.105469 L 13.660156 32.105469 " fill-opacity="1" fill-rule="nonzero"/></g><g clip-path="url(#ad97d43309)"><path fill="#373633" d="M 12.519531 31.921875 L 12.519531 34.671875 L 12.226562 34.671875 L 12.226562 31.921875 L 12.519531 31.921875 " fill-opacity="1" fill-rule="nonzero"/></g><g clip-path="url(#a455c3f58f)"><path fill="#484844" d="M 20.65625 3.179688 L 20.65625 10.417969 L 16.570312 10.417969 L 16.570312 3.179688 L 20.65625 3.179688 " fill-opacity="1" fill-rule="nonzero"/></g><g clip-path="url(#66b35e7cdb)"><path fill="#3e3d3a" d="M 20.65625 3.179688 L 20.65625 10.417969 L 19.648438 10.417969 L 19.648438 3.179688 L 20.65625 3.179688 " fill-opacity="1" fill-rule="nonzero"/></g><g clip-path="url(#e8f3c17c11)"><path fill="#4e4f4c" d="M 17.359375 3.179688 L 17.359375 10.417969 L 16.570312 10.417969 L 16.570312 3.179688 L 17.359375 3.179688 " fill-opacity="1" fill-rule="nonzero"/></g><g clip-path="url(#717c321169)"><path fill="#484844" d="M 11.273438 32.207031 L 26.277344 32.207031 L 26.277344 11.105469 L 11.273438 11.105469 Z M 11.273438 32.207031 " fill-opacity="1" fill-rule="nonzero"/></g><path fill="#33322f" d="M 22.746094 11.175781 L 14.683594 11.175781 L 14.683594 10.214844 L 22.746094 10.214844 L 22.746094 11.175781 " fill-opacity="1" fill-rule="nonzero"/><path fill="#33322f" d="M 24.785156 27.558594 L 12.992188 27.558594 L 12.992188 19.546875 C 12.992188 18.101562 14.15625 16.925781 15.59375 16.925781 L 22.183594 16.925781 C 23.621094 16.925781 24.785156 18.101562 24.785156 19.546875 L 24.785156 27.558594 " fill-opacity="1" fill-rule="nonzero"/><path fill="#3b1a14" d="M 23.660156 23.089844 L 23.660156 25.738281 C 23.660156 26.074219 23.394531 26.347656 23.0625 26.347656 L 14.757812 26.347656 C 14.425781 26.347656 14.15625 26.074219 14.15625 25.738281 L 14.15625 23.089844 C 14.15625 20.445312 16.285156 18.300781 18.90625 18.300781 C 20.222656 18.300781 21.410156 18.835938 22.269531 19.703125 C 23.128906 20.570312 23.660156 21.765625 23.660156 23.089844 " fill-opacity="1" fill-rule="nonzero"/><path fill="#f9a624" d="M 23.207031 25.109375 C 23.644531 25.703125 23.183594 26.097656 22.292969 26.347656 L 14.855469 26.347656 C 14.800781 26.320312 14.761719 26.296875 14.746094 26.269531 C 14.351562 25.746094 14.359375 24.96875 14.988281 24.601562 C 14.792969 25.058594 15 25.328125 15.242188 25.402344 C 15.40625 25.453125 15.589844 25.414062 15.675781 25.289062 C 15.722656 25.226562 15.742188 25.140625 15.726562 25.03125 C 15.695312 24.972656 15.664062 24.917969 15.628906 24.859375 L 15.609375 24.820312 C 15.226562 24.1875 14.75 23.679688 15.621094 23.058594 C 15.617188 23.367188 15.6875 23.648438 15.878906 23.875 C 15.972656 23.984375 16.09375 24.082031 16.25 24.167969 C 16.125 24.046875 16.03125 23.914062 15.960938 23.773438 C 15.488281 22.832031 16.164062 21.523438 17.191406 21.230469 C 16.953125 21.609375 16.960938 21.988281 17.09375 22.347656 C 17.152344 22.5 17.230469 22.644531 17.324219 22.789062 C 17.441406 22.96875 17.582031 23.144531 17.726562 23.300781 C 17.835938 23.167969 17.925781 23.03125 17.976562 22.894531 L 17.996094 22.847656 C 18.082031 22.578125 18.023438 22.308594 17.722656 22.074219 C 18.066406 22.09375 18.335938 22.214844 18.511719 22.4375 C 18.652344 22.617188 18.738281 22.855469 18.761719 23.15625 C 18.765625 23.199219 18.765625 23.238281 18.769531 23.285156 L 18.808594 23.238281 C 19.09375 22.925781 18.785156 22.546875 18.609375 22.238281 L 18.585938 22.195312 C 17.839844 21.097656 20.019531 20.628906 19.140625 19.53125 C 20.042969 20.046875 20.171875 20.765625 19.675781 21.429688 L 19.65625 21.457031 C 19.511719 21.71875 19.597656 21.875 19.738281 21.914062 C 19.941406 21.96875 20.257812 21.765625 20.09375 21.273438 C 20.914062 21.863281 20.671875 22.304688 20.296875 22.703125 C 19.988281 23.03125 19.585938 23.332031 19.601562 23.65625 C 19.808594 23.40625 20.023438 23.1875 20.269531 23.011719 C 20.398438 22.917969 20.535156 22.839844 20.6875 22.773438 C 20.726562 22.757812 20.765625 22.742188 20.808594 22.722656 C 20.835938 22.777344 20.796875 22.796875 20.777344 22.816406 L 20.722656 22.859375 C 20.542969 23.011719 20.460938 23.175781 20.441406 23.34375 L 20.4375 23.402344 C 20.421875 23.699219 20.578125 24.011719 20.722656 24.316406 C 20.742188 24.355469 20.761719 24.394531 20.78125 24.4375 C 20.933594 24.246094 21.148438 24.007812 21.277344 23.757812 C 21.3125 23.691406 21.339844 23.625 21.359375 23.558594 C 21.421875 23.332031 21.378906 23.109375 21.109375 22.925781 C 21.242188 22.917969 21.359375 22.933594 21.460938 22.96875 C 21.628906 23.027344 21.753906 23.144531 21.84375 23.316406 C 21.90625 23.4375 21.953125 23.59375 21.972656 23.777344 C 22.117188 23.578125 22.117188 23.398438 22.042969 23.226562 C 21.761719 22.558594 20.339844 22.027344 21.570312 21.179688 C 21.136719 22.09375 22.429688 22.160156 22.59375 22.917969 C 22.683594 22.683594 22.546875 22.542969 22.4375 22.371094 C 23.347656 22.816406 23.089844 23.6875 22.5625 24.320312 L 22.503906 24.375 C 22.476562 24.402344 22.453125 24.429688 22.433594 24.457031 C 22.378906 24.535156 22.351562 24.628906 22.382812 24.734375 C 22.574219 24.339844 22.910156 24.054688 23.421875 24.054688 C 22.910156 24.253906 22.875 24.753906 23.207031 25.109375 " fill-opacity="1" fill-rule="nonzero"/><path fill="#e6501d" d="M 22.089844 26.347656 L 15.871094 26.347656 C 15.691406 26.21875 15.621094 26.074219 15.691406 25.90625 C 15.816406 25.570312 16.175781 25.234375 15.832031 24.894531 C 16.566406 25.074219 16.125 25.992188 17.125 26.214844 C 15.847656 25.441406 16.5625 24.035156 17.734375 23.542969 C 17.734375 23.542969 17.738281 23.542969 17.738281 23.542969 C 17.746094 23.542969 17.75 23.542969 17.753906 23.542969 C 17.761719 23.542969 17.769531 23.542969 17.773438 23.542969 C 17.789062 23.542969 17.804688 23.546875 17.816406 23.5625 C 17.429688 23.945312 17.492188 24.453125 17.835938 24.90625 C 17.894531 23.992188 19.234375 23.597656 19.109375 22.636719 C 19.832031 23.449219 18.28125 24.148438 18.652344 24.96875 C 18.738281 25.136719 18.886719 25.210938 19.039062 25.210938 C 19.277344 25.210938 19.511719 25.027344 19.476562 24.742188 C 19.746094 25.003906 19.746094 25.332031 19.832031 25.332031 C 19.851562 25.332031 19.871094 25.316406 19.902344 25.277344 C 20.386719 24.847656 19.976562 24.535156 20.007812 24.007812 C 20.15625 24.433594 20.601562 24.699219 20.585938 25.132812 C 21.046875 24.722656 21.996094 24.472656 21.785156 23.742188 C 22.253906 24.21875 22.367188 25.011719 21.746094 25.40625 C 22.046875 25.34375 22.207031 25.167969 22.269531 24.910156 C 22.65625 25.367188 22.148438 25.640625 21.777344 25.871094 C 21.566406 26.085938 21.769531 26.285156 21.972656 26.285156 C 22.082031 26.285156 22.1875 26.234375 22.238281 26.097656 C 22.269531 26.027344 22.261719 25.953125 22.257812 25.859375 C 22.320312 26.046875 22.253906 26.210938 22.089844 26.347656 " fill-opacity="1" fill-rule="nonzero"/><path fill="#f9a624" d="M 21.730469 21.1875 C 21.730469 21.1875 21.496094 21.136719 21.578125 20.890625 C 21.664062 20.648438 21.585938 20.585938 21.503906 20.558594 C 21.425781 20.53125 21.3125 20.558594 21.3125 20.558594 C 21.3125 20.558594 21.402344 20.453125 21.539062 20.496094 C 21.675781 20.539062 21.777344 20.609375 21.742188 20.785156 C 21.707031 20.957031 21.730469 21.1875 21.730469 21.1875 " fill-opacity="1" fill-rule="nonzero"/><path fill="#f9a624" d="M 16.851562 21.058594 C 16.851562 21.058594 16.878906 20.757812 16.578125 20.746094 C 16.277344 20.734375 16.238281 20.613281 16.238281 20.503906 C 16.238281 20.394531 16.304688 20.273438 16.304688 20.273438 C 16.304688 20.273438 16.15625 20.335938 16.15625 20.515625 C 16.15625 20.695312 16.195312 20.851562 16.402344 20.890625 C 16.605469 20.925781 16.851562 21.058594 16.851562 21.058594 " fill-opacity="1" fill-rule="nonzero"/><path fill="#f9a624" d="M 18.785156 19.261719 C 18.785156 19.261719 18.914062 19.402344 19.023438 19.316406 C 19.132812 19.234375 19.199219 19.273438 19.25 19.324219 C 19.300781 19.371094 19.332031 19.445312 19.332031 19.445312 C 19.332031 19.445312 19.355469 19.375 19.273438 19.292969 C 19.191406 19.210938 19.101562 19.15625 19.015625 19.199219 C 18.929688 19.246094 18.785156 19.261719 18.785156 19.261719 " fill-opacity="1" fill-rule="nonzero"/><g clip-path="url(#31acbfe91a)"><path fill="#3e3d3b" d="M 26.277344 11.105469 L 26.277344 32.207031 L 24.992188 32.207031 L 24.992188 11.105469 L 26.277344 11.105469 " fill-opacity="1" fill-rule="nonzero"/></g><g clip-path="url(#26595fb95b)"><path fill="#4e4f4b" d="M 12.558594 11.105469 L 12.558594 32.207031 L 11.273438 32.207031 L 11.273438 11.105469 L 12.558594 11.105469 " fill-opacity="1" fill-rule="nonzero"/></g></svg>