<svg xmlns="http://www.w3.org/2000/svg" xmlns:xlink="http://www.w3.org/1999/xlink" width="50" zoomAndPan="magnify" viewBox="0 0 37.5 37.499999" height="50" preserveAspectRatio="xMidYMid meet" version="1.0"><defs><clipPath id="5b236d48be"><path d="M 2.585938 14.023438 L 34.703125 14.023438 L 34.703125 34.054688 L 2.585938 34.054688 Z M 2.585938 14.023438 " clip-rule="nonzero"/></clipPath><clipPath id="65b066fe86"><path d="M 1.394531 13 L 35.894531 13 L 35.894531 25 L 1.394531 25 Z M 1.394531 13 " clip-rule="nonzero"/></clipPath><clipPath id="89d4d9b4d3"><path d="M 1.394531 3.304688 L 35.894531 3.304688 L 35.894531 24 L 1.394531 24 Z M 1.394531 3.304688 " clip-rule="nonzero"/></clipPath></defs><g clip-path="url(#5b236d48be)"><path fill="#98682a" d="M 34.65625 14.054688 L 34.65625 24.796875 C 34.636719 25.113281 34.398438 25.441406 33.953125 25.695312 L 33.15625 26.15625 L 32.402344 26.59375 L 30.335938 27.789062 L 29.574219 28.226562 L 27.503906 29.421875 L 26.746094 29.867188 L 24.675781 31.058594 L 23.921875 31.492188 L 21.851562 32.691406 L 21.09375 33.132812 L 20.199219 33.644531 C 19.859375 33.84375 19.441406 33.976562 19.023438 34.023438 C 18.769531 34.0625 18.507812 34.0625 18.269531 34.035156 C 17.90625 34.007812 17.570312 33.921875 17.304688 33.769531 L 16.191406 33.125 L 15.4375 32.691406 L 13.371094 31.492188 L 12.609375 31.054688 L 10.539062 29.859375 L 9.785156 29.421875 L 7.71875 28.226562 L 6.957031 27.78125 L 4.886719 26.585938 L 4.128906 26.148438 L 3.132812 25.570312 C 2.777344 25.367188 2.605469 25.089844 2.632812 24.796875 L 2.632812 14.054688 L 34.65625 14.054688 " fill-opacity="1" fill-rule="nonzero"/></g><path fill="#c19658" d="M 34.65625 13.261719 L 34.65625 24.003906 C 34.636719 24.316406 34.398438 24.648438 33.953125 24.902344 L 33.15625 25.359375 L 32.402344 25.800781 L 30.335938 26.992188 L 29.574219 27.433594 L 27.503906 28.625 L 26.746094 29.074219 L 24.675781 30.265625 L 23.921875 30.699219 L 21.851562 31.898438 L 21.09375 32.335938 L 20.199219 32.851562 C 19.859375 33.050781 19.441406 33.179688 19.023438 33.230469 C 18.769531 33.269531 18.507812 33.269531 18.269531 33.242188 C 17.90625 33.214844 17.570312 33.125 17.304688 32.976562 L 16.191406 32.332031 L 15.4375 31.898438 L 13.371094 30.699219 L 12.609375 30.257812 L 10.539062 29.066406 L 9.785156 28.625 L 7.71875 27.433594 L 6.957031 26.988281 L 4.886719 25.792969 L 4.128906 25.355469 L 3.132812 24.777344 C 2.777344 24.570312 2.605469 24.296875 2.632812 24.003906 L 2.632812 13.261719 L 34.65625 13.261719 " fill-opacity="1" fill-rule="nonzero"/><path fill="#98682a" d="M 4.886719 12.917969 L 4.886719 25.792969 L 4.128906 25.355469 L 4.128906 12.917969 L 4.886719 12.917969 " fill-opacity="1" fill-rule="nonzero"/><path fill="#98682a" d="M 7.71875 12.917969 L 7.71875 27.433594 L 6.957031 26.988281 L 6.957031 12.917969 L 7.71875 12.917969 " fill-opacity="1" fill-rule="nonzero"/><path fill="#98682a" d="M 10.539062 12.917969 L 10.539062 29.066406 L 9.785156 28.625 L 9.785156 12.917969 L 10.539062 12.917969 " fill-opacity="1" fill-rule="nonzero"/><path fill="#98682a" d="M 13.371094 12.917969 L 13.371094 30.699219 L 12.609375 30.257812 L 12.609375 12.917969 L 13.371094 12.917969 " fill-opacity="1" fill-rule="nonzero"/><path fill="#98682a" d="M 16.191406 12.917969 L 16.191406 32.332031 L 15.4375 31.898438 L 15.4375 12.917969 L 16.191406 12.917969 " fill-opacity="1" fill-rule="nonzero"/><path fill="#98682a" d="M 19.023438 12.917969 L 19.023438 33.230469 C 18.769531 33.269531 18.507812 33.269531 18.269531 33.242188 L 18.269531 12.917969 L 19.023438 12.917969 " fill-opacity="1" fill-rule="nonzero"/><path fill="#98682a" d="M 21.851562 12.917969 L 21.851562 31.898438 L 21.09375 32.335938 L 21.09375 12.917969 L 21.851562 12.917969 " fill-opacity="1" fill-rule="nonzero"/><path fill="#98682a" d="M 24.675781 12.917969 L 24.675781 30.265625 L 23.921875 30.699219 L 23.921875 12.917969 L 24.675781 12.917969 " fill-opacity="1" fill-rule="nonzero"/><path fill="#98682a" d="M 27.503906 12.917969 L 27.503906 28.625 L 26.746094 29.074219 L 26.746094 12.917969 L 27.503906 12.917969 " fill-opacity="1" fill-rule="nonzero"/><path fill="#98682a" d="M 30.335938 12.917969 L 30.335938 26.992188 L 29.574219 27.433594 L 29.574219 12.917969 L 30.335938 12.917969 " fill-opacity="1" fill-rule="nonzero"/><path fill="#98682a" d="M 33.15625 12.917969 L 33.15625 25.359375 L 32.402344 25.800781 L 32.402344 12.917969 L 33.15625 12.917969 " fill-opacity="1" fill-rule="nonzero"/><g clip-path="url(#65b066fe86)"><path fill="#b4b2e0" d="M 35.605469 13.261719 L 35.605469 14.25 C 35.582031 14.585938 35.328125 14.925781 34.855469 15.203125 L 20.289062 23.617188 C 19.386719 24.148438 18.007812 24.203125 17.21875 23.75 L 2.214844 15.070312 C 1.839844 14.851562 1.660156 14.558594 1.6875 14.25 L 1.6875 13.261719 L 35.605469 13.261719 " fill-opacity="1" fill-rule="nonzero"/></g><g clip-path="url(#89d4d9b4d3)"><path fill="#deddf2" d="M 17.21875 22.757812 L 2.214844 14.085938 C 1.425781 13.628906 1.527344 12.835938 2.433594 12.308594 L 17 3.890625 C 17.90625 3.363281 19.285156 3.308594 20.070312 3.761719 L 35.074219 12.4375 C 35.863281 12.890625 35.765625 13.6875 34.855469 14.210938 L 20.292969 22.628906 C 19.382812 23.15625 18.007812 23.214844 17.21875 22.757812 " fill-opacity="1" fill-rule="nonzero"/></g><path fill="#8986bc" d="M 32.902344 14.214844 L 32.484375 14.453125 L 31.957031 14.761719 L 20.289062 21.507812 C 19.824219 21.773438 19.222656 21.925781 18.644531 21.9375 C 18.117188 21.945312 17.597656 21.847656 17.21875 21.628906 L 5.332031 14.753906 L 4.804688 14.453125 L 4.167969 14.082031 C 3.378906 13.628906 3.476562 12.835938 4.386719 12.308594 L 17 5.023438 C 17.46875 4.746094 18.070312 4.597656 18.644531 4.582031 C 19.179688 4.574219 19.695312 4.671875 20.070312 4.890625 L 33.125 12.4375 C 33.910156 12.890625 33.816406 13.6875 32.902344 14.214844 " fill-opacity="1" fill-rule="nonzero"/><path fill="#b4b2e0" d="M 32.902344 14.214844 L 20.289062 21.507812 C 19.824219 21.773438 19.222656 21.925781 18.644531 21.9375 L 18.644531 4.582031 C 19.179688 4.574219 19.695312 4.671875 20.070312 4.890625 L 33.125 12.4375 C 33.910156 12.890625 33.816406 13.6875 32.902344 14.214844 " fill-opacity="1" fill-rule="nonzero"/><path fill="#3a4851" d="M 27.503906 11.902344 L 24.800781 10.339844 C 24.65625 10.257812 24.539062 10.035156 24.539062 9.839844 L 24.539062 8.554688 C 24.539062 8.363281 24.65625 8.273438 24.800781 8.355469 L 27.503906 9.917969 C 27.648438 10.003906 27.765625 10.226562 27.765625 10.417969 L 27.765625 11.703125 C 27.765625 11.898438 27.648438 11.988281 27.503906 11.902344 " fill-opacity="1" fill-rule="nonzero"/><path fill="#556d7e" d="M 25.371094 10.414062 L 25.140625 10.28125 L 25.140625 8.8125 L 25.371094 8.945312 L 25.371094 10.414062 " fill-opacity="1" fill-rule="nonzero"/><path fill="#556d7e" d="M 25.820312 10.671875 L 25.589844 10.539062 L 25.589844 9.070312 L 25.820312 9.203125 L 25.820312 10.671875 " fill-opacity="1" fill-rule="nonzero"/><path fill="#556d7e" d="M 26.265625 10.929688 L 26.035156 10.796875 L 26.035156 9.328125 L 26.265625 9.464844 L 26.265625 10.929688 " fill-opacity="1" fill-rule="nonzero"/><path fill="#556d7e" d="M 26.714844 11.191406 L 26.484375 11.054688 L 26.484375 9.589844 L 26.714844 9.722656 L 26.714844 11.191406 " fill-opacity="1" fill-rule="nonzero"/><path fill="#556d7e" d="M 27.160156 11.449219 L 26.929688 11.316406 L 26.929688 9.847656 L 27.160156 9.980469 L 27.160156 11.449219 " fill-opacity="1" fill-rule="nonzero"/><path fill="#5c94d5" d="M 32.484375 14.453125 L 31.957031 14.761719 L 20.289062 21.507812 C 19.824219 21.773438 19.222656 21.925781 18.644531 21.9375 C 18.117188 21.945312 17.597656 21.847656 17.21875 21.628906 L 5.332031 14.753906 L 4.804688 14.453125 L 17 7.410156 C 17.46875 7.132812 18.070312 6.984375 18.644531 6.96875 C 19.179688 6.964844 19.695312 7.058594 20.070312 7.277344 L 32.484375 14.453125 " fill-opacity="1" fill-rule="nonzero"/><path fill="#90c3eb" d="M 17.21875 21.628906 L 5.332031 14.753906 L 17 8.019531 C 17.46875 7.746094 18.070312 7.59375 18.644531 7.582031 C 19.179688 7.574219 19.695312 7.667969 20.070312 7.890625 L 31.957031 14.761719 L 20.289062 21.507812 C 19.824219 21.773438 19.222656 21.925781 18.644531 21.9375 C 18.117188 21.945312 17.597656 21.847656 17.21875 21.628906 " fill-opacity="1" fill-rule="nonzero"/><path fill="#3a4851" d="M 23.179688 7.964844 C 23.179688 8.230469 22.992188 8.339844 22.761719 8.207031 C 22.53125 8.074219 22.34375 7.75 22.34375 7.484375 C 22.34375 7.214844 22.53125 7.109375 22.761719 7.242188 C 22.992188 7.375 23.179688 7.699219 23.179688 7.964844 " fill-opacity="1" fill-rule="nonzero"/><path fill="#deddf2" d="M 23.019531 7.871094 C 23.019531 8.035156 22.902344 8.101562 22.761719 8.019531 C 22.621094 7.9375 22.507812 7.738281 22.507812 7.578125 C 22.507812 7.414062 22.621094 7.347656 22.761719 7.429688 C 22.902344 7.511719 23.019531 7.707031 23.019531 7.871094 " fill-opacity="1" fill-rule="nonzero"/><path fill="#3a4851" d="M 29.957031 11.882812 C 29.957031 12.148438 29.769531 12.257812 29.539062 12.125 C 29.308594 11.992188 29.121094 11.667969 29.121094 11.398438 C 29.121094 11.132812 29.308594 11.023438 29.539062 11.160156 C 29.769531 11.292969 29.957031 11.617188 29.957031 11.882812 " fill-opacity="1" fill-rule="nonzero"/><path fill="#deddf2" d="M 29.792969 11.789062 C 29.792969 11.953125 29.679688 12.015625 29.539062 11.9375 C 29.398438 11.855469 29.285156 11.65625 29.285156 11.492188 C 29.285156 11.332031 29.398438 11.265625 29.539062 11.347656 C 29.679688 11.429688 29.792969 11.625 29.792969 11.789062 " fill-opacity="1" fill-rule="nonzero"/><path fill="#3a4851" d="M 14.113281 7.964844 C 14.113281 8.230469 14.296875 8.339844 14.527344 8.207031 C 14.757812 8.074219 14.945312 7.75 14.945312 7.484375 C 14.945312 7.214844 14.757812 7.109375 14.527344 7.242188 C 14.296875 7.375 14.113281 7.699219 14.113281 7.964844 " fill-opacity="1" fill-rule="nonzero"/><path fill="#deddf2" d="M 14.273438 7.871094 C 14.273438 8.035156 14.386719 8.101562 14.527344 8.019531 C 14.667969 7.9375 14.785156 7.738281 14.785156 7.578125 C 14.785156 7.414062 14.667969 7.347656 14.527344 7.429688 C 14.386719 7.511719 14.273438 7.707031 14.273438 7.871094 " fill-opacity="1" fill-rule="nonzero"/><path fill="#3a4851" d="M 7.335938 11.882812 C 7.335938 12.148438 7.523438 12.257812 7.753906 12.125 C 7.984375 11.992188 8.167969 11.667969 8.167969 11.398438 C 8.167969 11.132812 7.984375 11.023438 7.753906 11.160156 C 7.523438 11.292969 7.335938 11.617188 7.335938 11.882812 " fill-opacity="1" fill-rule="nonzero"/><path fill="#deddf2" d="M 7.496094 11.789062 C 7.496094 11.953125 7.613281 12.015625 7.753906 11.9375 C 7.894531 11.855469 8.007812 11.65625 8.007812 11.492188 C 8.007812 11.332031 7.894531 11.265625 7.753906 11.347656 C 7.613281 11.429688 7.496094 11.625 7.496094 11.789062 " fill-opacity="1" fill-rule="nonzero"/></svg>