<svg xmlns="http://www.w3.org/2000/svg" xmlns:xlink="http://www.w3.org/1999/xlink" width="50" zoomAndPan="magnify" viewBox="0 0 37.5 37.499999" height="50" preserveAspectRatio="xMidYMid meet" version="1.0"><defs><clipPath id="913819ed2e"><path d="M 3 21 L 35 21 L 35 27.671875 L 3 27.671875 Z M 3 21 " clip-rule="nonzero"/></clipPath><clipPath id="98ee1738f5"><path d="M 2 9.671875 L 35.6875 9.671875 L 35.6875 21 L 2 21 Z M 2 9.671875 " clip-rule="nonzero"/></clipPath><clipPath id="b11daa36aa"><path d="M 32 16 L 35.6875 16 L 35.6875 21 L 32 21 Z M 32 16 " clip-rule="nonzero"/></clipPath><clipPath id="dec2103bcb"><path d="M 4 20 L 11 20 L 11 27.734375 L 4 27.734375 Z M 4 20 " clip-rule="nonzero"/></clipPath><clipPath id="bb17e3d954"><path d="M 7 20 L 13 20 L 13 27.734375 L 7 27.734375 Z M 7 20 " clip-rule="nonzero"/></clipPath><clipPath id="4e8aa69bd5"><path d="M 7 20 L 13.648438 20 L 13.648438 27.734375 L 7 27.734375 Z M 7 20 " clip-rule="nonzero"/></clipPath><clipPath id="7c8de244ac"><path d="M 7 19 L 13.648438 19 L 13.648438 27.734375 L 7 27.734375 Z M 7 19 " clip-rule="nonzero"/></clipPath><clipPath id="ffeef0ee8c"><path d="M 1 19 L 8 19 L 8 27.734375 L 1 27.734375 Z M 1 19 " clip-rule="nonzero"/></clipPath><clipPath id="ce11a1429e"><path d="M 5 22 L 10 22 L 10 27.734375 L 5 27.734375 Z M 5 22 " clip-rule="nonzero"/></clipPath><clipPath id="47bb1c7fe6"><path d="M 1 22 L 6 22 L 6 27.734375 L 1 27.734375 Z M 1 22 " clip-rule="nonzero"/></clipPath><clipPath id="4efdc78bc2"><path d="M 3 21 L 6 21 L 6 27.734375 L 3 27.734375 Z M 3 21 " clip-rule="nonzero"/></clipPath><clipPath id="e9b967987b"><path d="M 6 19 L 13 19 L 13 27.734375 L 6 27.734375 Z M 6 19 " clip-rule="nonzero"/></clipPath><clipPath id="688bdf61a3"><path d="M 0 19 L 7 19 L 7 27.734375 L 0 27.734375 Z M 0 19 " clip-rule="nonzero"/></clipPath><clipPath id="90b0731b5c"><path d="M 0 21 L 5 21 L 5 27.734375 L 0 27.734375 Z M 0 21 " clip-rule="nonzero"/></clipPath><clipPath id="8bf70eb091"><path d="M 3 17.234375 L 7 17.234375 L 7 27.734375 L 3 27.734375 Z M 3 17.234375 " clip-rule="nonzero"/></clipPath><clipPath id="1aab208bfd"><path d="M 3 20 L 7 20 L 7 27.734375 L 3 27.734375 Z M 3 20 " clip-rule="nonzero"/></clipPath><clipPath id="142b94f7f2"><path d="M 7 22 L 11 22 L 11 27.734375 L 7 27.734375 Z M 7 22 " clip-rule="nonzero"/></clipPath><clipPath id="57479a7cf8"><path d="M 0 21 L 7 21 L 7 27.734375 L 0 27.734375 Z M 0 21 " clip-rule="nonzero"/></clipPath><clipPath id="09fad64978"><path d="M 6 23 L 8 23 L 8 27.734375 L 6 27.734375 Z M 6 23 " clip-rule="nonzero"/></clipPath><clipPath id="961b68d07a"><path d="M 2 23 L 5 23 L 5 27.734375 L 2 27.734375 Z M 2 23 " clip-rule="nonzero"/></clipPath><clipPath id="41e610ad1b"><path d="M 6 23 L 10 23 L 10 27.734375 L 6 27.734375 Z M 6 23 " clip-rule="nonzero"/></clipPath><clipPath id="fb274c603f"><path d="M 8 25 L 11 25 L 11 27.734375 L 8 27.734375 Z M 8 25 " clip-rule="nonzero"/></clipPath><clipPath id="c3ced3bdfd"><path d="M 7 20 L 11 20 L 11 27.734375 L 7 27.734375 Z M 7 20 " clip-rule="nonzero"/></clipPath><clipPath id="8f03ea3485"><path d="M 7 23 L 12 23 L 12 27.734375 L 7 27.734375 Z M 7 23 " clip-rule="nonzero"/></clipPath><clipPath id="324a8157a3"><path d="M 8 23 L 13 23 L 13 27.734375 L 8 27.734375 Z M 8 23 " clip-rule="nonzero"/></clipPath><clipPath id="88ef54888b"><path d="M 1 23 L 6 23 L 6 27.734375 L 1 27.734375 Z M 1 23 " clip-rule="nonzero"/></clipPath></defs><g clip-path="url(#913819ed2e)"><path fill="#924a36" d="M 6.011719 21.34375 L 6.011719 27.328125 C 6.011719 27.507812 5.863281 27.652344 5.683594 27.652344 L 3.710938 27.652344 C 3.53125 27.652344 3.382812 27.507812 3.382812 27.328125 L 3.382812 21.34375 C 3.382812 21.164062 3.53125 21.019531 3.710938 21.019531 L 5.683594 21.019531 C 5.863281 21.019531 6.011719 21.164062 6.011719 21.34375 Z M 19.863281 21.019531 L 17.894531 21.019531 C 17.714844 21.019531 17.566406 21.164062 17.566406 21.34375 L 17.566406 27.328125 C 17.566406 27.507812 17.714844 27.652344 17.894531 27.652344 L 19.863281 27.652344 C 20.046875 27.652344 20.195312 27.507812 20.195312 27.328125 L 20.195312 21.34375 C 20.195312 21.164062 20.046875 21.019531 19.863281 21.019531 Z M 34.574219 21.019531 L 32.601562 21.019531 C 32.421875 21.019531 32.273438 21.164062 32.273438 21.34375 L 32.273438 27.328125 C 32.273438 27.507812 32.421875 27.652344 32.601562 27.652344 L 34.574219 27.652344 C 34.753906 27.652344 34.902344 27.507812 34.902344 27.328125 L 34.902344 21.34375 C 34.902344 21.164062 34.753906 21.019531 34.574219 21.019531 Z M 34.574219 21.019531 " fill-opacity="1" fill-rule="nonzero"/></g><path fill="#924a36" d="M 6.457031 16.023438 L 4.488281 20.25 C 4.40625 20.425781 4.226562 20.53125 4.039062 20.53125 C 3.972656 20.53125 3.902344 20.515625 3.835938 20.488281 C 3.585938 20.375 3.480469 20.085938 3.59375 19.839844 L 5.5625 15.613281 C 5.675781 15.367188 5.96875 15.261719 6.21875 15.375 C 6.464844 15.488281 6.570312 15.777344 6.457031 16.023438 Z M 6.457031 16.023438 " fill-opacity="1" fill-rule="nonzero"/><path fill="#e07f54" d="M 34.574219 22.96875 L 3.710938 22.96875 C 3.53125 22.96875 3.382812 22.824219 3.382812 22.644531 L 3.382812 20.042969 C 3.382812 19.863281 3.53125 19.71875 3.710938 19.71875 L 34.574219 19.71875 C 34.753906 19.71875 34.902344 19.863281 34.902344 20.042969 L 34.902344 22.644531 C 34.902344 22.824219 34.753906 22.96875 34.574219 22.96875 Z M 34.574219 22.96875 " fill-opacity="1" fill-rule="nonzero"/><path fill="#d3754f" d="M 34.902344 20.042969 L 34.902344 22.644531 C 34.902344 22.824219 34.753906 22.96875 34.574219 22.96875 L 31.488281 22.96875 C 31.667969 22.96875 31.816406 22.824219 31.816406 22.644531 C 31.816406 22.066406 31.34375 21.597656 30.757812 21.597656 L 3.382812 21.597656 L 3.382812 20.042969 C 3.382812 19.863281 3.53125 19.71875 3.710938 19.71875 L 34.574219 19.71875 C 34.753906 19.71875 34.902344 19.863281 34.902344 20.042969 Z M 34.902344 20.042969 " fill-opacity="1" fill-rule="nonzero"/><g clip-path="url(#98ee1738f5)"><path fill="#a0d755" d="M 35.691406 17.769531 L 35.691406 18.9375 C 35.691406 19.65625 35.101562 20.238281 34.375 20.238281 L 10.605469 20.238281 C 10.578125 20.238281 10.554688 20.238281 10.527344 20.234375 C 10.164062 20.257812 9.789062 20.132812 9.511719 19.859375 L 2.457031 12.871094 C 1.941406 12.363281 1.941406 11.539062 2.457031 11.03125 L 3.292969 10.203125 C 3.804688 9.695312 4.636719 9.695312 5.148438 10.203125 L 11.476562 16.46875 L 34.375 16.46875 C 35.101562 16.46875 35.691406 17.050781 35.691406 17.769531 Z M 35.691406 17.769531 " fill-opacity="1" fill-rule="nonzero"/></g><g clip-path="url(#b11daa36aa)"><path fill="#94c449" d="M 35.691406 17.769531 L 35.691406 18.9375 C 35.691406 19.65625 35.101562 20.238281 34.375 20.238281 L 32.273438 20.238281 C 33 20.238281 33.589844 19.65625 33.589844 18.9375 L 33.589844 17.769531 C 33.589844 17.050781 33 16.46875 32.273438 16.46875 L 34.375 16.46875 C 35.101562 16.46875 35.691406 17.050781 35.691406 17.769531 Z M 35.691406 17.769531 " fill-opacity="1" fill-rule="nonzero"/></g><path fill="#8cb23b" d="M 11.910156 16.46875 C 11.886719 16.59375 11.707031 18.183594 11.707031 18.183594 C 11.707031 18.453125 11.488281 18.671875 11.214844 18.671875 C 10.945312 18.671875 10.722656 18.453125 10.722656 18.183594 L 10.722656 16.863281 L 9.902344 16.863281 C 9.628906 16.863281 9.410156 16.644531 9.410156 16.375 C 9.410156 16.109375 9.628906 15.890625 9.902344 15.890625 L 10.867188 15.890625 C 10.871094 15.886719 10.875 15.882812 10.878906 15.878906 L 11.476562 16.46875 Z M 11.910156 16.46875 " fill-opacity="1" fill-rule="nonzero"/><g clip-path="url(#dec2103bcb)"><path fill="#3f8333" d="M 5.417969 27.734375 L 4.882812 27.734375 C 4.882812 27.734375 6.238281 22.664062 10.140625 20.871094 C 10.140625 20.871094 6.941406 22.804688 5.417969 27.734375 " fill-opacity="1" fill-rule="nonzero"/></g><g clip-path="url(#bb17e3d954)"><path fill="#3f8333" d="M 7.957031 27.734375 L 7.070312 27.734375 C 7.070312 27.734375 8.300781 22.953125 12.808594 20.941406 C 12.808594 20.941406 8.648438 23.308594 7.957031 27.734375 " fill-opacity="1" fill-rule="nonzero"/></g><g clip-path="url(#4e8aa69bd5)"><path fill="#3f8333" d="M 8.785156 27.734375 L 7.894531 27.734375 C 7.894531 27.734375 9.128906 22.949219 13.632812 20.941406 C 13.632812 20.941406 9.472656 23.304688 8.785156 27.734375 " fill-opacity="1" fill-rule="nonzero"/></g><g clip-path="url(#7c8de244ac)"><path fill="#3f8333" d="M 8.738281 27.699219 L 7.847656 27.699219 C 7.847656 27.699219 9.082031 21.832031 13.585938 19.367188 C 13.585938 19.367188 9.425781 22.269531 8.738281 27.699219 " fill-opacity="1" fill-rule="nonzero"/></g><g clip-path="url(#ffeef0ee8c)"><path fill="#3f8333" d="M 6.699219 27.734375 L 7.589844 27.734375 C 7.589844 27.734375 6.355469 21.867188 1.851562 19.402344 C 1.851562 19.402344 6.011719 22.304688 6.699219 27.734375 " fill-opacity="1" fill-rule="nonzero"/></g><g clip-path="url(#ce11a1429e)"><path fill="#3f8333" d="M 6.027344 27.734375 L 5.582031 27.734375 C 5.582031 27.734375 6.707031 23.539062 9.9375 22.054688 C 9.9375 22.054688 7.289062 23.65625 6.027344 27.734375 " fill-opacity="1" fill-rule="nonzero"/></g><g clip-path="url(#47bb1c7fe6)"><path fill="#3f8333" d="M 5.363281 27.734375 L 5.808594 27.734375 C 5.808594 27.734375 4.683594 23.539062 1.453125 22.054688 C 1.453125 22.054688 4.105469 23.65625 5.363281 27.734375 " fill-opacity="1" fill-rule="nonzero"/></g><g clip-path="url(#4efdc78bc2)"><path fill="#3f8333" d="M 5.332031 27.726562 L 5.746094 27.726562 C 5.757812 26.503906 5.546875 23.804688 3.691406 21.941406 C 3.691406 21.941406 5.425781 24.105469 5.332031 27.726562 " fill-opacity="1" fill-rule="nonzero"/></g><g clip-path="url(#e9b967987b)"><path fill="#40b93c" d="M 7.273438 27.734375 L 6.296875 27.734375 C 6.296875 27.734375 7.652344 22.027344 12.601562 19.628906 C 12.601562 19.628906 8.03125 22.449219 7.273438 27.734375 " fill-opacity="1" fill-rule="nonzero"/></g><g clip-path="url(#688bdf61a3)"><path fill="#40b93c" d="M 5.175781 27.734375 L 6.152344 27.734375 C 6.152344 27.734375 4.800781 22.027344 -0.148438 19.628906 C -0.148438 19.628906 4.421875 22.449219 5.175781 27.734375 " fill-opacity="1" fill-rule="nonzero"/></g><g clip-path="url(#90b0731b5c)"><path fill="#40b93c" d="M 3.996094 27.734375 L 4.972656 27.734375 C 4.972656 27.734375 3.617188 23.449219 -1.332031 21.648438 C -1.332031 21.648438 3.238281 23.765625 3.996094 27.734375 " fill-opacity="1" fill-rule="nonzero"/></g><g clip-path="url(#8bf70eb091)"><path fill="#40b93c" d="M 6.058594 27.734375 L 6.628906 27.734375 C 6.628906 27.734375 6.519531 20.613281 3.472656 17.234375 C 3.472656 17.234375 5.949219 20.714844 6.058594 27.734375 " fill-opacity="1" fill-rule="nonzero"/></g><g clip-path="url(#1aab208bfd)"><path fill="#80cc28" d="M 6.410156 27.734375 L 6.976562 27.734375 C 6.976562 27.734375 6.1875 22.902344 3.308594 20.871094 C 3.308594 20.871094 5.96875 23.261719 6.410156 27.734375 " fill-opacity="1" fill-rule="nonzero"/></g><g clip-path="url(#142b94f7f2)"><path fill="#40b93c" d="M 7.898438 27.734375 L 7.421875 27.734375 C 7.421875 27.734375 8.085938 23.839844 10.503906 22.199219 C 10.503906 22.199219 8.269531 24.128906 7.898438 27.734375 " fill-opacity="1" fill-rule="nonzero"/></g><g clip-path="url(#57479a7cf8)"><path fill="#80cc28" d="M 6.449219 27.734375 C 6.046875 26.871094 3.9375 22.613281 0.585938 21.296875 C 0.585938 21.296875 4.027344 23.136719 5.777344 27.734375 L 6.449219 27.734375 " fill-opacity="1" fill-rule="nonzero"/></g><g clip-path="url(#09fad64978)"><path fill="#80cc28" d="M 6.949219 27.734375 L 7.300781 27.734375 C 7.351562 27.027344 7.433594 24.53125 6.214844 23.03125 C 6.214844 23.03125 7.417969 24.929688 6.949219 27.734375 " fill-opacity="1" fill-rule="nonzero"/></g><g clip-path="url(#961b68d07a)"><path fill="#80cc28" d="M 4.308594 27.734375 C 4.183594 26.824219 3.761719 24.679688 2.429688 23.535156 C 2.429688 23.535156 3.847656 25.078125 3.980469 27.734375 L 4.308594 27.734375 " fill-opacity="1" fill-rule="nonzero"/></g><g clip-path="url(#41e610ad1b)"><path fill="#80cc28" d="M 9.222656 27.734375 L 9.792969 27.734375 C 9.792969 27.734375 9.003906 24.664062 6.121094 23.375 C 6.121094 23.375 8.785156 24.894531 9.222656 27.734375 " fill-opacity="1" fill-rule="nonzero"/></g><g clip-path="url(#fb274c603f)"><path fill="#80cc28" d="M 9.765625 27.734375 L 10.117188 27.734375 C 10.121094 27.125 9.792969 25.964844 8.875 25.160156 C 9.617188 26.320312 9.792969 26.972656 9.765625 27.734375 " fill-opacity="1" fill-rule="nonzero"/></g><g clip-path="url(#c3ced3bdfd)"><path fill="#80cc28" d="M 7.742188 27.734375 L 7.175781 27.734375 C 7.175781 27.734375 7.964844 22.902344 10.847656 20.871094 C 10.847656 20.871094 8.183594 23.261719 7.742188 27.734375 " fill-opacity="1" fill-rule="nonzero"/></g><g clip-path="url(#8f03ea3485)"><path fill="#80cc28" d="M 8.230469 27.734375 L 7.660156 27.734375 C 7.660156 27.734375 8.449219 24.675781 11.332031 23.390625 C 11.332031 23.390625 8.671875 24.902344 8.230469 27.734375 " fill-opacity="1" fill-rule="nonzero"/></g><g clip-path="url(#324a8157a3)"><path fill="#80cc28" d="M 9.054688 27.734375 L 8.488281 27.734375 C 8.488281 27.734375 9.277344 24.675781 12.160156 23.390625 C 12.160156 23.390625 9.496094 24.902344 9.054688 27.734375 " fill-opacity="1" fill-rule="nonzero"/></g><g clip-path="url(#88ef54888b)"><path fill="#80cc28" d="M 4.898438 27.734375 L 5.46875 27.734375 C 5.46875 27.734375 4.675781 24.675781 1.796875 23.390625 C 1.796875 23.390625 4.457031 24.902344 4.898438 27.734375 " fill-opacity="1" fill-rule="nonzero"/></g></svg>