<svg xmlns="http://www.w3.org/2000/svg" xmlns:xlink="http://www.w3.org/1999/xlink" width="50" zoomAndPan="magnify" viewBox="0 0 37.5 37.499999" height="50" preserveAspectRatio="xMidYMid meet" version="1.0"><defs><clipPath id="aa51ca8373"><path d="M 2.886719 10 L 35.015625 10 L 35.015625 30.058594 L 2.886719 30.058594 Z M 2.886719 10 " clip-rule="nonzero"/></clipPath><clipPath id="bb469e14bc"><path d="M 2.800781 13 L 12 13 L 12 21 L 2.800781 21 Z M 2.800781 13 " clip-rule="nonzero"/></clipPath></defs><path fill="#d2ab4d" d="M 12.9375 22.660156 C 12.773438 22.902344 8.160156 27.808594 8.160156 27.808594 C 8.160156 27.808594 5.445312 27.324219 4.867188 29.339844 C 4.867188 29.339844 7.335938 30.226562 8.738281 29.742188 C 8.738281 29.742188 13.351562 28.28125 15.488281 26.277344 C 15.488281 26.277344 21.828125 27.816406 26.855469 25.558594 L 26.855469 27.40625 C 26.855469 27.40625 25.046875 27.488281 24.964844 28.855469 C 24.964844 28.855469 29.414062 29.984375 29.414062 27.246094 L 30.339844 23.996094 L 32.046875 20.734375 L 28.917969 18.160156 L 12.9375 22.660156 " fill-opacity="1" fill-rule="nonzero"/><path fill="#95471d" d="M 24.316406 18.847656 C 23.84375 18.777344 23.390625 18.707031 22.980469 18.699219 C 23.390625 18.707031 23.84375 18.777344 24.316406 18.847656 " fill-opacity="1" fill-rule="nonzero"/><path fill="#95471d" d="M 28.332031 17.644531 C 27.378906 19.265625 25.765625 19.0625 24.316406 18.847656 C 23.84375 18.777344 23.390625 18.707031 22.980469 18.699219 C 22.972656 18.699219 22.964844 18.699219 22.957031 18.699219 C 22.941406 18.699219 22.921875 18.699219 22.90625 18.699219 C 22.761719 18.699219 22.621094 18.707031 22.488281 18.726562 C 20.847656 18.96875 21.421875 21.054688 17.058594 21.296875 C 17 21.300781 16.941406 21.300781 16.886719 21.300781 C 15.644531 21.3125 14.851562 20.664062 14.355469 19.746094 C 13.71875 20.265625 12.84375 20.628906 11.640625 20.734375 C 11.640625 20.734375 10.851562 20.96875 9.777344 21.140625 C 8.15625 21.394531 5.886719 21.503906 4.667969 20.429688 C 4.699219 20.402344 4.722656 20.390625 4.722656 20.390625 C 5.65625 21.378906 7.726562 21.074219 7.726562 21.074219 C 10.890625 20.847656 9.5625 17.113281 9.5625 17.113281 C 9.175781 16.328125 8.855469 15.460938 8.859375 15.355469 C 9.265625 12.789062 10.9375 11.3125 12.265625 10.527344 C 13.152344 10.667969 14.113281 11.066406 15.113281 11.882812 C 15.113281 11.882812 16.199219 14.773438 15.734375 17.253906 C 16.988281 17.746094 18.757812 17.875 21.25 17.195312 L 28.417969 13.496094 C 28.417969 13.496094 28.664062 13.457031 29.070312 13.457031 C 29.34375 14.597656 29.21875 16.148438 28.332031 17.644531 Z M 7.769531 14.484375 C 7.769531 14.484375 8.339844 12.078125 10.269531 10.621094 C 8.585938 11.050781 7.492188 12.191406 7.492188 12.191406 C 6.792969 13.335938 5.5 15.394531 5.5 15.394531 C 5.328125 15.496094 5.160156 15.589844 5.011719 15.683594 C 5.621094 15.636719 7.019531 15.429688 7.769531 14.484375 Z M 32.570312 10.011719 C 32.996094 9.097656 33.261719 8.125 33.203125 7.136719 C 33.203125 7.136719 34.027344 6.976562 33.863281 8.425781 C 33.855469 8.425781 33.972656 9.070312 33.664062 10.285156 L 32.570312 10.011719 " fill-opacity="1" fill-rule="nonzero"/><g clip-path="url(#aa51ca8373)"><path fill="#eadaa0" d="M 12.273438 10.535156 C 11.542969 10.414062 10.867188 10.472656 10.269531 10.628906 C 8.339844 12.085938 7.769531 14.488281 7.769531 14.488281 C 7.019531 15.4375 5.621094 15.644531 5.015625 15.691406 C 4.832031 15.703125 4.722656 15.703125 4.722656 15.703125 C 4.722656 15.703125 2.886719 15.964844 2.886719 18.867188 C 2.886719 21.457031 4.351562 20.632812 4.667969 20.429688 C 4.699219 20.402344 4.722656 20.390625 4.722656 20.390625 C 5.65625 21.378906 7.726562 21.074219 7.726562 21.074219 C 10.890625 20.847656 9.5625 17.113281 9.5625 17.113281 C 9.175781 16.328125 8.855469 15.460938 8.859375 15.355469 C 9.265625 12.789062 10.9375 11.3125 12.273438 10.535156 Z M 35.003906 22.746094 C 35.003906 22.746094 35.003906 27.089844 33.113281 29.097656 C 33.113281 29.097656 30.148438 30.066406 29.902344 28.535156 C 29.902344 28.535156 29.324219 27.808594 30.972656 27.40625 L 31.714844 24.835938 C 31.714844 24.835938 29.742188 24.191406 29.414062 22.34375 C 29.414062 22.34375 27.679688 24.835938 21.835938 25.320312 C 21.835938 25.320312 22.25 26.921875 19.699219 27.96875 L 15.578125 30.058594 L 11.378906 30.058594 C 11.378906 30.058594 11.296875 28.285156 14.339844 28.367188 L 17.058594 25.875 C 17.058594 25.875 13.339844 26.429688 9.777344 21.140625 C 10.851562 20.96875 11.640625 20.734375 11.640625 20.734375 C 12.84375 20.628906 13.71875 20.265625 14.355469 19.746094 C 14.851562 20.664062 15.644531 21.3125 16.886719 21.300781 C 16.945312 21.300781 17.007812 21.300781 17.070312 21.296875 C 21.429688 21.054688 20.851562 18.96875 22.503906 18.726562 C 22.628906 18.707031 22.765625 18.699219 22.90625 18.699219 C 22.921875 18.699219 22.941406 18.699219 22.957031 18.699219 C 22.964844 18.699219 22.972656 18.699219 22.980469 18.699219 C 23.390625 18.707031 23.84375 18.777344 24.316406 18.847656 C 25.769531 19.0625 27.386719 19.273438 28.347656 17.644531 C 29.226562 16.140625 29.359375 14.597656 29.082031 13.457031 C 29.335938 13.457031 29.652344 13.476562 30.011719 13.535156 C 30.828125 12.695312 31.902344 11.441406 32.570312 10.019531 L 33.664062 10.292969 C 33.414062 11.253906 32.898438 12.570312 31.847656 14.207031 C 33.53125 15.214844 35.175781 17.53125 35.003906 22.746094 " fill-opacity="1" fill-rule="nonzero"/></g><g clip-path="url(#bb469e14bc)"><path fill="#12100f" d="M 11.308594 15.101562 C 11.308594 15.101562 11.273438 12.085938 9.226562 15.101562 C 9.226562 15.101562 10.75 13.476562 11.308594 15.101562 Z M 7.445312 14.644531 C 7.445312 14.644531 7.425781 12.648438 6.070312 14.644531 C 6.070312 14.644531 7.082031 13.570312 7.445312 14.644531 Z M 7.339844 20.042969 C 7.339844 20.042969 7.019531 20.585938 5.9375 20.632812 C 5.9375 20.632812 5.210938 20.664062 4.679688 20.457031 C 4.671875 20.457031 4.667969 20.457031 4.660156 20.457031 C 4.640625 20.457031 4.617188 20.449219 4.597656 20.4375 C 4.5625 20.417969 4.527344 20.390625 4.496094 20.363281 C 3.980469 19.921875 3.984375 18.960938 4.046875 18.410156 C 3.113281 18.625 2.898438 17.710938 2.898438 17.710938 C 2.835938 16.757812 3.3125 16.683594 3.3125 16.683594 C 6.027344 16.683594 5.753906 17.90625 5.753906 17.90625 C 5.5 18.921875 4.328125 18.324219 4.328125 18.324219 C 4.316406 18.328125 4.308594 18.328125 4.296875 18.335938 C 4.234375 18.8125 4.214844 19.832031 4.671875 20.203125 C 4.695312 20.214844 4.714844 20.234375 4.734375 20.242188 C 4.742188 20.242188 4.742188 20.25 4.742188 20.25 C 4.878906 20.332031 5.222656 20.484375 5.925781 20.449219 C 5.925781 20.449219 6.714844 20.410156 7.195312 19.878906 C 7.195312 19.878906 7.285156 19.792969 7.355469 19.878906 C 7.339844 19.886719 7.410156 19.96875 7.339844 20.042969 " fill-opacity="1" fill-rule="nonzero"/></g><path fill="#5f2c17" d="M 4.644531 20.386719 C 4.410156 20.535156 3.539062 21.027344 3.109375 20.210938 C 3.085938 22.074219 3.800781 23.097656 3.800781 23.097656 C 4.335938 24.371094 6.398438 23.769531 6.398438 23.769531 C 7.695312 23.414062 8.027344 22.25 8.066406 21.261719 C 6.796875 21.300781 5.476562 21.117188 4.644531 20.386719 Z M 5.0625 15.644531 C 5.667969 15.597656 7.0625 15.390625 7.8125 14.445312 C 7.8125 14.445312 8.179688 12.902344 9.320312 11.539062 C 9.320312 11.539062 9.316406 11.535156 9.316406 11.535156 C 8.179688 12.898438 7.8125 14.4375 7.8125 14.4375 C 7.0625 15.382812 5.667969 15.59375 5.054688 15.640625 C 5.207031 15.546875 5.371094 15.453125 5.542969 15.351562 C 5.542969 15.351562 6.835938 13.289062 7.539062 12.148438 C 7.539062 12.148438 8.019531 11.644531 8.835938 11.183594 C 8.292969 11.019531 7.726562 11.433594 7.726562 11.433594 L 5.347656 14.292969 C 5 14.800781 4.707031 15.289062 4.453125 15.757812 C 4.640625 15.679688 4.769531 15.660156 4.769531 15.660156 C 4.769531 15.660156 4.878906 15.660156 5.0625 15.644531 Z M 17.261719 14.703125 C 20.46875 20.558594 17.847656 23.605469 17.847656 23.605469 C 17.179688 24.828125 15.195312 24.023438 15.195312 24.023438 C 12.890625 23.144531 14.101562 19.839844 14.101562 19.839844 C 14.882812 17.832031 12.847656 12.46875 13.550781 11.628906 C 14.25 10.789062 15.195312 11.628906 15.195312 11.628906 L 17.261719 14.703125 " fill-opacity="1" fill-rule="nonzero"/></svg>