<svg xmlns="http://www.w3.org/2000/svg" xmlns:xlink="http://www.w3.org/1999/xlink" width="50" zoomAndPan="magnify" viewBox="0 0 37.5 37.499999" height="50" preserveAspectRatio="xMidYMid meet" version="1.0"><defs><clipPath id="50b8821b92"><path d="M 1.039062 12.601562 L 36.199219 12.601562 L 36.199219 23.332031 L 1.039062 23.332031 Z M 1.039062 12.601562 " clip-rule="nonzero"/></clipPath><clipPath id="370991bc87"><path d="M 5 19 L 11 19 L 11 24.601562 L 5 24.601562 Z M 5 19 " clip-rule="nonzero"/></clipPath><clipPath id="4b2186760f"><path d="M 26 19 L 32 19 L 32 24.601562 L 26 24.601562 Z M 26 19 " clip-rule="nonzero"/></clipPath></defs><g clip-path="url(#50b8821b92)"><path fill="#545454" d="M 24.414062 16.707031 L 17.265625 16.707031 C 17.15625 16.707031 17.066406 16.617188 17.066406 16.507812 L 17.066406 13.707031 C 17.066406 13.597656 17.160156 13.507812 17.273438 13.511719 C 19.085938 13.570312 20.890625 13.90625 22.421875 14.921875 C 23.167969 15.410156 23.777344 16.054688 24.441406 16.640625 C 24.46875 16.664062 24.453125 16.707031 24.414062 16.707031 Z M 16.019531 16.507812 C 16.019531 16.617188 15.929688 16.707031 15.816406 16.707031 C 14.972656 16.707031 14.242188 16.707031 13.378906 16.707031 C 12.6875 16.707031 12 16.703125 11.308594 16.65625 C 10.667969 16.613281 9.96875 16.578125 9.386719 16.28125 C 9.125 16.148438 8.878906 15.871094 9.109375 15.597656 C 9.109375 15.597656 9.113281 15.59375 9.117188 15.589844 C 10.847656 13.757812 13.425781 13.582031 15.8125 13.515625 C 15.925781 13.511719 16.019531 13.601562 16.019531 13.710938 Z M 36.1875 20.316406 C 36.179688 20.210938 36.089844 20.128906 35.984375 20.125 C 35.890625 20.125 35.8125 20.054688 35.8125 19.964844 L 35.8125 19.800781 C 35.8125 19.136719 35.609375 18.851562 35.5625 18.796875 C 35.554688 18.789062 35.550781 18.777344 35.542969 18.769531 C 34.632812 17.488281 27.335938 16.367188 26.3125 16.214844 C 26.230469 16.203125 26.15625 16.175781 26.085938 16.132812 C 25.097656 15.523438 24.140625 14.746094 23.175781 14.101562 C 22.289062 13.511719 21.113281 13.074219 20.054688 12.890625 C 18.464844 12.621094 16.84375 12.578125 15.234375 12.613281 C 13.644531 12.652344 12.046875 12.664062 10.492188 13.015625 C 9.027344 13.347656 7.714844 14.125 6.367188 14.765625 C 5.976562 14.953125 5.585938 15.148438 5.199219 15.347656 C 4.925781 15.488281 4.652344 15.632812 4.382812 15.785156 C 4.3125 15.824219 4.230469 15.84375 4.148438 15.84375 L 2.765625 15.84375 C 1.226562 15.84375 1.367188 18.660156 1.441406 19.503906 C 1.453125 19.652344 1.398438 19.796875 1.285156 19.902344 C 1.113281 20.058594 1.023438 20.285156 1.042969 20.515625 C 1.289062 23.496094 4.449219 23.328125 4.867188 23.292969 C 4.714844 22.914062 4.636719 22.515625 4.636719 22.105469 C 4.636719 21.664062 4.726562 21.238281 4.898438 20.835938 C 5.066406 20.449219 5.304688 20.101562 5.609375 19.800781 C 5.914062 19.503906 6.265625 19.269531 6.660156 19.105469 C 7.070312 18.933594 7.503906 18.847656 7.949219 18.847656 C 8.398438 18.847656 8.832031 18.933594 9.238281 19.105469 C 9.632812 19.269531 9.988281 19.503906 10.292969 19.800781 C 10.597656 20.101562 10.835938 20.449219 11.003906 20.835938 C 11.175781 21.238281 11.261719 21.664062 11.261719 22.105469 C 11.261719 22.515625 11.1875 22.914062 11.035156 23.292969 L 26.109375 23.304688 C 25.953125 22.921875 25.875 22.519531 25.875 22.105469 C 25.875 21.664062 25.964844 21.238281 26.136719 20.835938 C 26.304688 20.449219 26.542969 20.101562 26.847656 19.800781 C 27.152344 19.503906 27.503906 19.269531 27.898438 19.105469 C 28.308594 18.933594 28.742188 18.847656 29.1875 18.847656 C 29.636719 18.847656 30.070312 18.933594 30.480469 19.105469 C 30.875 19.269531 31.226562 19.503906 31.53125 19.800781 C 31.835938 20.101562 32.074219 20.449219 32.242188 20.835938 C 32.414062 21.238281 32.5 21.664062 32.5 22.105469 C 32.5 22.519531 32.421875 22.925781 32.269531 23.308594 L 33.851562 23.308594 C 34.851562 23.308594 35.304688 22.871094 35.390625 22.777344 C 35.40625 22.761719 35.421875 22.746094 35.4375 22.730469 C 36.21875 21.929688 36.222656 20.765625 36.1875 20.316406 " fill-opacity="1" fill-rule="nonzero"/></g><g clip-path="url(#370991bc87)"><path fill="#545454" d="M 7.949219 19.605469 C 6.546875 19.605469 5.410156 20.726562 5.410156 22.105469 C 5.410156 23.480469 6.550781 24.601562 7.949219 24.601562 C 9.355469 24.601562 10.492188 23.484375 10.492188 22.105469 C 10.492188 20.726562 9.351562 19.605469 7.949219 19.605469 " fill-opacity="1" fill-rule="nonzero"/></g><g clip-path="url(#4b2186760f)"><path fill="#545454" d="M 29.1875 19.605469 C 27.785156 19.605469 26.648438 20.726562 26.648438 22.105469 C 26.648438 23.480469 27.789062 24.601562 29.1875 24.601562 C 30.59375 24.601562 31.730469 23.484375 31.730469 22.105469 C 31.730469 20.726562 30.589844 19.605469 29.1875 19.605469 " fill-opacity="1" fill-rule="nonzero"/></g></svg>