<svg xmlns="http://www.w3.org/2000/svg" xmlns:xlink="http://www.w3.org/1999/xlink" width="50" zoomAndPan="magnify" viewBox="0 0 37.5 37.499999" height="50" preserveAspectRatio="xMidYMid meet" version="1.0"><defs><clipPath id="eb3616f94a"><path d="M 1.589844 6.082031 L 36.089844 6.082031 L 36.089844 31.582031 L 1.589844 31.582031 Z M 1.589844 6.082031 " clip-rule="nonzero"/></clipPath><clipPath id="34f56f72b8"><path d="M 16 6.082031 L 20 6.082031 L 20 9 L 16 9 Z M 16 6.082031 " clip-rule="nonzero"/></clipPath><clipPath id="07202512fa"><path d="M 17 6.082031 L 21 6.082031 L 21 13 L 17 13 Z M 17 6.082031 " clip-rule="nonzero"/></clipPath><clipPath id="65ca88a76e"><path d="M 1.589844 9 L 36 9 L 36 31.582031 L 1.589844 31.582031 Z M 1.589844 9 " clip-rule="nonzero"/></clipPath></defs><g clip-path="url(#eb3616f94a)"><path fill="#000000" d="M 36.0625 28.183594 C 36.046875 28.128906 36.003906 28.035156 35.9375 27.890625 C 35.703125 27.390625 35.222656 26.351562 34.898438 24.75 C 34.523438 22.894531 34.351562 21.011719 34.367188 18.988281 C 34.378906 17.089844 34.6875 14.933594 34.78125 14.316406 C 34.78125 14.3125 34.78125 14.304688 34.78125 14.300781 C 34.820312 14.242188 34.859375 14.164062 34.898438 14.066406 C 35.082031 13.570312 35.242188 12.777344 35.292969 12.371094 C 35.335938 12.066406 35.234375 11.621094 34.527344 11.234375 C 33.882812 10.878906 32.59375 10.65625 31.882812 10.59375 C 30.6875 10.488281 29.1875 10.621094 29.125 10.625 C 28.746094 10.660156 28.453125 10.824219 28.328125 11.082031 C 28.15625 11.421875 27.949219 12.425781 27.929688 12.699219 C 27.917969 12.855469 27.960938 13.105469 28.132812 13.292969 C 28.257812 13.4375 28.4375 13.519531 28.648438 13.527344 C 28.726562 13.53125 28.820312 13.535156 28.929688 13.542969 C 28.8125 14.433594 28.738281 15.394531 28.726562 16.113281 C 28.710938 16.867188 28.710938 18.375 28.710938 18.683594 C 28.34375 18.605469 27.980469 18.59375 27.605469 18.648438 C 27.1875 18.710938 25.6875 19.007812 24.367188 19.269531 C 23.40625 19.460938 22.574219 19.628906 22.351562 19.664062 C 21.960938 19.722656 21.714844 19.761719 21.601562 19.871094 C 21.59375 19.871094 21.585938 19.871094 21.578125 19.875 C 21.5625 19.882812 21.554688 19.902344 21.5625 19.921875 C 21.546875 19.949219 21.535156 19.976562 21.53125 20.011719 C 21.5 20.246094 21.617188 20.316406 21.875 20.382812 C 21.90625 20.390625 21.984375 20.410156 22.101562 20.445312 C 21.90625 20.625 21.738281 21.058594 21.710938 21.457031 C 21.683594 21.917969 21.351562 29.003906 21.363281 29.222656 C 21.371094 29.332031 21.492188 29.40625 21.675781 29.40625 C 21.675781 29.40625 21.679688 29.40625 21.683594 29.40625 C 21.84375 29.40625 22.019531 29.347656 22.03125 29.234375 C 22.039062 29.136719 22.128906 26.699219 22.207031 24.550781 C 22.261719 23.050781 22.308594 21.753906 22.320312 21.488281 C 22.347656 20.867188 22.730469 20.644531 22.734375 20.644531 C 22.742188 20.640625 22.746094 20.632812 22.75 20.621094 C 24.132812 21.003906 26.796875 21.738281 27.285156 21.8125 C 27.554688 21.855469 27.824219 21.875 28.089844 21.875 C 28.230469 21.875 28.367188 21.867188 28.5 21.859375 C 28.273438 22.082031 28.183594 22.613281 28.183594 22.945312 C 28.183594 23.128906 28.148438 24.613281 28.109375 26.332031 C 28.058594 28.648438 27.996094 31.273438 28.003906 31.386719 C 28.011719 31.507812 28.175781 31.570312 28.335938 31.570312 C 28.339844 31.570312 28.34375 31.570312 28.347656 31.570312 C 28.535156 31.566406 28.660156 31.484375 28.664062 31.359375 C 28.664062 31.320312 28.667969 31.074219 28.675781 30.679688 C 28.722656 28.734375 28.835938 23.566406 28.871094 23.050781 C 28.890625 22.738281 28.9375 22.566406 29.027344 22.425781 C 29.0625 22.738281 29.160156 23.511719 29.390625 24.578125 C 29.539062 25.269531 29.96875 26.660156 30.078125 26.796875 C 30.117188 26.851562 30.203125 26.871094 30.296875 26.871094 C 30.363281 26.871094 30.429688 26.863281 30.492188 26.847656 C 30.570312 26.828125 30.667969 26.792969 30.679688 26.742188 C 30.683594 26.707031 30.65625 26.609375 30.527344 26.203125 C 30.390625 25.777344 30.1875 25.136719 30.054688 24.574219 C 29.777344 23.402344 29.617188 22.339844 29.574219 21.914062 C 30.339844 21.519531 33.339844 20.644531 33.730469 20.535156 C 33.753906 20.882812 33.90625 23.242188 34.269531 24.867188 C 34.664062 26.632812 35.386719 28.246094 35.570312 28.386719 C 35.683594 28.472656 35.875 28.480469 35.984375 28.40625 C 36.058594 28.355469 36.085938 28.273438 36.0625 28.183594 Z M 33.660156 19.875 L 33.546875 19.898438 C 33.480469 19.851562 33.355469 19.804688 33.09375 19.746094 C 32.644531 19.644531 30.4375 19.105469 29.371094 18.84375 C 29.375 18.640625 29.402344 17.460938 29.402344 16.65625 C 29.402344 15.796875 29.546875 14.101562 29.609375 13.613281 C 30.160156 13.675781 30.792969 13.761719 31.261719 13.839844 C 31.882812 13.9375 33.183594 14.230469 33.808594 14.371094 C 33.9375 14.398438 34.035156 14.421875 34.097656 14.433594 C 33.996094 15.023438 33.796875 16.300781 33.757812 17.15625 C 33.71875 17.9375 33.667969 19.640625 33.660156 19.875 Z M 29.140625 22.777344 C 29.179688 23.078125 29.25 23.507812 29.351562 24.03125 C 29.246094 23.507812 29.179688 23.078125 29.140625 22.777344 Z M 29.351562 24.035156 C 29.363281 24.09375 29.375 24.152344 29.386719 24.210938 C 29.398438 24.265625 29.410156 24.324219 29.421875 24.378906 C 29.394531 24.261719 29.371094 24.144531 29.351562 24.035156 Z M 29.726562 23.363281 C 29.71875 23.308594 29.707031 23.257812 29.699219 23.207031 C 29.707031 23.257812 29.71875 23.308594 29.726562 23.363281 Z M 18.3125 26.277344 L 18.3125 14.980469 C 22.289062 14.933594 25.339844 14.257812 25.339844 13.402344 L 25.339844 12.960938 C 25.339844 12.246094 23.207031 11.65625 20.183594 11.453125 C 20.242188 11.292969 20.273438 11.121094 20.277344 10.941406 L 20.277344 10.933594 C 20.277344 10.929688 20.277344 10.921875 20.277344 10.917969 C 20.34375 10.03125 19.328125 8.96875 19.171875 8.808594 C 19.273438 8.738281 19.304688 8.601562 19.335938 8.488281 C 19.355469 8.40625 19.390625 8.339844 19.449219 8.28125 C 19.5 8.230469 19.558594 8.191406 19.617188 8.148438 C 19.734375 8.054688 19.832031 7.957031 19.875 7.808594 C 19.925781 7.636719 19.90625 7.457031 19.90625 7.28125 C 19.910156 7.101562 19.941406 6.890625 20.105469 6.785156 C 20.144531 6.757812 20.113281 6.707031 20.074219 6.722656 C 19.933594 6.785156 19.789062 6.847656 19.683594 6.960938 C 19.578125 7.074219 19.554688 7.21875 19.515625 7.359375 C 19.496094 7.429688 19.46875 7.503906 19.414062 7.554688 C 19.40625 7.5625 19.398438 7.570312 19.386719 7.578125 C 19.382812 7.507812 19.40625 7.441406 19.433594 7.378906 C 19.46875 7.289062 19.507812 7.203125 19.542969 7.117188 C 19.578125 7.039062 19.609375 6.960938 19.621094 6.878906 C 19.632812 6.800781 19.613281 6.726562 19.589844 6.652344 C 19.5625 6.566406 19.523438 6.488281 19.496094 6.40625 C 19.476562 6.355469 19.460938 6.304688 19.449219 6.253906 C 19.441406 6.226562 19.429688 6.183594 19.445312 6.15625 C 19.460938 6.128906 19.425781 6.09375 19.398438 6.109375 C 19.285156 6.175781 19.203125 6.28125 19.164062 6.40625 C 19.144531 6.464844 19.136719 6.53125 19.140625 6.59375 C 19.144531 6.675781 19.167969 6.761719 19.128906 6.839844 C 19.101562 6.902344 19.050781 6.953125 19.003906 7.003906 C 18.960938 7.054688 18.917969 7.105469 18.886719 7.167969 C 18.855469 7.222656 18.835938 7.28125 18.820312 7.34375 C 18.800781 7.269531 18.773438 7.195312 18.75 7.125 C 18.683594 6.953125 18.609375 6.785156 18.546875 6.613281 C 18.542969 6.605469 18.539062 6.601562 18.535156 6.597656 C 18.484375 6.511719 18.410156 6.445312 18.328125 6.386719 C 18.25 6.335938 18.164062 6.296875 18.09375 6.234375 C 18.070312 6.210938 18.027344 6.234375 18.035156 6.269531 C 18.085938 6.441406 18.1875 6.605469 18.164062 6.792969 C 18.148438 6.914062 18.097656 7.027344 18.074219 7.148438 C 18.023438 7.035156 17.945312 6.9375 17.859375 6.851562 C 17.703125 6.695312 17.511719 6.570312 17.355469 6.410156 C 17.324219 6.375 17.277344 6.425781 17.308594 6.457031 C 17.382812 6.542969 17.414062 6.648438 17.4375 6.757812 C 17.457031 6.871094 17.453125 6.988281 17.480469 7.097656 C 17.5 7.191406 17.546875 7.261719 17.601562 7.335938 C 17.605469 7.34375 17.613281 7.351562 17.617188 7.359375 C 17.542969 7.324219 17.464844 7.296875 17.398438 7.25 C 17.328125 7.203125 17.296875 7.121094 17.261719 7.046875 C 17.230469 6.976562 17.191406 6.90625 17.128906 6.859375 C 17.074219 6.816406 17.003906 6.785156 16.9375 6.757812 C 16.832031 6.714844 16.726562 6.679688 16.621094 6.636719 C 16.589844 6.621094 16.5625 6.671875 16.589844 6.695312 C 16.71875 6.808594 16.765625 6.976562 16.804688 7.140625 C 16.847656 7.300781 16.882812 7.46875 16.988281 7.601562 C 17.121094 7.765625 17.335938 7.796875 17.503906 7.914062 C 17.542969 7.945312 17.582031 7.980469 17.609375 8.023438 C 17.644531 8.074219 17.65625 8.136719 17.667969 8.195312 C 17.6875 8.289062 17.714844 8.378906 17.765625 8.460938 C 17.875 8.636719 18.0625 8.753906 18.265625 8.78125 C 18.277344 8.785156 18.285156 8.78125 18.289062 8.777344 C 18.296875 8.78125 18.304688 8.789062 18.3125 8.792969 C 18.21875 8.882812 17.121094 9.996094 17.191406 10.917969 C 17.191406 10.921875 17.191406 10.925781 17.191406 10.933594 L 17.191406 10.9375 C 17.195312 11.089844 17.21875 11.242188 17.261719 11.382812 C 13.355469 11.445312 10.378906 12.117188 10.378906 12.960938 L 10.378906 13.402344 C 10.378906 14.257812 13.433594 14.933594 17.410156 14.980469 L 17.410156 26.277344 C 15.976562 26.359375 14.9375 26.828125 14.9375 27.390625 L 14.9375 27.683594 C 14.9375 28.316406 16.21875 28.8125 17.859375 28.8125 C 19.5 28.8125 20.785156 28.316406 20.785156 27.683594 L 20.785156 27.390625 C 20.785156 26.828125 19.746094 26.359375 18.3125 26.277344 Z M 19.113281 8.847656 C 19.117188 8.851562 19.125 8.859375 19.136719 8.871094 C 19.125 8.859375 19.117188 8.851562 19.113281 8.847656 Z M 18.269531 12.363281 Z M 17.324219 11.355469 C 17.328125 11.363281 17.332031 11.371094 17.332031 11.382812 C 17.332031 11.371094 17.328125 11.363281 17.324219 11.355469 Z M 15.917969 28.164062 C 15.792969 28.121094 15.679688 28.074219 15.578125 28.023438 C 15.679688 28.074219 15.792969 28.121094 15.917969 28.164062 Z M 20.210938 10.914062 L 20.207031 10.9375 L 20.210938 10.914062 C 20.210938 10.886719 20.210938 10.859375 20.210938 10.832031 C 20.210938 10.859375 20.210938 10.886719 20.210938 10.914062 Z M 17.257812 10.914062 C 17.257812 10.886719 17.257812 10.859375 17.257812 10.832031 C 17.257812 10.859375 17.257812 10.886719 17.257812 10.914062 L 17.261719 10.933594 Z M 15.015625 27.484375 C 15.019531 27.5 15.027344 27.515625 15.03125 27.53125 C 15.019531 27.5 15.011719 27.46875 15.007812 27.4375 C 15.011719 27.453125 15.011719 27.46875 15.015625 27.484375 Z M 13.277344 20.539062 C 13.210938 19.703125 13.136719 19.402344 13.003906 19.136719 C 13.308594 19.058594 13.332031 18.964844 13.332031 18.820312 L 13.332031 18.808594 C 13.332031 18.792969 13.332031 18.78125 13.332031 18.765625 C 13.34375 18.757812 13.347656 18.746094 13.34375 18.730469 C 13.34375 18.71875 13.332031 18.710938 13.324219 18.707031 C 13.292969 18.59375 13.195312 18.519531 12.894531 18.402344 C 12.734375 18.339844 12.261719 18.144531 11.757812 17.9375 C 11.183594 17.699219 10.585938 17.457031 10.34375 17.359375 C 10.019531 17.230469 9.660156 17.15625 9.339844 17.136719 C 9.335938 16.984375 9.332031 16.742188 9.328125 16.460938 C 9.320312 15.851562 9.3125 15.09375 9.285156 14.640625 L 9.277344 14.476562 C 9.234375 13.816406 9.175781 12.824219 9.125 12.296875 C 9.191406 12.289062 9.246094 12.28125 9.28125 12.277344 C 9.71875 12.226562 9.9375 12.015625 9.949219 11.632812 C 9.964844 11.234375 9.851562 10.550781 9.785156 10.210938 C 9.714844 9.855469 9.390625 9.648438 8.824219 9.585938 C 8.332031 9.53125 7.257812 9.453125 5.605469 9.527344 C 4.0625 9.601562 2.347656 10.070312 2.085938 10.183594 C 2.015625 10.214844 1.949219 10.257812 1.890625 10.308594 C 1.882812 10.308594 1.875 10.308594 1.871094 10.3125 C 1.839844 10.339844 1.816406 10.367188 1.796875 10.398438 C 1.660156 10.554688 1.589844 10.746094 1.605469 10.886719 C 1.660156 11.28125 1.816406 12.273438 1.886719 12.542969 C 1.9375 12.746094 2.152344 12.863281 2.503906 12.882812 C 2.542969 13.148438 2.726562 14.394531 2.800781 15.121094 C 2.886719 15.972656 2.980469 17.3125 3.007812 17.933594 C 3.007812 17.945312 3.011719 17.953125 3.015625 17.957031 C 3 18.035156 3.011719 18.117188 3.035156 18.183594 C 3.035156 18.21875 3.007812 21.703125 2.964844 22.457031 C 2.9375 22.941406 2.832031 24.035156 2.761719 24.761719 C 2.71875 25.199219 2.6875 25.511719 2.6875 25.554688 C 2.6875 25.648438 2.871094 25.691406 2.996094 25.695312 C 3.003906 25.695312 3.011719 25.695312 3.023438 25.695312 C 3.195312 25.695312 3.304688 25.632812 3.3125 25.527344 C 3.316406 25.472656 3.335938 25.265625 3.367188 24.980469 C 3.449219 24.214844 3.589844 22.933594 3.617188 22.28125 C 3.65625 21.328125 3.644531 19.648438 3.632812 19.050781 C 3.785156 19.253906 3.925781 19.4375 4.003906 19.53125 C 4.101562 19.648438 4.167969 19.730469 4.269531 19.796875 C 4.269531 19.800781 4.269531 19.804688 4.273438 19.808594 C 4.457031 20.179688 4.53125 21.238281 4.546875 21.808594 C 4.5625 22.414062 4.953125 28.484375 4.976562 28.683594 C 4.992188 28.8125 5.144531 28.871094 5.300781 28.871094 C 5.324219 28.871094 5.34375 28.867188 5.367188 28.867188 C 5.515625 28.851562 5.664062 28.785156 5.652344 28.675781 C 5.636719 28.464844 5.265625 22.527344 5.222656 21.652344 C 5.183594 20.761719 5.070312 20.191406 4.984375 19.953125 C 5.722656 19.949219 7.503906 19.777344 8.632812 19.671875 C 8.738281 19.660156 8.835938 19.652344 8.925781 19.640625 C 8.96875 21.757812 8.960938 23.21875 8.957031 24.003906 C 8.953125 24.667969 8.953125 24.789062 8.972656 24.820312 C 9.003906 24.886719 9.105469 24.910156 9.207031 24.910156 C 9.261719 24.910156 9.316406 24.902344 9.359375 24.890625 C 9.46875 24.863281 9.492188 24.816406 9.492188 24.785156 C 9.492188 24.585938 9.492188 20 9.472656 19.589844 C 10.171875 19.523438 11.5 19.363281 12.316406 19.25 C 12.542969 19.46875 12.613281 20.03125 12.664062 20.445312 L 12.667969 20.464844 C 12.6875 20.625 12.757812 21.613281 12.835938 22.757812 C 13.097656 26.535156 13.183594 27.585938 13.230469 27.632812 C 13.265625 27.667969 13.332031 27.679688 13.410156 27.679688 C 13.515625 27.679688 13.640625 27.65625 13.714844 27.632812 C 13.820312 27.601562 13.839844 27.570312 13.84375 27.546875 C 13.859375 27.46875 13.660156 24.902344 13.566406 23.984375 C 13.46875 23.015625 13.34375 21.40625 13.277344 20.539062 Z M 9.417969 21.417969 C 9.421875 21.566406 9.421875 21.714844 9.421875 21.867188 C 9.421875 21.714844 9.421875 21.566406 9.417969 21.417969 Z M 9.425781 24.5 C 9.425781 24.554688 9.425781 24.601562 9.425781 24.640625 C 9.425781 24.601562 9.425781 24.554688 9.425781 24.5 Z M 8.632812 14.671875 C 8.671875 15.394531 8.71875 16.886719 8.730469 17.175781 C 7.773438 17.28125 4.308594 17.621094 3.589844 17.660156 C 3.574219 16.957031 3.523438 15.933594 3.4375 15.210938 C 3.414062 15.015625 3.386719 14.777344 3.355469 14.527344 C 3.285156 13.90625 3.203125 13.203125 3.152344 12.847656 C 3.664062 12.808594 4.566406 12.738281 5.261719 12.683594 L 5.871094 12.636719 C 6.359375 12.601562 7.589844 12.46875 8.445312 12.371094 C 8.539062 13.238281 8.597656 13.96875 8.632812 14.671875 Z M 8.632812 14.671875 " fill-opacity="1" fill-rule="nonzero"/></g><g clip-path="url(#34f56f72b8)"><path fill="#00bf63" d="M 19.25 7.726562 C 19.316406 7.695312 19.386719 7.667969 19.445312 7.621094 C 19.496094 7.578125 19.53125 7.523438 19.554688 7.460938 C 19.609375 7.328125 19.609375 7.183594 19.691406 7.0625 C 19.75 6.972656 19.839844 6.914062 19.933594 6.863281 C 19.800781 7.074219 19.855469 7.378906 19.839844 7.621094 C 19.832031 7.703125 19.816406 7.789062 19.78125 7.867188 C 19.746094 7.933594 19.699219 7.992188 19.640625 8.039062 C 19.535156 8.128906 19.410156 8.199219 19.332031 8.316406 C 19.28125 8.394531 19.265625 8.484375 19.242188 8.574219 C 19.21875 8.65625 19.175781 8.746094 19.085938 8.773438 C 19.082031 8.773438 19.078125 8.777344 19.074219 8.777344 L 18.882812 8.777344 C 18.917969 8.734375 18.9375 8.679688 18.945312 8.625 C 18.949219 8.617188 18.953125 8.613281 18.953125 8.605469 C 18.964844 8.433594 18.941406 8.253906 18.980469 8.085938 C 19.015625 7.929688 19.101562 7.800781 19.25 7.726562 Z M 18.925781 8.015625 C 18.972656 7.867188 19.066406 7.742188 19.210938 7.671875 C 19.246094 7.652344 19.285156 7.636719 19.324219 7.617188 C 19.296875 7.480469 19.375 7.339844 19.425781 7.21875 C 19.480469 7.089844 19.570312 6.941406 19.554688 6.796875 C 19.542969 6.710938 19.507812 6.628906 19.476562 6.554688 C 19.445312 6.472656 19.414062 6.394531 19.390625 6.308594 C 19.382812 6.28125 19.371094 6.25 19.371094 6.214844 C 19.292969 6.28125 19.238281 6.371094 19.214844 6.472656 C 19.1875 6.609375 19.253906 6.746094 19.191406 6.875 C 19.132812 6.988281 19.023438 7.066406 18.960938 7.175781 C 18.894531 7.289062 18.863281 7.417969 18.863281 7.546875 C 18.867188 7.558594 18.871094 7.570312 18.871094 7.582031 C 18.882812 7.65625 18.886719 7.734375 18.882812 7.808594 C 18.878906 7.886719 18.863281 7.964844 18.855469 8.042969 C 18.847656 8.128906 18.867188 8.207031 18.890625 8.285156 C 18.890625 8.195312 18.898438 8.105469 18.925781 8.015625 Z M 18.167969 7.859375 C 18.175781 7.933594 18.195312 8.003906 18.222656 8.070312 C 18.207031 7.894531 18.265625 7.703125 18.332031 7.542969 C 18.390625 7.402344 18.457031 7.265625 18.496094 7.117188 C 18.53125 6.964844 18.527344 6.804688 18.484375 6.652344 C 18.410156 6.503906 18.265625 6.4375 18.136719 6.351562 C 18.1875 6.492188 18.25 6.628906 18.234375 6.777344 C 18.21875 6.957031 18.117188 7.117188 18.136719 7.300781 C 18.136719 7.308594 18.136719 7.3125 18.132812 7.316406 C 18.167969 7.496094 18.148438 7.679688 18.167969 7.859375 Z M 18.070312 8.226562 C 18.015625 8.011719 17.953125 7.785156 17.8125 7.609375 C 17.8125 7.605469 17.808594 7.605469 17.808594 7.601562 C 17.800781 7.59375 17.792969 7.585938 17.785156 7.578125 C 17.726562 7.511719 17.660156 7.453125 17.578125 7.414062 C 17.496094 7.375 17.402344 7.347656 17.332031 7.285156 C 17.210938 7.179688 17.203125 6.988281 17.0625 6.898438 C 16.960938 6.832031 16.84375 6.792969 16.726562 6.75 C 16.804688 6.863281 16.839844 6.996094 16.875 7.128906 C 16.914062 7.28125 16.949219 7.453125 17.058594 7.574219 C 17.199219 7.730469 17.417969 7.757812 17.578125 7.882812 C 17.65625 7.949219 17.703125 8.035156 17.726562 8.132812 C 17.746094 8.234375 17.765625 8.328125 17.820312 8.414062 C 17.90625 8.5625 18.058594 8.671875 18.226562 8.707031 C 18.207031 8.675781 18.191406 8.640625 18.179688 8.609375 C 18.128906 8.484375 18.101562 8.355469 18.070312 8.226562 Z M 18.070312 8.226562 " fill-opacity="1" fill-rule="nonzero"/></g><path fill="#ffffff" d="M 18.398438 9.207031 C 18.492188 9.09375 18.578125 8.972656 18.652344 8.847656 L 18.839844 8.847656 C 18.789062 8.953125 18.730469 9.058594 18.667969 9.160156 C 18.425781 9.53125 18.09375 9.851562 17.917969 10.265625 C 17.871094 10.375 17.839844 10.507812 17.898438 10.617188 C 17.96875 10.75 18.144531 10.78125 18.300781 10.796875 C 18.453125 10.8125 18.613281 10.828125 18.757812 10.882812 C 18.902344 10.933594 19.039062 11.035156 19.101562 11.179688 C 19.210938 11.433594 19.039062 11.742188 18.792969 11.871094 C 18.6875 11.925781 18.566406 11.957031 18.476562 12.039062 C 18.386719 12.117188 18.34375 12.269531 18.425781 12.355469 C 18.460938 12.390625 18.511719 12.40625 18.5625 12.417969 C 18.597656 12.425781 18.632812 12.433594 18.671875 12.441406 C 18.667969 12.441406 18.664062 12.441406 18.664062 12.441406 C 18.625 12.4375 18.585938 12.433594 18.546875 12.429688 C 18.546875 12.429688 18.542969 12.429688 18.539062 12.429688 C 18.5 12.421875 18.460938 12.417969 18.421875 12.40625 C 18.417969 12.40625 18.414062 12.40625 18.414062 12.40625 C 18.386719 12.398438 18.363281 12.394531 18.339844 12.386719 C 18.316406 12.378906 18.292969 12.371094 18.269531 12.363281 C 18.238281 12.351562 18.203125 12.339844 18.171875 12.324219 C 18.171875 12.324219 18.167969 12.324219 18.167969 12.324219 C 18.132812 12.308594 18.101562 12.292969 18.070312 12.277344 C 18.066406 12.273438 18.0625 12.273438 18.058594 12.269531 C 18.023438 12.253906 17.992188 12.234375 17.960938 12.210938 C 17.957031 12.210938 17.953125 12.207031 17.949219 12.203125 C 17.929688 12.191406 17.914062 12.179688 17.894531 12.167969 C 17.882812 12.15625 17.867188 12.148438 17.855469 12.136719 C 17.851562 12.136719 17.851562 12.132812 17.847656 12.132812 C 17.820312 12.109375 17.792969 12.085938 17.769531 12.0625 C 17.765625 12.058594 17.757812 12.054688 17.753906 12.050781 C 17.632812 11.835938 17.546875 11.597656 17.507812 11.351562 C 17.4375 10.875 17.539062 10.378906 17.789062 9.96875 C 17.957031 9.691406 18.191406 9.460938 18.398438 9.207031 Z M 18.398438 9.207031 " fill-opacity="1" fill-rule="nonzero"/><g clip-path="url(#07202512fa)"><path fill="#7ed957" d="M 18.433594 7.480469 C 18.492188 7.347656 18.550781 7.210938 18.574219 7.066406 C 18.585938 7.011719 18.585938 6.960938 18.585938 6.90625 C 18.664062 7.097656 18.742188 7.285156 18.785156 7.488281 C 18.789062 7.511719 18.792969 7.53125 18.796875 7.554688 C 18.796875 7.5625 18.792969 7.574219 18.796875 7.585938 C 18.796875 7.59375 18.800781 7.601562 18.804688 7.605469 C 18.816406 7.71875 18.816406 7.832031 18.800781 7.945312 C 18.789062 8.015625 18.777344 8.085938 18.785156 8.15625 C 18.792969 8.222656 18.816406 8.289062 18.835938 8.355469 C 18.875 8.484375 18.917969 8.648438 18.8125 8.753906 C 18.804688 8.761719 18.800781 8.769531 18.800781 8.777344 L 18.425781 8.777344 C 18.511719 8.652344 18.476562 8.488281 18.40625 8.363281 C 18.394531 8.347656 18.382812 8.328125 18.371094 8.3125 C 18.375 8.304688 18.375 8.292969 18.367188 8.285156 C 18.203125 8.035156 18.328125 7.726562 18.433594 7.480469 Z M 18.367188 8.746094 C 18.488281 8.589844 18.335938 8.382812 18.246094 8.253906 C 18.199219 8.179688 18.15625 8.105469 18.132812 8.023438 C 18.105469 7.941406 18.097656 7.855469 18.09375 7.769531 C 18.085938 7.59375 18.101562 7.40625 18.039062 7.238281 C 17.941406 6.957031 17.6875 6.789062 17.464844 6.601562 C 17.476562 6.632812 17.488281 6.664062 17.492188 6.699219 C 17.519531 6.808594 17.519531 6.925781 17.539062 7.035156 C 17.554688 7.136719 17.597656 7.214844 17.65625 7.296875 C 17.714844 7.371094 17.773438 7.449219 17.832031 7.523438 C 17.847656 7.539062 17.859375 7.554688 17.871094 7.570312 C 18.007812 7.746094 18.074219 7.964844 18.128906 8.175781 C 18.160156 8.292969 18.1875 8.410156 18.222656 8.523438 C 18.25 8.605469 18.285156 8.707031 18.367188 8.746094 Z M 17.261719 10.933594 C 17.261719 10.960938 17.261719 10.988281 17.265625 11.011719 C 17.265625 11.023438 17.265625 11.03125 17.265625 11.039062 C 17.269531 11.058594 17.269531 11.074219 17.273438 11.09375 C 17.273438 11.101562 17.273438 11.113281 17.277344 11.125 C 17.277344 11.140625 17.28125 11.15625 17.285156 11.171875 C 17.285156 11.179688 17.289062 11.191406 17.289062 11.203125 C 17.292969 11.21875 17.292969 11.234375 17.296875 11.246094 C 17.300781 11.257812 17.304688 11.269531 17.304688 11.28125 C 17.308594 11.292969 17.3125 11.308594 17.316406 11.324219 C 17.320312 11.335938 17.324219 11.34375 17.324219 11.355469 C 17.328125 11.363281 17.332031 11.371094 17.332031 11.382812 C 17.335938 11.386719 17.335938 11.394531 17.339844 11.398438 C 17.339844 11.40625 17.34375 11.417969 17.347656 11.429688 C 17.351562 11.4375 17.355469 11.445312 17.355469 11.453125 C 17.359375 11.457031 17.363281 11.464844 17.363281 11.46875 C 17.367188 11.480469 17.371094 11.488281 17.375 11.5 C 17.382812 11.515625 17.386719 11.527344 17.394531 11.542969 C 17.398438 11.550781 17.402344 11.558594 17.40625 11.570312 C 17.414062 11.582031 17.417969 11.597656 17.425781 11.613281 C 17.429688 11.621094 17.433594 11.628906 17.4375 11.636719 C 17.445312 11.652344 17.453125 11.664062 17.460938 11.679688 C 17.464844 11.6875 17.472656 11.695312 17.476562 11.703125 C 17.484375 11.71875 17.492188 11.730469 17.5 11.746094 C 17.507812 11.753906 17.511719 11.761719 17.515625 11.765625 C 17.523438 11.78125 17.535156 11.796875 17.546875 11.8125 C 17.550781 11.816406 17.554688 11.824219 17.558594 11.828125 C 17.570312 11.84375 17.582031 11.859375 17.59375 11.878906 C 17.597656 11.878906 17.597656 11.882812 17.601562 11.886719 C 17.625 11.914062 17.644531 11.941406 17.667969 11.964844 C 17.675781 11.972656 17.683594 11.980469 17.691406 11.988281 C 17.707031 12.007812 17.722656 12.023438 17.742188 12.039062 C 17.746094 12.042969 17.75 12.046875 17.753906 12.050781 C 17.632812 11.835938 17.546875 11.597656 17.507812 11.351562 C 17.4375 10.875 17.539062 10.378906 17.789062 9.96875 C 17.957031 9.691406 18.191406 9.460938 18.398438 9.207031 C 18.492188 9.09375 18.578125 8.972656 18.652344 8.847656 L 18.355469 8.847656 C 18.324219 8.878906 18.21875 8.988281 18.082031 9.148438 C 18.070312 9.167969 18.054688 9.183594 18.039062 9.203125 C 18.007812 9.242188 17.976562 9.28125 17.941406 9.324219 C 17.925781 9.34375 17.910156 9.367188 17.890625 9.386719 C 17.792969 9.519531 17.6875 9.671875 17.59375 9.828125 C 17.5625 9.882812 17.53125 9.9375 17.503906 9.992188 C 17.359375 10.265625 17.257812 10.558594 17.257812 10.832031 C 17.257812 10.859375 17.257812 10.886719 17.257812 10.914062 Z M 17.917969 10.265625 C 17.871094 10.375 17.839844 10.507812 17.898438 10.617188 C 17.96875 10.75 18.144531 10.78125 18.300781 10.796875 C 18.453125 10.8125 18.613281 10.828125 18.757812 10.882812 C 18.902344 10.933594 19.039062 11.035156 19.101562 11.179688 C 19.210938 11.433594 19.039062 11.742188 18.792969 11.871094 C 18.6875 11.925781 18.566406 11.957031 18.476562 12.039062 C 18.386719 12.117188 18.34375 12.269531 18.425781 12.355469 C 18.460938 12.390625 18.511719 12.40625 18.5625 12.417969 C 18.597656 12.425781 18.632812 12.433594 18.671875 12.441406 C 18.691406 12.441406 18.710938 12.441406 18.734375 12.441406 C 19.070312 12.441406 19.378906 12.324219 19.628906 12.125 C 19.652344 12.105469 19.679688 12.085938 19.703125 12.0625 C 19.726562 12.042969 19.746094 12.019531 19.769531 11.996094 C 19.8125 11.953125 19.855469 11.902344 19.894531 11.851562 C 19.972656 11.75 20.035156 11.636719 20.085938 11.519531 C 20.097656 11.496094 20.105469 11.472656 20.113281 11.449219 C 20.121094 11.425781 20.128906 11.40625 20.136719 11.382812 C 20.179688 11.242188 20.203125 11.089844 20.207031 10.9375 L 20.210938 10.914062 C 20.210938 10.886719 20.210938 10.859375 20.210938 10.832031 C 20.210938 10.640625 20.160156 10.4375 20.082031 10.242188 C 20.070312 10.214844 20.058594 10.1875 20.046875 10.15625 C 19.972656 9.988281 19.878906 9.828125 19.777344 9.675781 C 19.75 9.632812 19.726562 9.59375 19.699219 9.554688 C 19.675781 9.523438 19.652344 9.488281 19.628906 9.457031 C 19.59375 9.410156 19.558594 9.367188 19.527344 9.324219 C 19.496094 9.28125 19.460938 9.242188 19.429688 9.203125 C 19.355469 9.109375 19.28125 9.027344 19.226562 8.96875 C 19.207031 8.945312 19.1875 8.921875 19.167969 8.90625 C 19.15625 8.890625 19.144531 8.878906 19.136719 8.871094 C 19.125 8.859375 19.121094 8.851562 19.113281 8.847656 L 18.839844 8.847656 C 18.789062 8.957031 18.730469 9.058594 18.667969 9.160156 C 18.425781 9.53125 18.09375 9.851562 17.917969 10.265625 Z M 17.917969 10.265625 " fill-opacity="1" fill-rule="nonzero"/></g><g clip-path="url(#65ca88a76e)"><path fill="#737373" d="M 2.84375 12.804688 C 2.742188 12.816406 2.648438 12.816406 2.5625 12.816406 C 2.554688 12.800781 2.539062 12.789062 2.523438 12.792969 C 2.511719 12.792969 2.5 12.800781 2.496094 12.8125 C 2.394531 12.804688 2.300781 12.789062 2.226562 12.765625 C 2.222656 12.761719 2.21875 12.757812 2.214844 12.753906 C 2.152344 12.710938 2.042969 12.214844 1.894531 11.269531 C 1.882812 11.203125 1.875 11.148438 1.871094 11.113281 C 1.863281 11.082031 1.859375 11.054688 1.851562 11.019531 C 1.816406 10.824219 1.773438 10.585938 1.851562 10.441406 C 1.921875 10.359375 2.011719 10.292969 2.113281 10.246094 C 2.375 10.136719 4.074219 9.667969 5.605469 9.597656 C 7.253906 9.523438 8.324219 9.601562 8.816406 9.652344 C 9.351562 9.710938 9.652344 9.902344 9.714844 10.222656 C 9.785156 10.5625 9.894531 11.238281 9.882812 11.628906 C 9.871094 11.976562 9.675781 12.160156 9.273438 12.207031 C 9.234375 12.210938 9.183594 12.21875 9.113281 12.226562 C 9.109375 12.214844 9.097656 12.207031 9.082031 12.207031 C 9.066406 12.210938 9.054688 12.21875 9.050781 12.234375 C 8.90625 12.25 8.71875 12.269531 8.503906 12.296875 C 8.5 12.285156 8.484375 12.277344 8.472656 12.277344 C 8.457031 12.277344 8.445312 12.289062 8.441406 12.300781 C 7.582031 12.398438 6.351562 12.53125 5.867188 12.570312 L 5.253906 12.617188 C 4.550781 12.667969 3.636719 12.738281 3.125 12.78125 C 3.121094 12.777344 3.113281 12.777344 3.105469 12.777344 C 3.101562 12.777344 3.09375 12.78125 3.089844 12.785156 C 2.988281 12.792969 2.90625 12.800781 2.84375 12.804688 Z M 1.800781 11.125 C 1.796875 11.09375 1.792969 11.066406 1.785156 11.035156 C 1.761719 10.894531 1.730469 10.738281 1.742188 10.601562 C 1.691406 10.699219 1.664062 10.800781 1.675781 10.878906 C 1.726562 11.269531 1.886719 12.257812 1.953125 12.527344 C 1.972656 12.609375 2.03125 12.675781 2.121094 12.722656 C 2.035156 12.515625 1.9375 11.988281 1.828125 11.28125 C 1.816406 11.214844 1.808594 11.160156 1.800781 11.125 Z M 8.515625 12.363281 C 8.605469 13.230469 8.667969 13.964844 8.703125 14.671875 C 8.742188 15.386719 8.789062 16.867188 8.796875 17.167969 C 8.875 17.160156 8.929688 17.152344 8.953125 17.148438 C 9.050781 17.136719 9.15625 17.128906 9.269531 17.132812 C 9.265625 16.980469 9.265625 16.742188 9.261719 16.464844 C 9.253906 15.855469 9.242188 15.097656 9.214844 14.644531 L 9.207031 14.484375 C 9.167969 13.820312 9.105469 12.832031 9.054688 12.304688 C 8.914062 12.320312 8.726562 12.339844 8.515625 12.363281 Z M 13.261719 18.824219 L 13.261719 18.808594 C 13.261719 18.800781 13.261719 18.792969 13.261719 18.789062 C 12.734375 18.917969 11.546875 19.070312 8.839844 19.355469 C 6.617188 19.589844 5.707031 19.652344 5.113281 19.652344 C 5.035156 19.652344 4.964844 19.648438 4.898438 19.648438 C 4.433594 19.636719 4.421875 19.632812 4.191406 19.363281 C 4.152344 19.316406 4.101562 19.257812 4.042969 19.191406 C 3.703125 18.820312 3.230469 18.214844 3.097656 17.925781 C 3.058594 18.015625 3.078125 18.121094 3.113281 18.199219 C 3.183594 18.347656 3.859375 19.246094 4.050781 19.480469 C 4.246094 19.714844 4.316406 19.800781 4.722656 19.871094 C 5.117188 19.9375 7.3125 19.726562 8.625 19.601562 C 8.902344 19.574219 9.140625 19.550781 9.304688 19.539062 C 9.9375 19.480469 11.429688 19.304688 12.308594 19.183594 C 12.320312 19.175781 12.328125 19.175781 12.335938 19.179688 C 12.625 19.136719 12.847656 19.101562 12.945312 19.078125 C 13.265625 19.007812 13.265625 18.933594 13.261719 18.824219 Z M 3.566406 18.960938 C 3.378906 18.714844 3.195312 18.457031 3.101562 18.3125 C 3.097656 18.957031 3.070312 21.789062 3.035156 22.460938 C 3.007812 22.945312 2.90625 24 2.832031 24.769531 C 2.789062 25.1875 2.757812 25.515625 2.757812 25.554688 C 2.761719 25.578125 2.878906 25.628906 3.035156 25.625 C 3.082031 25.625 3.238281 25.613281 3.242188 25.523438 C 3.246094 25.464844 3.269531 25.261719 3.300781 24.972656 C 3.382812 24.207031 3.519531 22.929688 3.546875 22.277344 C 3.589844 21.28125 3.574219 19.488281 3.5625 18.976562 C 3.5625 18.96875 3.5625 18.964844 3.566406 18.960938 Z M 4.710938 19.9375 C 4.558594 19.914062 4.449219 19.882812 4.363281 19.84375 C 4.570312 20.367188 4.609375 21.65625 4.613281 21.804688 C 4.628906 22.410156 5.019531 28.476562 5.042969 28.671875 C 5.054688 28.773438 5.210938 28.8125 5.359375 28.796875 C 5.492188 28.785156 5.589844 28.734375 5.585938 28.679688 C 5.570312 28.472656 5.195312 22.53125 5.15625 21.65625 C 5.113281 20.738281 4.996094 20.167969 4.910156 19.953125 C 4.824219 19.949219 4.757812 19.945312 4.710938 19.9375 Z M 3.09375 17.773438 C 3.105469 17.773438 3.113281 17.777344 3.117188 17.78125 C 3.203125 17.707031 3.335938 17.667969 3.511719 17.664062 C 3.515625 17.664062 3.515625 17.664062 3.519531 17.664062 C 3.503906 16.960938 3.453125 15.941406 3.367188 15.21875 C 3.34375 15.023438 3.316406 14.785156 3.285156 14.535156 C 3.214844 13.910156 3.132812 13.207031 3.082031 12.855469 C 2.988281 12.863281 2.90625 12.867188 2.851562 12.875 C 2.765625 12.882812 2.6875 12.886719 2.613281 12.886719 C 2.597656 12.886719 2.585938 12.886719 2.574219 12.886719 C 2.617188 13.175781 2.796875 14.398438 2.867188 15.113281 C 2.949219 15.90625 3.035156 17.121094 3.070312 17.789062 C 3.074219 17.78125 3.082031 17.773438 3.09375 17.773438 Z M 8.964844 17.21875 C 8.9375 17.222656 8.878906 17.230469 8.796875 17.238281 C 8.792969 17.25 8.78125 17.261719 8.765625 17.261719 C 8.753906 17.261719 8.746094 17.253906 8.738281 17.246094 C 7.738281 17.355469 4.015625 17.71875 3.511719 17.734375 C 3.335938 17.738281 3.210938 17.777344 3.144531 17.855469 C 3.21875 18.078125 3.691406 18.703125 4.09375 19.144531 C 4.152344 19.214844 4.203125 19.269531 4.246094 19.320312 C 4.460938 19.566406 4.460938 19.566406 4.898438 19.578125 C 5.496094 19.59375 6.328125 19.550781 8.832031 19.289062 C 11.554688 19 12.734375 18.847656 13.253906 18.71875 C 13.234375 18.644531 13.15625 18.578125 12.871094 18.464844 C 12.707031 18.402344 12.234375 18.207031 11.730469 18 C 11.15625 17.765625 10.5625 17.519531 10.320312 17.425781 C 9.992188 17.296875 9.625 17.21875 9.308594 17.207031 C 9.308594 17.207031 9.308594 17.207031 9.304688 17.207031 C 9.183594 17.199219 9.066406 17.203125 8.964844 17.21875 Z M 29.300781 18.828125 C 29.308594 18.585938 29.335938 17.441406 29.335938 16.65625 C 29.335938 15.792969 29.480469 14.097656 29.539062 13.605469 C 29.34375 13.582031 29.160156 13.5625 29 13.550781 C 28.882812 14.4375 28.804688 15.394531 28.792969 16.117188 C 28.78125 16.882812 28.78125 18.433594 28.78125 18.699219 C 28.804688 18.703125 28.828125 18.710938 28.855469 18.714844 C 28.9375 18.738281 29.09375 18.777344 29.300781 18.828125 Z M 29.648438 21.296875 C 30.808594 20.972656 33.234375 20.195312 33.550781 20.089844 L 33.546875 20.0625 C 33.539062 19.964844 33.535156 19.917969 33.078125 19.8125 C 32.625 19.710938 30.402344 19.167969 29.339844 18.90625 C 29.339844 18.910156 29.335938 18.910156 29.335938 18.910156 C 29.335938 18.910156 29.335938 18.910156 29.332031 18.910156 C 29.328125 18.910156 29.320312 18.90625 29.3125 18.902344 C 29.09375 18.847656 28.921875 18.804688 28.835938 18.78125 C 28.8125 18.777344 28.789062 18.773438 28.765625 18.765625 C 28.761719 18.769531 28.753906 18.773438 28.746094 18.773438 C 28.730469 18.773438 28.722656 18.765625 28.714844 18.753906 C 28.351562 18.675781 27.988281 18.664062 27.613281 18.71875 C 27.199219 18.777344 25.703125 19.074219 24.382812 19.339844 C 23.417969 19.53125 22.585938 19.695312 22.359375 19.730469 C 21.976562 19.792969 21.757812 19.828125 21.660156 19.910156 C 22.136719 20.144531 26.613281 21.414062 27.417969 21.480469 C 28.277344 21.550781 28.777344 21.542969 29.648438 21.296875 Z M 22.183594 20.464844 C 21.988281 20.609375 21.804688 21.058594 21.78125 21.460938 C 21.753906 21.921875 21.421875 29 21.433594 29.21875 C 21.441406 29.304688 21.566406 29.335938 21.675781 29.335938 C 21.679688 29.335938 21.679688 29.335938 21.683594 29.335938 C 21.824219 29.335938 21.957031 29.285156 21.960938 29.230469 C 21.96875 29.132812 22.058594 26.695312 22.136719 24.546875 C 22.191406 23.046875 22.242188 21.753906 22.253906 21.484375 C 22.277344 20.914062 22.578125 20.664062 22.671875 20.601562 C 22.660156 20.597656 22.648438 20.59375 22.636719 20.589844 C 22.460938 20.542969 22.304688 20.5 22.183594 20.464844 Z M 33.824219 14.304688 C 33.976562 14.335938 34.089844 14.363281 34.144531 14.375 L 34.1875 14.382812 C 34.261719 14.398438 34.328125 14.414062 34.394531 14.417969 C 34.597656 14.355469 34.710938 13.855469 34.800781 13.449219 C 34.820312 13.355469 34.84375 13.265625 34.863281 13.183594 C 35.039062 12.472656 35.101562 11.953125 35.03125 11.753906 C 35.027344 11.746094 35.027344 11.734375 35.035156 11.722656 C 34.910156 11.566406 34.730469 11.421875 34.496094 11.292969 C 33.859375 10.945312 32.582031 10.726562 31.878906 10.664062 C 31.550781 10.636719 31.1875 10.625 30.828125 10.625 C 30.144531 10.625 29.480469 10.664062 29.128906 10.695312 C 28.777344 10.726562 28.503906 10.878906 28.386719 11.113281 C 28.222656 11.449219 28.019531 12.4375 27.996094 12.703125 C 27.984375 12.855469 28.039062 13.085938 28.183594 13.246094 C 28.300781 13.378906 28.457031 13.449219 28.648438 13.457031 C 29.175781 13.476562 30.46875 13.640625 31.273438 13.769531 C 31.894531 13.871094 33.199219 14.164062 33.824219 14.304688 Z M 13.207031 20.546875 C 13.140625 19.703125 13.066406 19.414062 12.933594 19.152344 C 12.832031 19.175781 12.644531 19.203125 12.402344 19.238281 C 12.617188 19.492188 12.679688 20.011719 12.734375 20.4375 L 12.738281 20.457031 C 12.757812 20.617188 12.820312 21.558594 12.90625 22.753906 C 13.035156 24.613281 13.230469 27.417969 13.285156 27.585938 C 13.304688 27.601562 13.363281 27.613281 13.476562 27.605469 C 13.628906 27.59375 13.761719 27.550781 13.777344 27.527344 C 13.789062 27.433594 13.597656 24.949219 13.5 23.988281 C 13.402344 23.019531 13.277344 21.410156 13.207031 20.546875 Z M 35.875 27.917969 C 35.640625 27.417969 35.15625 26.371094 34.832031 24.761719 C 34.457031 22.902344 34.28125 21.015625 34.296875 18.988281 C 34.3125 17.164062 34.59375 15.101562 34.699219 14.390625 C 34.617188 14.464844 34.527344 14.492188 34.433594 14.492188 C 34.425781 14.492188 34.414062 14.488281 34.40625 14.488281 C 34.386719 14.492188 34.371094 14.496094 34.351562 14.496094 C 34.339844 14.496094 34.332031 14.496094 34.320312 14.496094 C 34.308594 14.492188 34.300781 14.484375 34.292969 14.476562 C 34.253906 14.46875 34.214844 14.460938 34.171875 14.453125 L 34.164062 14.449219 C 34.0625 15.035156 33.867188 16.308594 33.824219 17.160156 C 33.785156 17.996094 33.730469 19.886719 33.726562 19.90625 C 33.726562 19.921875 33.714844 19.9375 33.699219 19.9375 L 33.59375 19.960938 C 33.609375 19.988281 33.613281 20.015625 33.617188 20.050781 L 33.621094 20.089844 C 33.625 20.09375 33.628906 20.097656 33.628906 20.101562 C 33.632812 20.113281 33.632812 20.121094 33.625 20.132812 C 33.644531 20.316406 33.628906 20.378906 33.335938 20.480469 C 33.253906 20.507812 32.867188 20.625 32.375 20.773438 C 31.414062 21.066406 30.101562 21.464844 29.617188 21.632812 C 29.3125 21.738281 28.980469 21.808594 28.636719 21.84375 C 28.398438 21.953125 28.253906 22.496094 28.253906 22.945312 C 28.253906 23.128906 28.21875 24.613281 28.179688 26.332031 C 28.128906 28.53125 28.066406 31.273438 28.074219 31.382812 C 28.078125 31.453125 28.203125 31.503906 28.347656 31.503906 C 28.460938 31.5 28.589844 31.460938 28.59375 31.355469 C 28.59375 31.320312 28.601562 31.070312 28.609375 30.679688 C 28.652344 28.734375 28.765625 23.566406 28.800781 23.046875 C 28.839844 22.460938 28.96875 22.339844 29.285156 22.042969 C 29.3125 22.019531 29.34375 21.992188 29.375 21.960938 C 29.398438 21.9375 29.445312 21.90625 29.503906 21.875 C 29.511719 21.863281 29.519531 21.855469 29.53125 21.855469 C 29.535156 21.855469 29.539062 21.855469 29.539062 21.855469 C 30.375 21.425781 33.605469 20.496094 33.753906 20.453125 C 33.761719 20.453125 33.773438 20.453125 33.78125 20.460938 C 33.792969 20.464844 33.796875 20.476562 33.796875 20.484375 C 33.800781 20.511719 33.949219 23.105469 34.335938 24.851562 C 34.738281 26.65625 35.464844 28.21875 35.613281 28.332031 C 35.703125 28.398438 35.859375 28.40625 35.945312 28.347656 C 35.996094 28.3125 36.011719 28.265625 35.996094 28.199219 C 35.984375 28.152344 35.9375 28.054688 35.875 27.917969 Z M 28.621094 21.773438 C 28.628906 21.769531 28.636719 21.773438 28.644531 21.773438 C 28.980469 21.738281 29.300781 21.667969 29.59375 21.566406 C 30.078125 21.398438 31.394531 21 32.355469 20.707031 C 32.84375 20.558594 33.234375 20.441406 33.316406 20.414062 C 33.554688 20.332031 33.574219 20.300781 33.558594 20.160156 C 33.195312 20.277344 30.816406 21.042969 29.667969 21.363281 C 29.078125 21.527344 28.65625 21.589844 28.183594 21.589844 C 27.949219 21.589844 27.699219 21.574219 27.414062 21.550781 C 26.671875 21.488281 22.183594 20.246094 21.621094 19.960938 C 21.609375 19.980469 21.601562 20 21.601562 20.019531 C 21.578125 20.183594 21.613281 20.246094 21.894531 20.316406 C 21.925781 20.324219 22.023438 20.351562 22.167969 20.390625 C 22.171875 20.390625 22.171875 20.390625 22.171875 20.390625 C 22.1875 20.378906 22.210938 20.382812 22.21875 20.402344 C 22.21875 20.402344 22.21875 20.402344 22.222656 20.40625 C 22.339844 20.4375 22.484375 20.476562 22.652344 20.523438 C 24 20.894531 26.796875 21.667969 27.296875 21.746094 C 27.738281 21.8125 28.1875 21.820312 28.617188 21.777344 C 28.617188 21.777344 28.621094 21.777344 28.621094 21.773438 Z M 17.859375 28.519531 C 16.441406 28.519531 15.292969 28.148438 15.003906 27.640625 L 15.003906 27.683594 C 15.003906 28.269531 16.285156 28.742188 17.859375 28.742188 C 19.433594 28.742188 20.714844 28.269531 20.714844 27.683594 L 20.714844 27.640625 C 20.429688 28.148438 19.277344 28.519531 17.859375 28.519531 Z M 17.355469 11.453125 C 17.359375 11.457031 17.363281 11.464844 17.363281 11.46875 C 17.363281 11.464844 17.359375 11.457031 17.355469 11.453125 Z M 17.894531 12.167969 C 17.882812 12.15625 17.867188 12.148438 17.855469 12.136719 C 17.867188 12.148438 17.882812 12.15625 17.894531 12.167969 Z M 17.847656 12.132812 C 17.820312 12.109375 17.792969 12.089844 17.769531 12.0625 C 17.792969 12.089844 17.820312 12.109375 17.847656 12.132812 Z M 17.667969 11.964844 C 17.644531 11.941406 17.625 11.914062 17.601562 11.886719 C 17.625 11.914062 17.644531 11.941406 17.667969 11.964844 Z M 17.691406 11.988281 C 17.707031 12.007812 17.722656 12.023438 17.742188 12.039062 C 17.722656 12.023438 17.707031 12.007812 17.691406 11.988281 Z M 19.769531 11.996094 C 19.8125 11.953125 19.855469 11.902344 19.894531 11.851562 C 19.855469 11.902344 19.8125 11.953125 19.769531 11.996094 Z M 19.628906 12.125 C 19.652344 12.105469 19.679688 12.085938 19.703125 12.0625 C 19.679688 12.085938 19.652344 12.105469 19.628906 12.125 Z M 12.601562 14.019531 C 14.007812 14.3125 15.875 14.472656 17.859375 14.472656 C 19.847656 14.472656 21.714844 14.3125 23.117188 14.019531 C 24.488281 13.734375 25.273438 13.347656 25.273438 12.960938 C 25.273438 12.570312 24.488281 12.183594 23.117188 11.898438 C 22.273438 11.722656 21.261719 11.597656 20.160156 11.523438 C 20.0625 11.769531 19.90625 11.984375 19.707031 12.148438 C 19.898438 12.214844 20.015625 12.304688 20.015625 12.398438 C 20.015625 12.605469 19.484375 12.769531 18.824219 12.769531 C 18.167969 12.769531 17.632812 12.605469 17.632812 12.398438 C 17.632812 12.324219 17.703125 12.257812 17.820312 12.199219 C 17.578125 12.011719 17.386719 11.753906 17.285156 11.453125 C 15.515625 11.480469 13.871094 11.636719 12.601562 11.898438 C 11.234375 12.183594 10.449219 12.570312 10.449219 12.960938 C 10.449219 13.347656 11.234375 13.734375 12.601562 14.019531 Z M 23.117188 14.460938 C 24.488281 14.179688 25.273438 13.792969 25.273438 13.402344 L 25.273438 13.179688 C 24.78125 13.960938 21.703125 14.542969 17.859375 14.542969 C 14.019531 14.542969 10.941406 13.960938 10.449219 13.179688 L 10.449219 13.402344 C 10.449219 13.792969 11.234375 14.179688 12.601562 14.460938 C 14.007812 14.753906 15.875 14.914062 17.859375 14.914062 C 19.847656 14.914062 21.714844 14.753906 23.117188 14.460938 Z M 34.929688 13.199219 C 34.910156 13.28125 34.890625 13.371094 34.867188 13.464844 C 34.785156 13.828125 34.695312 14.230469 34.535156 14.40625 C 34.648438 14.371094 34.746094 14.273438 34.832031 14.042969 C 35.015625 13.550781 35.171875 12.765625 35.226562 12.363281 C 35.25 12.183594 35.214844 12.011719 35.121094 11.851562 C 35.160156 12.191406 35.023438 12.824219 34.929688 13.199219 Z M 20.585938 27.078125 C 20.574219 27.0625 20.5625 27.050781 20.546875 27.035156 C 20.542969 27.03125 20.539062 27.027344 20.539062 27.023438 C 20.519531 27.007812 20.5 26.992188 20.480469 26.972656 C 20.476562 26.96875 20.472656 26.96875 20.46875 26.964844 C 20.453125 26.949219 20.4375 26.9375 20.417969 26.921875 C 20.410156 26.917969 20.40625 26.914062 20.398438 26.910156 C 20.378906 26.894531 20.363281 26.882812 20.34375 26.871094 C 20.335938 26.867188 20.332031 26.863281 20.328125 26.859375 C 20.300781 26.84375 20.273438 26.828125 20.246094 26.8125 C 20.246094 26.8125 20.242188 26.8125 20.242188 26.808594 C 20.214844 26.796875 20.1875 26.78125 20.160156 26.765625 C 20.152344 26.765625 20.148438 26.761719 20.140625 26.757812 C 20.117188 26.746094 20.089844 26.734375 20.066406 26.722656 C 20.058594 26.71875 20.050781 26.714844 20.046875 26.710938 C 19.980469 26.683594 19.910156 26.65625 19.839844 26.628906 C 19.832031 26.628906 19.824219 26.625 19.816406 26.621094 C 19.785156 26.613281 19.757812 26.601562 19.726562 26.59375 C 19.71875 26.589844 19.710938 26.585938 19.699219 26.585938 C 19.664062 26.570312 19.625 26.558594 19.585938 26.550781 C 19.597656 27.011719 19.371094 27.761719 17.625 28.023438 C 16.566406 28.183594 15.503906 27.914062 15.015625 27.484375 C 15.019531 27.5 15.027344 27.515625 15.03125 27.53125 C 15.03125 27.53125 15.03125 27.535156 15.03125 27.535156 C 15.039062 27.550781 15.046875 27.566406 15.050781 27.582031 C 15.054688 27.582031 15.054688 27.582031 15.054688 27.585938 C 15.0625 27.597656 15.070312 27.613281 15.078125 27.628906 C 15.082031 27.632812 15.082031 27.632812 15.082031 27.632812 C 15.089844 27.648438 15.101562 27.664062 15.113281 27.675781 C 15.113281 27.679688 15.117188 27.679688 15.117188 27.683594 C 15.128906 27.695312 15.140625 27.710938 15.152344 27.726562 C 15.152344 27.726562 15.15625 27.726562 15.15625 27.730469 C 15.167969 27.742188 15.183594 27.757812 15.199219 27.769531 C 15.199219 27.773438 15.199219 27.773438 15.203125 27.777344 C 15.214844 27.789062 15.230469 27.804688 15.25 27.816406 C 15.25 27.816406 15.25 27.820312 15.253906 27.820312 C 15.269531 27.835938 15.285156 27.847656 15.304688 27.863281 C 15.304688 27.863281 15.308594 27.863281 15.308594 27.863281 C 15.328125 27.878906 15.347656 27.890625 15.367188 27.90625 C 15.429688 27.945312 15.5 27.984375 15.578125 28.023438 C 15.679688 28.074219 15.792969 28.121094 15.917969 28.164062 C 15.921875 28.167969 15.925781 28.167969 15.929688 28.167969 C 15.953125 28.175781 15.980469 28.1875 16.003906 28.195312 C 16.011719 28.195312 16.019531 28.199219 16.03125 28.203125 C 16.050781 28.210938 16.074219 28.214844 16.097656 28.222656 C 16.109375 28.226562 16.121094 28.230469 16.136719 28.234375 C 16.15625 28.238281 16.179688 28.246094 16.203125 28.25 C 16.214844 28.253906 16.230469 28.257812 16.242188 28.261719 C 16.265625 28.269531 16.289062 28.273438 16.308594 28.277344 C 16.324219 28.28125 16.339844 28.285156 16.355469 28.289062 C 16.378906 28.292969 16.398438 28.300781 16.421875 28.304688 C 16.4375 28.308594 16.457031 28.3125 16.472656 28.316406 C 16.492188 28.320312 16.515625 28.324219 16.535156 28.328125 C 16.554688 28.332031 16.574219 28.335938 16.59375 28.339844 C 16.613281 28.34375 16.636719 28.347656 16.65625 28.351562 C 16.675781 28.351562 16.695312 28.355469 16.714844 28.359375 C 16.738281 28.363281 16.757812 28.367188 16.777344 28.371094 C 16.800781 28.371094 16.820312 28.375 16.84375 28.378906 C 16.863281 28.382812 16.882812 28.386719 16.90625 28.386719 C 16.925781 28.390625 16.949219 28.394531 16.972656 28.394531 C 16.992188 28.398438 17.011719 28.402344 17.035156 28.402344 C 17.058594 28.40625 17.082031 28.410156 17.105469 28.410156 C 17.125 28.414062 17.144531 28.414062 17.164062 28.417969 C 17.191406 28.417969 17.214844 28.421875 17.238281 28.421875 C 17.261719 28.425781 17.28125 28.425781 17.300781 28.429688 C 17.328125 28.429688 17.351562 28.433594 17.378906 28.433594 C 17.398438 28.433594 17.417969 28.4375 17.4375 28.4375 C 17.464844 28.4375 17.492188 28.441406 17.519531 28.441406 C 17.539062 28.441406 17.558594 28.441406 17.578125 28.445312 C 17.609375 28.445312 17.640625 28.445312 17.671875 28.445312 C 17.6875 28.445312 17.703125 28.449219 17.71875 28.449219 C 17.765625 28.449219 17.8125 28.449219 17.859375 28.449219 C 19.433594 28.449219 20.714844 27.972656 20.714844 27.390625 C 20.714844 27.371094 20.714844 27.351562 20.710938 27.332031 C 20.710938 27.328125 20.710938 27.320312 20.707031 27.316406 C 20.707031 27.304688 20.703125 27.289062 20.699219 27.277344 C 20.695312 27.269531 20.695312 27.265625 20.691406 27.257812 C 20.6875 27.242188 20.679688 27.226562 20.671875 27.210938 C 20.671875 27.207031 20.671875 27.207031 20.667969 27.203125 C 20.660156 27.183594 20.648438 27.167969 20.636719 27.148438 C 20.636719 27.144531 20.632812 27.140625 20.628906 27.132812 C 20.621094 27.121094 20.609375 27.105469 20.597656 27.09375 C 20.59375 27.089844 20.589844 27.082031 20.585938 27.078125 Z M 17.480469 27.171875 C 17.769531 27.375 18.019531 27.375 18.242188 27.175781 L 18.242188 21.324219 L 17.480469 22.992188 Z M 29.421875 24.378906 C 29.433594 24.4375 29.445312 24.5 29.457031 24.5625 C 29.609375 25.265625 30.042969 26.640625 30.132812 26.753906 C 30.15625 26.789062 30.226562 26.804688 30.324219 26.800781 C 30.464844 26.796875 30.597656 26.746094 30.613281 26.722656 C 30.609375 26.695312 30.539062 26.476562 30.460938 26.222656 C 30.324219 25.796875 30.121094 25.15625 29.988281 24.589844 C 29.964844 24.492188 29.941406 24.398438 29.921875 24.304688 C 29.917969 24.28125 29.910156 24.257812 29.90625 24.234375 C 29.886719 24.140625 29.867188 24.046875 29.847656 23.957031 C 29.847656 23.953125 29.84375 23.953125 29.84375 23.953125 C 29.828125 23.863281 29.808594 23.773438 29.789062 23.683594 C 29.785156 23.664062 29.78125 23.640625 29.777344 23.621094 C 29.761719 23.535156 29.742188 23.445312 29.726562 23.363281 L 29.386719 24.210938 C 29.398438 24.265625 29.410156 24.324219 29.421875 24.378906 Z M 9.425781 24.707031 C 9.425781 24.703125 9.425781 24.699219 9.425781 24.695312 C 9.425781 24.679688 9.425781 24.660156 9.425781 24.640625 C 9.425781 24.601562 9.425781 24.554688 9.425781 24.5 C 9.425781 24.417969 9.425781 24.316406 9.425781 24.203125 C 9.425781 24.175781 9.425781 24.152344 9.425781 24.125 C 9.425781 24.046875 9.425781 23.96875 9.425781 23.882812 C 9.421875 23.804688 9.421875 23.722656 9.421875 23.636719 C 9.421875 23.625 9.421875 23.613281 9.421875 23.597656 C 9.421875 23.457031 9.421875 23.304688 9.421875 23.148438 C 9.421875 23.121094 9.421875 23.09375 9.421875 23.066406 C 9.421875 23.007812 9.421875 22.953125 9.421875 22.894531 C 9.421875 22.878906 9.421875 22.863281 9.421875 22.847656 C 9.421875 22.796875 9.421875 22.75 9.421875 22.699219 C 9.421875 22.675781 9.421875 22.648438 9.421875 22.625 C 9.421875 22.621094 9.421875 22.617188 9.421875 22.613281 C 9.421875 22.597656 9.421875 22.578125 9.421875 22.5625 C 9.421875 22.335938 9.421875 22.109375 9.421875 21.882812 C 9.421875 21.878906 9.421875 21.871094 9.421875 21.867188 C 9.421875 21.714844 9.417969 21.566406 9.417969 21.417969 C 9.417969 21.019531 9.417969 20.644531 9.414062 20.335938 L 9.015625 20.824219 C 9.019531 21.007812 9.019531 21.1875 9.023438 21.359375 C 9.023438 21.359375 9.023438 21.363281 9.023438 21.363281 C 9.027344 22.050781 9.03125 22.636719 9.03125 23.109375 C 9.03125 23.113281 9.03125 23.113281 9.03125 23.117188 C 9.03125 23.230469 9.03125 23.339844 9.027344 23.441406 C 9.027344 23.449219 9.027344 23.453125 9.027344 23.460938 C 9.027344 23.507812 9.027344 23.554688 9.027344 23.601562 C 9.027344 23.605469 9.027344 23.609375 9.027344 23.613281 C 9.027344 23.65625 9.027344 23.695312 9.027344 23.734375 C 9.027344 23.742188 9.027344 23.75 9.027344 23.753906 C 9.027344 23.792969 9.027344 23.828125 9.027344 23.863281 C 9.027344 23.882812 9.027344 23.902344 9.027344 23.921875 C 9.027344 23.949219 9.027344 23.976562 9.027344 24.003906 C 9.023438 24.457031 9.023438 24.757812 9.03125 24.792969 C 9.054688 24.828125 9.167969 24.851562 9.285156 24.835938 C 9.382812 24.820312 9.421875 24.792969 9.425781 24.785156 C 9.425781 24.78125 9.425781 24.777344 9.425781 24.773438 C 9.425781 24.769531 9.425781 24.761719 9.425781 24.753906 C 9.425781 24.742188 9.425781 24.726562 9.425781 24.707031 Z M 9.425781 24.707031 " fill-opacity="1" fill-rule="nonzero"/></g></svg>