<svg xmlns="http://www.w3.org/2000/svg" xmlns:xlink="http://www.w3.org/1999/xlink" width="50" zoomAndPan="magnify" viewBox="0 0 37.5 37.499999" height="50" preserveAspectRatio="xMidYMid meet" version="1.0"><defs><clipPath id="7160b8b0b4"><path d="M 1.3125 7.183594 L 35.8125 7.183594 L 35.8125 33.433594 L 1.3125 33.433594 Z M 1.3125 7.183594 " clip-rule="nonzero"/></clipPath></defs><g clip-path="url(#7160b8b0b4)"><path fill="#000000" d="M 33.601562 30.296875 C 34.304688 30.246094 35.019531 30.316406 35.707031 30.132812 C 35.6875 22.664062 35.714844 15.195312 35.699219 7.726562 C 35.792969 7.230469 35.222656 7.183594 34.882812 7.210938 C 24.027344 7.214844 13.175781 7.21875 2.320312 7.210938 C 1.96875 7.1875 1.367188 7.207031 1.484375 7.738281 C 1.472656 15 1.476562 22.257812 1.484375 29.515625 C 1.332031 30.71875 2.890625 30.109375 3.59375 30.285156 C 2.914062 31.207031 1.917969 31.929688 1.4375 32.984375 C 1.988281 33.425781 2.777344 33.214844 3.425781 33.191406 C 4.5625 32.628906 5.585938 31.867188 6.683594 31.238281 C 7.417969 30.835938 8.097656 30.140625 9.003906 30.25 C 15.597656 30.28125 22.1875 30.226562 28.78125 30.273438 C 30.523438 31.085938 32.042969 32.335938 33.769531 33.195312 C 34.40625 33.210938 35.199219 33.433594 35.734375 32.980469 C 35.273438 31.933594 34.269531 31.214844 33.601562 30.296875 Z M 2.71875 32.511719 C 3.308594 31.746094 3.929688 30.992188 4.621094 30.308594 C 5.316406 30.191406 6.027344 30.261719 6.726562 30.261719 C 5.4375 31.074219 4.207031 32.125 2.71875 32.511719 Z M 2.242188 29.507812 C 2.242188 22.332031 2.242188 15.15625 2.242188 7.980469 C 4.21875 7.972656 6.191406 7.980469 8.164062 7.976562 C 8.164062 8.15625 8.164062 8.519531 8.164062 8.699219 C 6.695312 8.699219 5.234375 8.695312 3.769531 8.691406 C 3.445312 8.679688 2.867188 8.699219 2.972656 9.1875 C 2.949219 15.089844 2.976562 20.992188 2.960938 26.894531 C 2.960938 27.527344 2.90625 28.179688 3.125 28.789062 C 13.3125 28.738281 23.496094 28.792969 33.683594 28.761719 C 34.324219 28.886719 34.207031 28.160156 34.21875 27.769531 C 34.203125 21.578125 34.226562 15.386719 34.207031 9.199219 C 34.3125 8.71875 33.75 8.675781 33.425781 8.699219 C 25.261719 8.699219 17.101562 8.695312 8.941406 8.699219 C 8.9375 8.519531 8.933594 8.160156 8.933594 7.976562 C 17.601562 7.976562 26.265625 7.976562 34.933594 7.980469 C 34.941406 15.15625 34.933594 22.332031 34.933594 29.507812 C 24.039062 29.503906 13.140625 29.503906 2.242188 29.507812 Z M 30.453125 30.261719 C 31.15625 30.261719 31.867188 30.183594 32.566406 30.316406 C 33.253906 30.996094 33.871094 31.75 34.464844 32.515625 C 32.972656 32.121094 31.734375 31.082031 30.453125 30.261719 Z M 30.453125 30.261719 " fill-opacity="1" fill-rule="nonzero"/></g></svg>