<svg xmlns="http://www.w3.org/2000/svg" xmlns:xlink="http://www.w3.org/1999/xlink" width="50" zoomAndPan="magnify" viewBox="0 0 37.5 37.499999" height="50" preserveAspectRatio="xMidYMid meet" version="1.0"><defs><clipPath id="c0a8da7a90"><path d="M 3.867188 7.214844 L 33.867188 7.214844 L 33.867188 16 L 3.867188 16 Z M 3.867188 7.214844 " clip-rule="nonzero"/></clipPath><clipPath id="3271fbf344"><path d="M 16 25 L 22 25 L 22 30.464844 L 16 30.464844 Z M 16 25 " clip-rule="nonzero"/></clipPath></defs><g clip-path="url(#c0a8da7a90)"><path fill="#0097b2" d="M 33.863281 13.460938 C 33.375 12.96875 32.859375 12.503906 32.324219 12.0625 C 31.785156 11.621094 31.230469 11.207031 30.652344 10.820312 C 30.074219 10.433594 29.480469 10.074219 28.867188 9.746094 C 28.253906 9.417969 27.628906 9.121094 26.984375 8.855469 C 26.34375 8.589844 25.691406 8.355469 25.023438 8.152344 C 24.359375 7.949219 23.6875 7.78125 23.003906 7.644531 C 22.324219 7.507812 21.636719 7.40625 20.945312 7.339844 C 20.253906 7.269531 19.5625 7.238281 18.867188 7.238281 C 18.171875 7.238281 17.476562 7.269531 16.785156 7.339844 C 16.09375 7.40625 15.40625 7.507812 14.726562 7.644531 C 14.042969 7.78125 13.371094 7.949219 12.707031 8.152344 C 12.042969 8.355469 11.386719 8.589844 10.746094 8.855469 C 10.105469 9.121094 9.476562 9.417969 8.863281 9.746094 C 8.253906 10.074219 7.65625 10.433594 7.078125 10.820312 C 6.503906 11.207031 5.945312 11.621094 5.40625 12.0625 C 4.871094 12.503906 4.359375 12.96875 3.867188 13.460938 L 5.566406 15.160156 C 6 14.722656 6.457031 14.308594 6.933594 13.917969 C 7.40625 13.527344 7.902344 13.160156 8.414062 12.816406 C 8.925781 12.472656 9.453125 12.15625 9.996094 11.863281 C 10.539062 11.574219 11.097656 11.308594 11.664062 11.074219 C 12.234375 10.839844 12.816406 10.628906 13.402344 10.453125 C 13.992188 10.273438 14.589844 10.121094 15.195312 10.003906 C 15.800781 9.882812 16.410156 9.792969 17.023438 9.730469 C 17.636719 9.671875 18.25 9.640625 18.867188 9.640625 C 19.480469 9.640625 20.097656 9.671875 20.710938 9.730469 C 21.324219 9.792969 21.933594 9.882812 22.535156 10.003906 C 23.140625 10.121094 23.738281 10.273438 24.328125 10.453125 C 24.917969 10.628906 25.496094 10.839844 26.066406 11.074219 C 26.636719 11.308594 27.191406 11.574219 27.734375 11.863281 C 28.277344 12.15625 28.804688 12.472656 29.316406 12.816406 C 29.828125 13.160156 30.324219 13.527344 30.800781 13.917969 C 31.277344 14.308594 31.730469 14.722656 32.167969 15.160156 Z M 33.863281 13.460938 " fill-opacity="1" fill-rule="nonzero"/></g><path fill="#0097b2" d="M 29.617188 17.707031 C 28.914062 17 28.144531 16.367188 27.316406 15.8125 C 26.484375 15.257812 25.609375 14.785156 24.6875 14.402344 C 23.765625 14.019531 22.8125 13.730469 21.832031 13.535156 C 20.855469 13.339844 19.863281 13.242188 18.867188 13.242188 C 17.867188 13.242188 16.878906 13.339844 15.898438 13.535156 C 14.917969 13.730469 13.964844 14.019531 13.042969 14.402344 C 12.121094 14.785156 11.246094 15.257812 10.414062 15.8125 C 9.585938 16.367188 8.816406 17 8.113281 17.707031 L 9.808594 19.40625 C 10.402344 18.808594 11.050781 18.277344 11.75 17.808594 C 12.449219 17.34375 13.1875 16.949219 13.964844 16.625 C 14.738281 16.300781 15.542969 16.058594 16.367188 15.894531 C 17.191406 15.730469 18.023438 15.648438 18.863281 15.648438 C 19.707031 15.648438 20.539062 15.730469 21.363281 15.894531 C 22.1875 16.058594 22.988281 16.300781 23.765625 16.625 C 24.542969 16.949219 25.28125 17.34375 25.980469 17.808594 C 26.679688 18.277344 27.324219 18.808594 27.917969 19.40625 Z M 29.617188 17.707031 " fill-opacity="1" fill-rule="nonzero"/><path fill="#0097b2" d="M 25.375 21.953125 C 24.949219 21.523438 24.484375 21.144531 23.980469 20.808594 C 23.476562 20.46875 22.949219 20.1875 22.390625 19.953125 C 21.832031 19.722656 21.253906 19.546875 20.664062 19.429688 C 20.070312 19.3125 19.46875 19.253906 18.867188 19.253906 C 18.261719 19.253906 17.664062 19.3125 17.070312 19.429688 C 16.476562 19.546875 15.902344 19.722656 15.34375 19.953125 C 14.785156 20.1875 14.253906 20.46875 13.75 20.808594 C 13.25 21.144531 12.785156 21.523438 12.355469 21.953125 L 14.050781 23.648438 C 14.367188 23.332031 14.710938 23.050781 15.082031 22.800781 C 15.457031 22.554688 15.847656 22.34375 16.261719 22.171875 C 16.671875 22.003906 17.097656 21.875 17.539062 21.785156 C 17.976562 21.699219 18.417969 21.65625 18.867188 21.65625 C 19.3125 21.65625 19.753906 21.699219 20.191406 21.785156 C 20.632812 21.875 21.058594 22.003906 21.46875 22.171875 C 21.882812 22.34375 22.277344 22.554688 22.648438 22.800781 C 23.019531 23.050781 23.363281 23.332031 23.679688 23.648438 Z M 25.375 21.953125 " fill-opacity="1" fill-rule="nonzero"/><g clip-path="url(#3271fbf344)"><path fill="#0097b2" d="M 21.46875 27.839844 C 21.46875 28.183594 21.402344 28.515625 21.269531 28.835938 C 21.136719 29.152344 20.949219 29.433594 20.707031 29.679688 C 20.460938 29.921875 20.179688 30.109375 19.863281 30.242188 C 19.542969 30.375 19.210938 30.441406 18.867188 30.441406 C 18.519531 30.441406 18.1875 30.375 17.871094 30.242188 C 17.550781 30.109375 17.269531 29.921875 17.027344 29.679688 C 16.78125 29.433594 16.59375 29.152344 16.460938 28.835938 C 16.328125 28.515625 16.261719 28.183594 16.261719 27.839844 C 16.261719 27.492188 16.328125 27.160156 16.460938 26.839844 C 16.59375 26.523438 16.78125 26.242188 17.027344 25.996094 C 17.269531 25.753906 17.550781 25.566406 17.871094 25.433594 C 18.1875 25.300781 18.519531 25.234375 18.867188 25.234375 C 19.210938 25.234375 19.542969 25.300781 19.863281 25.433594 C 20.179688 25.566406 20.460938 25.753906 20.707031 25.996094 C 20.949219 26.242188 21.136719 26.523438 21.269531 26.839844 C 21.402344 27.160156 21.46875 27.492188 21.46875 27.839844 Z M 21.46875 27.839844 " fill-opacity="1" fill-rule="nonzero"/></g></svg>