<svg xmlns="http://www.w3.org/2000/svg" xmlns:xlink="http://www.w3.org/1999/xlink" width="1024" zoomAndPan="magnify" viewBox="0 0 768 767.999994" height="1024" preserveAspectRatio="xMidYMid meet" version="1.0"><rect x="-76.8" width="921.6" fill="#ffffff" y="-76.799999" height="921.599993" fill-opacity="1"/><rect x="-76.8" width="921.6" fill="#ffffff" y="-76.799999" height="921.599993" fill-opacity="1"/><path fill="#008037" d="M 109.867188 120.242188 C 111.199219 140.101562 113.929688 159.941406 117.058594 179.574219 C 123.054688 217.191406 131.542969 254.96875 146.222656 290.210938 C 159.300781 321.585938 179.132812 356.359375 213.828125 366.917969 C 257.375 380.183594 299.71875 343.988281 327.21875 314.941406 C 354.765625 285.828125 380.636719 245.347656 362.585938 204.710938 C 348.101562 172.125 310.152344 154.34375 278.789062 142.546875 C 228.59375 123.648438 173.097656 114.054688 119.648438 110.464844 C 107.050781 109.625 107.128906 129.183594 119.644531 130.019531 C 125.113281 130.386719 130.578125 130.9375 136.03125 131.503906 C 151.113281 133.082031 160.910156 134.425781 175.785156 136.832031 C 212.78125 142.832031 251.433594 151.453125 285.25 166.042969 C 301.253906 172.957031 317.300781 181.808594 329.238281 192.648438 C 335.570312 198.40625 338.980469 202.503906 342.875 209.105469 C 345.019531 212.75 345.769531 214.609375 346.664062 217.113281 C 347.257812 218.773438 347.726562 220.460938 348.148438 222.148438 C 348.429688 223.214844 349.242188 228.171875 349.039062 226.546875 C 351.136719 243.878906 344.253906 259.613281 334.429688 274.878906 C 320.304688 296.839844 300.21875 316.785156 278.976562 331.847656 C 263.679688 342.703125 246.941406 350.605469 229.550781 349.929688 C 227.28125 349.835938 226.203125 349.679688 225.890625 349.632812 C 224.136719 349.367188 222.417969 348.960938 220.710938 348.539062 C 219.007812 348.101562 217.347656 347.554688 215.691406 346.976562 C 215.472656 346.898438 212.796875 345.800781 214.78125 346.644531 C 213.703125 346.191406 212.65625 345.675781 211.609375 345.160156 C 204.066406 341.40625 200.5 338.386719 194.699219 332.617188 C 170.0625 308.058594 157.765625 269.859375 148.6875 235.695312 C 138.242188 196.449219 132.042969 159.347656 129.421875 120.242188 C 128.582031 107.730469 109.023438 107.648438 109.867188 120.242188 " fill-opacity="1" fill-rule="nonzero"/><path fill="#008037" d="M 226.34375 300.972656 C 230.800781 296.199219 235.929688 292.617188 242.3125 289.929688 C 258.847656 282.96875 274.050781 289.003906 286.472656 300.972656 C 295.542969 309.714844 309.386719 295.902344 300.296875 287.144531 C 284.21875 271.640625 263.898438 263.304688 241.75 269.453125 C 231.050781 272.425781 220.132812 278.992188 212.515625 287.144531 C 203.894531 296.324219 217.707031 310.183594 226.34375 300.972656 " fill-opacity="1" fill-rule="nonzero"/><path fill="#008037" d="M 286.535156 213.109375 C 273.363281 225.449219 265.136719 244.769531 266.902344 262.789062 C 269.234375 286.441406 287.566406 301.910156 303.300781 317.644531 C 312.234375 326.578125 326.0625 312.75 317.128906 303.816406 C 304.945312 291.632812 289.835938 279.886719 286.394531 262.132812 C 283.921875 249.382812 291.867188 234.898438 300.359375 226.9375 C 309.589844 218.285156 295.730469 204.492188 286.535156 213.109375 " fill-opacity="1" fill-rule="nonzero"/><path fill="#008037" d="M 654.65625 645.460938 C 653.3125 625.609375 650.589844 605.773438 647.460938 586.128906 C 641.46875 548.523438 632.976562 510.75 618.289062 475.507812 C 605.210938 444.128906 585.378906 409.355469 550.699219 398.796875 C 507.136719 385.53125 464.792969 421.714844 437.292969 450.777344 C 409.746094 479.886719 383.875 520.367188 401.925781 560.992188 C 416.410156 593.589844 454.359375 611.359375 485.722656 623.167969 C 535.917969 642.066406 591.414062 651.652344 644.878906 655.234375 C 657.472656 656.097656 657.394531 636.527344 644.878906 635.683594 C 639.40625 635.324219 633.929688 634.777344 628.488281 634.210938 C 613.410156 632.632812 603.601562 631.289062 588.742188 628.878906 C 551.730469 622.871094 513.078125 614.253906 479.261719 599.660156 C 463.257812 592.761719 447.210938 583.90625 435.273438 573.050781 C 428.957031 567.3125 425.53125 563.210938 421.636719 556.613281 C 419.492188 552.96875 418.742188 551.105469 417.851562 548.585938 C 417.269531 546.945312 416.785156 545.253906 416.363281 543.550781 C 416.097656 542.503906 415.269531 537.542969 415.472656 539.171875 C 413.390625 521.824219 420.257812 506.101562 430.082031 490.835938 C 444.222656 468.875 464.292969 448.929688 485.550781 433.851562 C 500.832031 423.011719 517.585938 415.097656 534.960938 415.785156 C 537.230469 415.863281 538.308594 416.035156 538.621094 416.082031 C 540.375 416.347656 542.09375 416.738281 543.816406 417.175781 C 545.503906 417.613281 547.164062 418.164062 548.820312 418.742188 C 549.039062 418.820312 551.714844 419.914062 549.730469 419.054688 C 550.808594 419.523438 551.855469 420.023438 552.902344 420.554688 C 560.445312 424.308594 564.011719 427.3125 569.8125 433.101562 C 594.449219 457.644531 606.746094 495.855469 615.832031 530.019531 C 626.265625 569.265625 632.476562 606.371094 635.105469 645.460938 C 635.933594 657.972656 655.484375 658.066406 654.65625 645.460938 " fill-opacity="1" fill-rule="nonzero"/><path fill="#008037" d="M 538.183594 464.746094 C 533.710938 469.515625 528.582031 473.097656 522.199219 475.789062 C 505.664062 482.75 490.460938 476.710938 478.039062 464.746094 C 468.96875 456 455.125 469.8125 464.230469 478.574219 C 480.292969 494.074219 500.613281 502.410156 522.761719 496.265625 C 533.460938 493.292969 544.378906 486.707031 551.996094 478.574219 C 560.617188 469.375 546.820312 455.53125 538.183594 464.746094 " fill-opacity="1" fill-rule="nonzero"/><path fill="#008037" d="M 477.976562 552.605469 C 491.148438 540.265625 499.375 520.949219 497.609375 502.925781 C 495.277344 479.261719 476.945312 463.789062 461.210938 448.070312 C 452.277344 439.140625 438.464844 452.964844 447.382812 461.882812 C 459.582031 474.082031 474.679688 485.816406 478.117188 503.585938 C 480.605469 516.332031 472.644531 530.816406 464.152344 538.78125 C 454.9375 547.414062 468.78125 561.210938 477.976562 552.605469 " fill-opacity="1" fill-rule="nonzero"/><path fill="#008037" d="M 119.679688 655.203125 C 139.546875 653.875 159.378906 651.136719 179.023438 648.007812 C 216.628906 642.019531 254.40625 633.539062 289.644531 618.851562 C 321.023438 605.773438 355.796875 585.941406 366.355469 551.261719 C 379.621094 507.699219 343.441406 465.355469 314.375 437.855469 C 285.265625 410.308594 244.785156 384.4375 204.160156 402.488281 C 171.5625 416.972656 153.789062 454.921875 141.984375 486.285156 C 123.089844 536.480469 113.492188 591.976562 109.90625 645.429688 C 109.0625 658.019531 128.621094 657.941406 129.457031 645.429688 C 129.824219 639.953125 130.375 634.492188 130.949219 629.035156 C 132.523438 613.957031 133.863281 604.164062 136.277344 589.289062 C 142.277344 552.292969 150.898438 513.640625 165.496094 479.824219 C 172.390625 463.820312 181.246094 447.773438 192.101562 435.839844 C 197.84375 429.519531 201.941406 426.09375 208.542969 422.199219 C 212.1875 420.054688 214.046875 419.304688 216.566406 418.414062 C 218.207031 417.816406 219.898438 417.347656 221.585938 416.925781 C 222.652344 416.660156 227.609375 415.832031 225.984375 416.035156 C 243.328125 413.953125 259.050781 420.820312 274.316406 430.644531 C 296.277344 444.785156 316.222656 464.855469 331.300781 486.113281 C 342.140625 501.394531 350.054688 518.132812 349.367188 535.527344 C 349.273438 537.792969 349.117188 538.875 349.070312 539.1875 C 348.804688 540.9375 348.398438 542.660156 347.976562 544.378906 C 347.539062 546.070312 346.992188 547.726562 346.410156 549.382812 C 346.332031 549.605469 345.238281 552.277344 346.097656 550.292969 C 345.628906 551.371094 345.113281 552.417969 344.597656 553.46875 C 340.84375 561.007812 337.839844 564.574219 332.050781 570.375 C 307.492188 595.011719 269.296875 607.308594 235.132812 616.394531 C 195.886719 626.828125 158.785156 633.039062 119.679688 635.652344 C 107.175781 636.496094 107.089844 656.046875 119.679688 655.203125 " fill-opacity="1" fill-rule="nonzero"/><path fill="#008037" d="M 300.40625 538.734375 C 295.636719 534.273438 292.054688 529.144531 289.363281 522.761719 C 282.402344 506.210938 288.441406 491.023438 300.40625 478.621094 C 309.152344 469.546875 295.339844 455.6875 286.582031 464.792969 C 271.078125 480.855469 262.742188 501.175781 268.890625 523.308594 C 271.859375 534.007812 278.445312 544.941406 286.582031 552.558594 C 295.777344 561.179688 309.621094 547.382812 300.40625 538.734375 " fill-opacity="1" fill-rule="nonzero"/><path fill="#008037" d="M 212.546875 478.542969 C 224.886719 491.710938 244.207031 499.941406 262.226562 498.171875 C 285.890625 495.839844 301.363281 477.507812 317.082031 461.773438 C 326.015625 452.839844 312.1875 439.011719 303.269531 447.945312 C 291.070312 460.128906 279.324219 475.242188 261.570312 478.683594 C 248.820312 481.152344 234.335938 473.207031 226.375 464.714844 C 217.738281 455.484375 203.941406 469.34375 212.546875 478.542969 " fill-opacity="1" fill-rule="nonzero"/><path fill="#008037" d="M 644.910156 110.429688 C 625.046875 111.761719 605.210938 114.488281 585.582031 117.621094 C 547.960938 123.609375 510.183594 132.101562 474.945312 146.785156 C 443.566406 159.863281 408.792969 179.699219 398.234375 214.375 C 384.96875 257.941406 421.148438 300.28125 450.214844 327.78125 C 479.324219 355.328125 519.804688 381.199219 560.445312 363.148438 C 593.027344 348.664062 610.796875 310.714844 622.605469 279.355469 C 641.5 229.15625 651.105469 173.660156 654.6875 120.210938 C 655.53125 107.613281 635.964844 107.691406 635.136719 120.207031 C 634.761719 125.675781 634.210938 131.136719 633.648438 136.585938 C 632.070312 151.675781 630.722656 161.472656 628.316406 176.335938 C 622.324219 213.34375 613.707031 251.996094 599.109375 285.8125 C 592.199219 301.816406 583.34375 317.863281 572.488281 329.800781 C 566.746094 336.121094 562.648438 339.542969 556.046875 343.441406 C 552.402344 345.582031 550.542969 346.332031 548.039062 347.226562 C 546.382812 347.820312 544.691406 348.289062 543.003906 348.710938 C 541.9375 348.976562 536.980469 349.789062 538.605469 349.601562 C 521.261719 351.699219 505.539062 344.816406 490.273438 334.992188 C 468.3125 320.851562 448.367188 300.785156 433.304688 279.542969 C 422.449219 264.242188 414.535156 247.507812 415.222656 230.113281 C 415.316406 227.84375 415.472656 226.765625 415.519531 226.453125 C 415.785156 224.699219 416.175781 222.980469 416.613281 221.273438 C 417.050781 219.570312 417.597656 217.894531 418.179688 216.253906 C 418.257812 216.035156 419.351562 213.359375 418.507812 215.347656 C 418.960938 214.265625 419.476562 213.21875 419.992188 212.171875 C 423.746094 204.632812 426.75 201.066406 432.539062 195.261719 C 457.097656 170.625 495.292969 158.332031 529.457031 149.242188 C 568.703125 138.804688 605.804688 132.601562 644.910156 129.984375 C 657.425781 129.140625 657.503906 109.582031 644.910156 110.429688 " fill-opacity="1" fill-rule="nonzero"/><path fill="#008037" d="M 464.183594 226.890625 C 468.953125 231.363281 472.535156 236.496094 475.226562 242.875 C 482.1875 259.410156 476.148438 274.613281 464.183594 287.019531 C 455.4375 296.105469 469.25 309.933594 478.007812 300.847656 C 493.511719 284.78125 501.847656 264.460938 495.699219 242.3125 C 492.730469 231.613281 486.144531 220.695312 478.007812 213.0625 C 468.8125 204.460938 454.96875 218.253906 464.183594 226.890625 " fill-opacity="1" fill-rule="nonzero"/><path fill="#008037" d="M 552.042969 287.097656 C 539.703125 273.925781 520.382812 265.699219 502.363281 267.464844 C 478.714844 269.796875 463.226562 288.128906 447.507812 303.863281 C 438.574219 312.78125 452.402344 326.609375 461.335938 317.691406 C 473.519531 305.492188 485.265625 290.398438 503.019531 286.957031 C 515.769531 284.484375 530.253906 292.429688 538.214844 300.925781 C 546.851562 310.152344 560.648438 296.292969 552.042969 287.097656 " fill-opacity="1" fill-rule="nonzero"/><path fill="#008037" d="M 293.621094 308.121094 L 443.425781 457.925781 C 443.488281 457.988281 443.535156 458.050781 443.597656 458.097656 C 452.527344 467.027344 466.355469 453.199219 457.425781 444.269531 L 307.621094 294.464844 C 307.558594 294.417969 307.507812 294.355469 307.445312 294.292969 C 298.53125 285.375 284.703125 299.203125 293.621094 308.121094 " fill-opacity="1" fill-rule="nonzero"/><path fill="#008037" d="M 450.417969 300.972656 L 300.613281 450.777344 C 300.550781 450.824219 300.503906 450.886719 300.441406 450.949219 C 291.523438 459.863281 305.351562 473.691406 314.265625 464.761719 C 364.210938 414.832031 414.140625 364.902344 464.074219 314.957031 C 464.136719 314.910156 464.183594 314.847656 464.246094 314.800781 C 473.175781 305.867188 459.347656 292.039062 450.417969 300.972656 " fill-opacity="1" fill-rule="nonzero"/><path fill="#008037" d="M 3.019531 388.378906 C 15.269531 402.410156 32.589844 412.859375 49.957031 419.039062 C 88.507812 432.742188 126.53125 415.582031 154.246094 388.378906 C 158.140625 384.5625 157.875 378.414062 154.246094 374.566406 C 127.570312 346.144531 91.414062 333.882812 53.640625 345.378906 C 35.308594 350.949219 16.996094 361.351562 3.019531 374.566406 C -6.164062 383.234375 7.6875 397.03125 16.847656 388.378906 C 26.839844 378.949219 41.097656 370.46875 55.609375 365.308594 C 68.28125 360.769531 81.957031 358.910156 95.277344 361.289062 C 113.296875 364.511719 128.132812 375.304688 140.425781 388.378906 L 140.425781 374.566406 C 115.984375 398.546875 85.445312 411.59375 52.136719 399.078125 C 38.734375 394.042969 26.164062 385.234375 16.847656 374.566406 C 8.535156 365.042969 -5.238281 378.933594 3.019531 388.378906 " fill-opacity="1" fill-rule="nonzero"/><path fill="#008037" d="M 374.566406 16.839844 C 385.34375 26.253906 393.777344 38.707031 399.078125 52.132812 C 412.125 85.101562 398.203125 116.339844 374.566406 140.417969 L 388.394531 140.417969 C 375.050781 127.894531 365.027344 113.386719 361.304688 95.269531 C 358.566406 82.035156 361.023438 68.214844 365.308594 55.609375 C 368.796875 45.335938 374.300781 35.746094 380.449219 26.847656 C 383.171875 22.902344 384.65625 20.78125 388.394531 16.839844 C 397.03125 7.679688 383.234375 -6.164062 374.566406 3.019531 C 361.242188 17.125 351.292969 35.273438 345.378906 53.636719 C 333.320312 91.078125 346.519531 127.910156 374.566406 154.246094 C 378.414062 157.859375 384.578125 158.140625 388.394531 154.246094 C 416.019531 126.101562 432.117188 88.902344 419.039062 49.957031 C 413.21875 32.617188 402.269531 15.140625 388.394531 3.019531 C 378.933594 -5.242188 365.058594 8.53125 374.566406 16.839844 " fill-opacity="1" fill-rule="nonzero"/><path fill="#008037" d="M 393.433594 751.152344 C 382.65625 741.753906 374.222656 729.285156 368.921875 715.863281 C 355.890625 682.890625 369.8125 651.652344 393.433594 627.582031 L 379.621094 627.582031 C 392.964844 640.109375 402.972656 654.609375 406.710938 672.722656 C 409.433594 685.957031 406.976562 699.785156 402.707031 712.390625 C 399.21875 722.667969 393.714844 732.257812 387.566406 741.15625 C 384.828125 745.101562 383.34375 747.210938 379.621094 751.152344 C 370.96875 760.320312 384.765625 774.164062 393.433594 764.980469 C 406.773438 750.871094 416.707031 732.726562 422.621094 714.363281 C 434.679688 676.914062 421.480469 640.078125 393.433594 613.753906 C 389.585938 610.125 383.4375 609.859375 379.621094 613.753906 C 351.996094 641.894531 335.882812 679.089844 348.960938 718.039062 C 354.78125 735.386719 365.730469 752.859375 379.621094 764.980469 C 389.066406 773.238281 402.957031 759.460938 393.433594 751.152344 " fill-opacity="1" fill-rule="nonzero"/><path fill="#008037" d="M 764.980469 379.605469 C 752.734375 365.589844 735.417969 355.140625 718.054688 348.960938 C 679.496094 335.242188 641.46875 352.402344 613.753906 379.605469 C 609.859375 383.421875 610.140625 389.585938 613.753906 393.433594 C 640.4375 421.855469 676.585938 434.101562 714.363281 422.621094 C 732.695312 417.050781 750.996094 406.632812 764.980469 393.433594 C 774.179688 384.765625 760.320312 370.96875 751.152344 379.605469 C 741.15625 389.050781 726.90625 397.515625 712.390625 402.707031 C 699.722656 407.230469 686.050781 409.089844 672.722656 406.710938 C 654.703125 403.488281 639.875 392.695312 627.582031 379.605469 L 627.582031 393.433594 C 652.027344 369.453125 682.5625 356.40625 715.863281 368.921875 C 729.269531 373.957031 741.832031 382.765625 751.152344 393.433594 C 759.476562 402.957031 773.238281 389.066406 764.980469 379.605469 " fill-opacity="1" fill-rule="nonzero"/></svg>