<svg xmlns="http://www.w3.org/2000/svg" width="200" viewBox="0 0 222 90" height="90" version="1.0"><defs><clipPath id="a"><path d="M 56 14.253906 L 164 14.253906 L 164 26.253906 L 56 26.253906 Z M 56 14.253906"/></clipPath></defs><g clip-path="url(#a)"><path fill="#FFFFFF" d="M 163.402344 26.199219 C 163.265625 26.140625 163.140625 26.066406 163.027344 25.964844 C 162.9375 25.890625 162.832031 25.835938 162.71875 25.804688 C 162.585938 25.75 162.449219 25.710938 162.308594 25.683594 C 162.125 25.65625 161.9375 25.652344 161.753906 25.671875 C 161.578125 25.703125 161.636719 25.714844 161.667969 25.804688 C 161.625 25.808594 161.578125 25.808594 161.53125 25.804688 C 161.472656 25.777344 161.523438 25.753906 161.496094 25.734375 C 161.472656 25.714844 161.421875 25.628906 161.382812 25.707031 C 161.226562 25.660156 161.070312 25.621094 160.910156 25.59375 C 160.84375 25.570312 160.558594 25.429688 160.589844 25.378906 C 160.496094 25.390625 160.40625 25.382812 160.320312 25.351562 C 160.179688 25.308594 160.175781 25.246094 160.066406 25.195312 C 160.019531 25.191406 159.972656 25.1875 159.925781 25.179688 C 159.894531 25.167969 159.882812 25.148438 159.882812 25.125 C 159.820312 25.082031 159.753906 25.039062 159.683594 25.003906 C 159.511719 24.925781 159.308594 24.914062 159.125 24.84375 C 159.046875 24.8125 158.90625 24.757812 158.835938 24.722656 C 158.8125 24.707031 158.835938 24.664062 158.792969 24.644531 C 158.6875 24.609375 158.585938 24.605469 158.480469 24.636719 L 158.238281 24.625 C 158.234375 24.601562 158.222656 24.582031 158.203125 24.566406 C 158.117188 24.5 158.023438 24.46875 157.917969 24.472656 C 157.730469 24.464844 157.527344 24.5625 157.4375 24.441406 C 157.394531 24.378906 157.460938 24.324219 157.367188 24.257812 C 157.28125 24.21875 157.191406 24.191406 157.097656 24.171875 C 156.9375 24.097656 156.769531 24.035156 156.597656 23.988281 C 156.511719 23.980469 156.429688 23.964844 156.347656 23.941406 C 156.265625 23.902344 156.179688 23.871094 156.09375 23.84375 C 155.925781 23.8125 155.984375 23.90625 155.898438 23.769531 C 155.859375 23.691406 155.792969 23.644531 155.703125 23.628906 C 155.664062 23.617188 155.621094 23.609375 155.578125 23.597656 C 155.53125 23.59375 155.488281 23.601562 155.449219 23.621094 C 155.363281 23.601562 155.269531 23.476562 155.214844 23.429688 C 155.070312 23.304688 154.949219 23.179688 154.816406 23.050781 C 154.6875 22.921875 154.558594 22.945312 154.375 22.90625 C 154.128906 22.855469 154.136719 22.734375 153.972656 22.648438 C 153.890625 22.617188 153.808594 22.585938 153.730469 22.546875 C 153.703125 22.527344 153.730469 22.386719 153.621094 22.5 C 153.578125 22.417969 153.535156 22.304688 153.390625 22.265625 C 153.234375 22.253906 153.085938 22.222656 152.9375 22.175781 C 152.863281 22.128906 152.910156 22.0625 152.792969 22.023438 C 152.71875 22 152.59375 22.035156 152.535156 22.003906 C 152.476562 21.972656 152.519531 21.933594 152.460938 21.90625 C 152.394531 21.902344 152.332031 21.902344 152.269531 21.90625 L 152.257812 21.847656 L 152.140625 21.878906 C 152.054688 21.765625 151.953125 21.789062 151.746094 21.785156 C 151.609375 21.785156 151.425781 21.820312 151.308594 21.8125 C 151.121094 21.867188 150.9375 21.933594 150.757812 22.015625 C 150.46875 22.113281 150.179688 22.199219 149.875 22.285156 C 149.59375 22.359375 149.3125 22.441406 149.027344 22.515625 C 148.816406 22.566406 148.910156 22.515625 148.765625 22.457031 C 148.660156 22.410156 148.582031 22.449219 148.464844 22.445312 C 148.351562 22.445312 148.265625 22.398438 148.167969 22.445312 C 148.074219 22.492188 148.160156 22.496094 148.125 22.539062 C 148.058594 22.621094 148.070312 22.582031 147.917969 22.578125 C 147.773438 22.574219 147.636719 22.59375 147.503906 22.636719 C 147.230469 22.710938 146.957031 22.773438 146.679688 22.820312 C 146.34375 22.816406 146.015625 22.777344 145.6875 22.699219 C 145.785156 22.675781 145.464844 22.683594 145.4375 22.675781 C 145.332031 22.652344 145.304688 22.585938 145.214844 22.542969 C 145.125 22.5 144.78125 22.386719 145.0625 22.347656 C 145.007812 22.316406 144.949219 22.292969 144.890625 22.273438 C 144.816406 22.277344 144.847656 22.347656 144.71875 22.339844 C 144.597656 22.308594 144.476562 22.269531 144.355469 22.21875 C 144.378906 22.265625 144.175781 22.242188 144.148438 22.230469 C 144.160156 22.195312 144.203125 22.195312 144.253906 22.1875 C 144.214844 22.171875 144.175781 22.160156 144.136719 22.152344 C 144.171875 22.207031 144.160156 22.175781 144.097656 22.179688 C 144.035156 22.183594 143.9375 22.164062 143.867188 22.164062 C 143.734375 22.175781 143.605469 22.199219 143.476562 22.234375 C 143.460938 22.15625 143.414062 22.097656 143.339844 22.0625 L 143.207031 22.011719 C 143.191406 22.011719 143.207031 21.992188 143.167969 21.980469 C 143.121094 21.96875 143.074219 21.96875 143.027344 21.972656 C 142.921875 22 142.949219 22.128906 142.796875 22.042969 C 142.855469 22.015625 142.875 21.988281 142.945312 22.007812 C 142.628906 21.984375 142.320312 22.019531 142.015625 22.105469 C 142.054688 22.046875 142.203125 22.078125 142.171875 21.996094 C 142.140625 22.027344 142.101562 22.042969 142.054688 22.035156 C 142.128906 21.996094 142.207031 21.96875 142.289062 21.953125 C 142.234375 21.957031 142.179688 21.960938 142.125 21.96875 C 142.066406 21.964844 142.003906 21.957031 141.945312 21.945312 C 141.789062 21.921875 141.632812 21.917969 141.472656 21.925781 C 141.179688 21.941406 141.347656 21.859375 141.125 21.808594 C 140.984375 21.777344 140.753906 21.910156 140.816406 21.75 C 140.703125 21.796875 140.59375 21.796875 140.480469 21.75 C 140.410156 21.714844 140.410156 21.679688 140.324219 21.667969 C 140.238281 21.660156 140.113281 21.699219 140.015625 21.699219 C 139.886719 21.699219 139.761719 21.675781 139.601562 21.667969 C 139.644531 21.664062 139.679688 21.644531 139.707031 21.609375 C 139.652344 21.625 139.601562 21.625 139.546875 21.609375 C 139.570312 21.597656 139.566406 21.601562 139.574219 21.589844 C 139.503906 21.636719 139.425781 21.648438 139.34375 21.628906 C 139.296875 21.625 139.253906 21.621094 139.207031 21.609375 C 139.152344 21.589844 139.261719 21.539062 139.160156 21.539062 C 139.09375 21.539062 139.027344 21.613281 138.957031 21.632812 C 138.769531 21.675781 138.585938 21.652344 138.414062 21.566406 C 138.351562 21.546875 138.292969 21.523438 138.234375 21.496094 C 138.117188 21.417969 138.210938 21.515625 138.214844 21.402344 C 138.214844 21.269531 138.125 21.304688 137.949219 21.230469 C 137.902344 21.210938 137.847656 21.179688 137.808594 21.160156 C 137.800781 21.152344 137.746094 21.175781 137.730469 21.175781 C 137.691406 21.15625 137.664062 21.082031 137.625 21.050781 C 137.285156 20.875 136.929688 20.746094 136.554688 20.667969 C 136.378906 20.613281 136.203125 20.550781 136.019531 20.507812 C 135.832031 20.496094 135.652344 20.515625 135.472656 20.574219 C 135.253906 20.613281 135.039062 20.671875 134.828125 20.742188 C 134.800781 20.726562 134.769531 20.71875 134.738281 20.71875 C 134.839844 20.695312 134.839844 20.648438 134.738281 20.582031 C 134.710938 20.648438 134.566406 20.589844 134.4375 20.589844 C 134.5 20.527344 133.839844 20.324219 133.78125 20.300781 C 133.675781 20.261719 133.578125 20.214844 133.484375 20.148438 C 133.371094 20.058594 133.410156 20.011719 133.328125 19.90625 C 133.183594 19.710938 132.898438 19.65625 132.71875 19.5 C 132.632812 19.40625 132.535156 19.324219 132.429688 19.253906 C 132.226562 19.136719 132.007812 19.097656 131.773438 19.136719 C 131.441406 19.160156 131.339844 19.171875 131.101562 18.953125 C 131.015625 18.875 130.941406 18.785156 130.882812 18.683594 C 130.832031 18.582031 130.851562 18.460938 130.800781 18.371094 C 130.667969 18.140625 130.394531 18.230469 130.171875 18.226562 C 129.914062 18.226562 129.78125 18.066406 129.578125 17.964844 C 129.394531 17.875 129.214844 17.765625 129.023438 17.683594 C 128.765625 17.566406 128.640625 17.707031 128.382812 17.675781 C 128.21875 17.65625 128.15625 17.574219 128.023438 17.519531 C 127.992188 17.480469 127.949219 17.457031 127.898438 17.457031 C 127.863281 17.441406 127.828125 17.445312 127.792969 17.464844 C 127.761719 17.488281 127.742188 17.515625 127.738281 17.554688 C 127.601562 17.570312 127.472656 17.546875 127.347656 17.492188 C 127.160156 17.441406 127.042969 17.511719 126.867188 17.476562 C 126.738281 17.449219 126.609375 17.328125 126.496094 17.335938 C 126.390625 17.359375 126.292969 17.398438 126.203125 17.457031 C 126.320312 17.507812 126.363281 17.507812 126.433594 17.617188 L 126.277344 17.582031 C 126.21875 17.570312 126.1875 17.59375 126.179688 17.65625 C 126.042969 17.695312 126.066406 17.722656 125.914062 17.632812 C 125.8125 17.558594 125.726562 17.464844 125.660156 17.355469 C 125.578125 17.261719 125.488281 17.179688 125.390625 17.101562 L 125.574219 17.117188 C 125.433594 16.964844 123.886719 16.195312 123.925781 16.136719 C 123.832031 16.144531 123.816406 15.929688 123.703125 15.839844 C 123.585938 15.753906 123.480469 15.832031 123.382812 15.75 C 123.332031 15.703125 123.378906 15.621094 123.339844 15.578125 C 123.304688 15.53125 123.261719 15.511719 123.222656 15.472656 C 123.125 15.371094 122.859375 15.152344 122.726562 15.214844 C 122.683594 15.136719 122.402344 14.609375 122.316406 14.664062 C 122.105469 14.734375 121.816406 14.441406 121.621094 14.394531 C 121.621094 14.394531 121.242188 14.40625 121.304688 14.367188 C 121.179688 14.410156 120.929688 14.207031 120.800781 14.265625 C 120.742188 14.292969 120.75 14.410156 120.691406 14.429688 C 120.628906 14.449219 120.582031 14.332031 120.53125 14.34375 C 120.339844 14.429688 120.171875 14.542969 120.023438 14.691406 C 119.839844 14.816406 119.652344 14.933594 119.460938 15.035156 C 119.019531 15.207031 118.632812 15.460938 118.300781 15.789062 C 118.015625 16.203125 117.699219 16.59375 117.347656 16.957031 C 116.550781 17.535156 115.691406 17.992188 114.761719 18.320312 C 114.464844 18.457031 112.390625 19.511719 112.570312 19.792969 C 112.347656 19.675781 111.953125 20.066406 111.738281 20.191406 C 111.546875 20.308594 111.34375 20.40625 111.144531 20.511719 C 111.101562 20.503906 111.058594 20.492188 111.015625 20.480469 C 110.707031 20.382812 110.714844 20.144531 110.507812 19.976562 C 110.402344 19.914062 110.296875 19.847656 110.199219 19.777344 C 110.164062 19.742188 110.207031 19.460938 110.0625 19.683594 C 110.007812 19.527344 109.945312 19.304688 109.769531 19.226562 C 109.59375 19.152344 109.335938 19.183594 109.199219 19.050781 C 109.101562 18.957031 109.160156 18.824219 109.011719 18.75 C 108.921875 18.703125 108.757812 18.777344 108.683594 18.714844 C 108.609375 18.652344 108.664062 18.578125 108.589844 18.519531 C 108.550781 18.492188 108.386719 18.542969 108.347656 18.527344 C 108.347656 18.492188 108.335938 18.457031 108.332031 18.414062 L 108.191406 18.476562 C 108.082031 18.246094 107.960938 18.296875 107.691406 18.292969 C 107.519531 18.292969 107.285156 18.359375 107.136719 18.34375 C 106.894531 18.457031 106.660156 18.585938 106.441406 18.738281 C 106.074219 18.929688 105.703125 19.101562 105.320312 19.265625 C 104.960938 19.417969 104.605469 19.578125 104.242188 19.71875 C 103.980469 19.824219 104.09375 19.71875 103.914062 19.601562 C 103.78125 19.519531 103.683594 19.589844 103.53125 19.585938 C 103.402344 19.585938 103.277344 19.496094 103.15625 19.597656 C 103.035156 19.695312 103.144531 19.691406 103.101562 19.773438 C 103.015625 19.941406 103.03125 19.863281 102.835938 19.851562 C 102.652344 19.847656 102.476562 19.886719 102.308594 19.964844 C 101.96875 20.113281 101.621094 20.230469 101.265625 20.328125 C 100.917969 20.414062 100.386719 20.15625 100.003906 20.085938 C 100.132812 20.027344 99.71875 20.042969 99.691406 20.035156 C 99.558594 19.992188 99.523438 19.855469 99.410156 19.773438 C 99.296875 19.6875 98.859375 19.464844 99.214844 19.386719 C 99.148438 19.332031 99.078125 19.285156 99 19.242188 C 98.90625 19.257812 98.945312 19.390625 98.785156 19.378906 C 98.621094 19.3125 98.464844 19.234375 98.320312 19.136719 C 98.347656 19.230469 98.085938 19.183594 98.058594 19.164062 L 98.078125 19.164062 C 98.074219 19.164062 98.066406 19.164062 98.058594 19.164062 C 98.066406 19.097656 98.121094 19.09375 98.1875 19.078125 C 98.140625 19.046875 98.089844 19.023438 98.035156 19.007812 C 98.078125 19.117188 98.066406 19.054688 97.988281 19.058594 C 97.910156 19.066406 97.785156 19.027344 97.683594 19.035156 C 97.515625 19.054688 97.351562 19.101562 97.195312 19.171875 C 97.179688 19.035156 97.121094 18.925781 97.019531 18.835938 L 96.847656 18.730469 C 96.832031 18.722656 96.847656 18.691406 96.796875 18.671875 C 96.742188 18.652344 96.683594 18.644531 96.625 18.65625 C 96.488281 18.710938 96.523438 18.964844 96.335938 18.796875 C 96.410156 18.738281 96.4375 18.691406 96.523438 18.722656 C 96.238281 18.589844 95.664062 18.839844 95.347656 18.914062 C 95.398438 18.800781 95.578125 18.863281 95.546875 18.703125 C 95.515625 18.765625 95.464844 18.792969 95.398438 18.78125 C 95.464844 18.695312 95.597656 18.664062 95.699219 18.621094 C 95.609375 18.605469 95.570312 18.652344 95.492188 18.648438 C 95.355469 18.648438 95.394531 18.625 95.261719 18.601562 C 95.0625 18.5625 94.863281 18.546875 94.660156 18.5625 C 94.289062 18.597656 94.5 18.4375 94.226562 18.34375 C 94.046875 18.28125 93.753906 18.539062 93.832031 18.226562 C 93.6875 18.320312 93.546875 18.316406 93.40625 18.222656 C 93.320312 18.152344 93.316406 18.082031 93.207031 18.0625 C 93.101562 18.046875 92.941406 18.121094 92.820312 18.121094 C 92.65625 18.121094 92.496094 18.078125 92.292969 18.058594 C 92.355469 18.042969 92.398438 18.003906 92.425781 17.945312 C 92.359375 17.972656 92.292969 17.972656 92.226562 17.945312 C 92.257812 17.914062 92.246094 17.929688 92.257812 17.902344 C 92.179688 17.996094 92.082031 18.019531 91.964844 17.980469 C 91.90625 17.972656 91.847656 17.960938 91.792969 17.9375 C 91.726562 17.902344 91.863281 17.800781 91.734375 17.808594 C 91.648438 17.808594 91.566406 17.949219 91.476562 17.988281 C 91.222656 18.074219 90.992188 18.03125 90.785156 17.859375 C 90.703125 17.820312 90.625 17.773438 90.554688 17.714844 C 90.410156 17.570312 90.527344 17.757812 90.527344 17.539062 C 90.527344 17.277344 90.414062 17.34375 90.191406 17.191406 C 90.128906 17.15625 90.0625 17.09375 90.011719 17.0625 C 89.988281 17.046875 89.921875 17.09375 89.898438 17.078125 C 89.84375 17.042969 89.8125 16.894531 89.761719 16.839844 C 89.355469 16.511719 88.90625 16.265625 88.410156 16.097656 C 88.191406 15.980469 87.964844 15.875 87.734375 15.789062 C 87.5 15.714844 87.277344 15.851562 87.035156 15.910156 C 86.503906 16.101562 85.988281 16.332031 85.492188 16.605469 C 85.40625 16.65625 85.316406 16.703125 85.222656 16.742188 C 85.109375 16.753906 85 16.757812 84.890625 16.757812 C 84.605469 16.804688 84.34375 17.011719 84.058594 17.085938 C 83.648438 17.195312 83.246094 17.28125 82.828125 17.402344 C 82.707031 17.441406 82.585938 17.472656 82.460938 17.496094 C 82.355469 17.515625 82.421875 17.476562 82.25 17.519531 C 82.160156 17.542969 82.074219 17.585938 81.988281 17.609375 C 81.691406 17.695312 81.378906 17.695312 81.09375 17.804688 C 80.808594 17.917969 80.546875 18.066406 80.28125 18.1875 C 80.148438 18.230469 80.023438 18.292969 79.910156 18.375 C 79.859375 18.441406 79.984375 18.523438 79.886719 18.578125 L 79.839844 18.417969 C 79.683594 18.484375 79.546875 18.601562 79.382812 18.65625 C 79.21875 18.695312 79.054688 18.726562 78.890625 18.75 C 78.714844 18.777344 78.542969 18.824219 78.375 18.886719 C 78.238281 18.96875 78.101562 19.054688 77.976562 19.152344 C 77.796875 19.210938 77.613281 19.25 77.429688 19.273438 C 77.195312 19.328125 76.96875 19.378906 76.742188 19.429688 C 76.265625 19.535156 75.804688 19.675781 75.335938 19.8125 C 74.914062 19.917969 74.5 20.050781 74.09375 20.210938 C 73.753906 20.417969 73.441406 20.65625 73.15625 20.933594 C 72.785156 21.214844 72.386719 21.46875 71.996094 21.738281 C 71.800781 21.878906 71.597656 22.011719 71.390625 22.140625 C 71.308594 22.203125 71.21875 22.253906 71.121094 22.289062 C 71.015625 22.316406 71.023438 22.226562 70.882812 22.273438 C 71.023438 22.40625 70.765625 22.457031 70.628906 22.515625 C 70.425781 22.601562 70.214844 22.679688 70.007812 22.753906 C 69.691406 22.871094 69.472656 23.09375 69.152344 23.21875 L 69.089844 23.167969 L 68.996094 23.222656 C 68.914062 23.175781 68.835938 23.125 68.761719 23.066406 C 68.628906 22.933594 68.507812 22.789062 68.398438 22.636719 C 68.269531 22.515625 68.125 22.425781 67.957031 22.363281 C 67.882812 22.324219 67.8125 22.285156 67.742188 22.238281 C 67.691406 22.179688 67.628906 22.132812 67.5625 22.097656 C 67.539062 22.097656 67.515625 22.136719 67.5 22.132812 C 67.484375 22.125 67.480469 22.082031 67.457031 22.070312 C 67.410156 22.046875 67.3125 22.125 67.265625 22.109375 C 67.289062 22.121094 67.148438 22.117188 67.148438 22.117188 C 67.070312 22.132812 66.960938 22.242188 66.878906 22.214844 C 66.847656 22.195312 66.738281 22.386719 66.722656 22.417969 C 66.675781 22.394531 66.570312 22.476562 66.535156 22.511719 C 66.519531 22.527344 66.5 22.535156 66.488281 22.550781 C 66.476562 22.566406 66.488281 22.597656 66.472656 22.613281 C 66.457031 22.632812 66.398438 22.613281 66.355469 22.648438 C 66.3125 22.679688 66.308594 22.761719 66.269531 22.753906 C 66.285156 22.773438 65.691406 23.058594 65.640625 23.113281 L 65.710938 23.113281 C 65.675781 23.140625 65.640625 23.171875 65.605469 23.207031 C 65.582031 23.246094 65.550781 23.28125 65.511719 23.308594 C 65.453125 23.339844 65.460938 23.332031 65.410156 23.316406 C 65.410156 23.292969 65.394531 23.285156 65.371094 23.289062 L 65.3125 23.304688 C 65.339844 23.261719 65.355469 23.261719 65.402344 23.246094 C 65.363281 23.222656 65.324219 23.207031 65.285156 23.199219 C 65.242188 23.199219 65.191406 23.242188 65.140625 23.25 C 65.09375 23.261719 65.027344 23.238281 64.957031 23.257812 C 64.910156 23.277344 64.859375 23.285156 64.808594 23.28125 C 64.800781 23.25 64.78125 23.238281 64.75 23.246094 C 64.730469 23.246094 64.710938 23.253906 64.699219 23.265625 C 64.648438 23.285156 64.625 23.316406 64.5625 23.324219 C 64.464844 23.335938 64.417969 23.285156 64.320312 23.324219 C 64.246094 23.355469 64.175781 23.394531 64.105469 23.429688 C 64.035156 23.460938 63.980469 23.523438 63.875 23.523438 C 63.769531 23.523438 63.679688 23.484375 63.628906 23.574219 C 63.609375 23.605469 63.617188 23.652344 63.597656 23.6875 C 63.578125 23.726562 63.546875 23.757812 63.515625 23.785156 C 63.425781 23.867188 63.386719 23.863281 63.257812 23.855469 C 63.167969 23.839844 63.085938 23.855469 63.007812 23.894531 C 62.96875 23.921875 62.929688 23.953125 62.898438 23.988281 C 62.828125 24.042969 62.71875 24.066406 62.664062 24.136719 C 62.636719 24.175781 62.652344 24.191406 62.605469 24.222656 C 62.570312 24.246094 62.53125 24.265625 62.488281 24.28125 C 62.46875 24.289062 62.214844 24.363281 62.238281 24.386719 C 62.1875 24.386719 62.136719 24.40625 62.125 24.386719 C 62.082031 24.410156 62.082031 24.425781 62.125 24.433594 C 62.078125 24.433594 62.078125 24.453125 62.050781 24.488281 C 62.109375 24.476562 62.195312 24.519531 62.144531 24.578125 C 62.09375 24.632812 62.070312 24.554688 62.019531 24.550781 C 61.972656 24.546875 61.949219 24.589844 61.910156 24.597656 C 61.875 24.601562 61.832031 24.589844 61.796875 24.605469 C 61.75 24.628906 61.707031 24.660156 61.667969 24.699219 C 61.621094 24.742188 61.578125 24.796875 61.527344 24.84375 C 61.5 24.878906 61.464844 24.910156 61.429688 24.933594 C 61.355469 24.980469 61.402344 24.957031 61.324219 24.964844 C 61.25 24.960938 61.179688 24.976562 61.117188 25.007812 C 61.066406 25.046875 61.101562 25.121094 61.035156 25.164062 C 61.003906 25.082031 60.910156 25.242188 60.882812 25.265625 C 60.816406 25.328125 60.738281 25.363281 60.652344 25.382812 C 60.652344 25.363281 60.664062 25.300781 60.652344 25.289062 C 60.601562 25.246094 60.605469 25.347656 60.605469 25.351562 C 60.511719 25.296875 60.453125 25.375 60.375 25.402344 L 60.273438 25.425781 C 60.234375 25.425781 60.214844 25.433594 60.203125 25.464844 C 60.164062 25.46875 60.121094 25.46875 60.078125 25.464844 C 60.027344 25.464844 59.9375 25.480469 59.894531 25.488281 C 59.847656 25.5 59.847656 25.515625 59.816406 25.523438 C 59.71875 25.542969 59.617188 25.550781 59.515625 25.554688 C 59.417969 25.570312 59.320312 25.566406 59.222656 25.546875 C 59.132812 25.527344 59.066406 25.566406 58.972656 25.546875 C 58.882812 25.527344 58.796875 25.515625 58.710938 25.496094 C 58.664062 25.484375 58.617188 25.453125 58.566406 25.449219 C 58.511719 25.445312 58.457031 25.453125 58.402344 25.464844 C 58.394531 25.488281 58.382812 25.519531 58.375 25.546875 C 58.3125 25.527344 58.332031 25.511719 58.332031 25.457031 C 58.289062 25.457031 58.246094 25.453125 58.199219 25.445312 L 58.160156 25.445312 C 58.214844 25.464844 58.351562 25.511719 58.113281 25.445312 C 58.082031 25.4375 58.054688 25.429688 58.023438 25.421875 C 57.984375 25.421875 57.707031 25.476562 57.707031 25.46875 L 57.6875 25.425781 C 57.671875 25.460938 57.554688 25.585938 57.535156 25.53125 C 57.519531 25.558594 57.507812 25.558594 57.492188 25.527344 C 57.480469 25.605469 57.289062 25.6875 57.308594 25.757812 C 57.308594 25.742188 57.292969 25.742188 57.273438 25.757812 C 57.25 25.773438 57.199219 25.757812 57.167969 25.757812 C 57.132812 25.773438 57.101562 25.796875 57.082031 25.832031 C 57.117188 25.824219 57.152344 25.828125 57.1875 25.839844 C 57.078125 25.84375 56.972656 25.871094 56.878906 25.929688 C 56.945312 25.929688 56.898438 25.972656 56.855469 25.984375 C 56.816406 25.996094 56.800781 25.96875 56.757812 25.96875 C 56.824219 26.011719 56.75 26 56.703125 26.027344 C 56.65625 26.050781 56.625 26.085938 56.578125 26.113281 C 56.535156 26.136719 56.46875 26.167969 56.417969 26.195312 Z M 163.402344 26.199219"/></g><path fill="#FFFFFF" d="M 98.132812 19.148438 L 98.125 19.148438 L 98.125 19.152344 Z M 98.132812 19.148438"/><g fill="#FFFFFF"><g><g><path d="M 4.78125 -5.65625 L 3.890625 -3.171875 C 3.816406 -2.984375 3.757812 -2.796875 3.71875 -2.609375 C 3.675781 -2.429688 3.65625 -2.28125 3.65625 -2.15625 C 3.65625 -1.75 3.785156 -1.453125 4.046875 -1.265625 C 4.304688 -1.085938 4.703125 -1 5.234375 -1 L 5.78125 -1 L 5.78125 0 L 0 0 L 0 -1 L 0.453125 -1 C 0.679688 -1 0.875 -1.019531 1.03125 -1.0625 C 1.195312 -1.113281 1.34375 -1.207031 1.46875 -1.34375 C 1.601562 -1.488281 1.726562 -1.679688 1.84375 -1.921875 C 1.96875 -2.160156 2.101562 -2.46875 2.25 -2.84375 L 7.5 -16.90625 L 9.34375 -16.90625 L 14.703125 -2.25 C 14.796875 -2.007812 14.890625 -1.804688 14.984375 -1.640625 C 15.078125 -1.484375 15.1875 -1.351562 15.3125 -1.25 C 15.445312 -1.15625 15.597656 -1.085938 15.765625 -1.046875 C 15.941406 -1.015625 16.144531 -1 16.375 -1 L 16.6875 -1 L 16.6875 0 L 10.1875 0 L 10.1875 -1 L 10.71875 -1 C 11.664062 -1 12.140625 -1.375 12.140625 -2.125 C 12.140625 -2.257812 12.125 -2.394531 12.09375 -2.53125 C 12.0625 -2.664062 12.015625 -2.820312 11.953125 -3 L 11 -5.65625 Z M 9.109375 -10.984375 C 8.859375 -11.679688 8.628906 -12.335938 8.421875 -12.953125 C 8.222656 -13.566406 8.054688 -14.15625 7.921875 -14.71875 C 7.867188 -14.4375 7.804688 -14.160156 7.734375 -13.890625 C 7.660156 -13.628906 7.582031 -13.359375 7.5 -13.078125 C 7.414062 -12.804688 7.316406 -12.515625 7.203125 -12.203125 C 7.097656 -11.898438 6.976562 -11.566406 6.84375 -11.203125 L 5.234375 -6.84375 L 10.578125 -6.84375 Z M 9.109375 -10.984375" transform="translate(33.117 53.027)"/></g></g></g><g fill="#FFFFFF"><g><g><path d="M 0.90625 0 L 0.90625 -1 L 1.203125 -1 C 1.472656 -1 1.722656 -1.015625 1.953125 -1.046875 C 2.191406 -1.085938 2.398438 -1.164062 2.578125 -1.28125 C 2.753906 -1.40625 2.890625 -1.578125 2.984375 -1.796875 C 3.085938 -2.023438 3.140625 -2.320312 3.140625 -2.6875 L 3.140625 -14.203125 C 3.140625 -14.578125 3.085938 -14.875 2.984375 -15.09375 C 2.890625 -15.320312 2.753906 -15.492188 2.578125 -15.609375 C 2.398438 -15.722656 2.191406 -15.800781 1.953125 -15.84375 C 1.722656 -15.882812 1.472656 -15.90625 1.203125 -15.90625 L 0.90625 -15.90625 L 0.90625 -16.90625 L 7.796875 -16.90625 L 7.796875 -15.90625 L 7.484375 -15.90625 C 7.210938 -15.90625 6.957031 -15.882812 6.71875 -15.84375 C 6.488281 -15.8125 6.285156 -15.738281 6.109375 -15.625 C 5.929688 -15.507812 5.789062 -15.34375 5.6875 -15.125 C 5.582031 -14.914062 5.53125 -14.640625 5.53125 -14.296875 L 5.53125 -1.171875 L 10.203125 -1.171875 C 10.554688 -1.171875 10.859375 -1.234375 11.109375 -1.359375 C 11.359375 -1.492188 11.5625 -1.660156 11.71875 -1.859375 C 11.882812 -2.066406 12.007812 -2.296875 12.09375 -2.546875 C 12.1875 -2.804688 12.25 -3.0625 12.28125 -3.3125 L 12.515625 -5.078125 L 13.75 -5.078125 L 13.59375 0 Z M 0.90625 0" transform="translate(52.722 53.027)"/></g></g></g><g fill="#FFFFFF"><g><g><path d="M 15 0 L 15 -1 L 15.078125 -1 C 15.335938 -1 15.566406 -1.015625 15.765625 -1.046875 C 15.972656 -1.078125 16.144531 -1.144531 16.28125 -1.25 C 16.425781 -1.351562 16.539062 -1.503906 16.625 -1.703125 C 16.71875 -1.898438 16.769531 -2.160156 16.78125 -2.484375 L 16.78125 -15.125 L 11.359375 0 L 10.078125 0 L 4.59375 -15.078125 L 4.59375 -2.6875 C 4.59375 -2.320312 4.628906 -2.023438 4.703125 -1.796875 C 4.773438 -1.578125 4.882812 -1.40625 5.03125 -1.28125 C 5.1875 -1.164062 5.367188 -1.085938 5.578125 -1.046875 C 5.796875 -1.015625 6.035156 -1 6.296875 -1 L 6.375 -1 L 6.375 0 L 0.90625 0 L 0.90625 -1 L 1.203125 -1 C 1.460938 -1 1.707031 -1.015625 1.9375 -1.046875 C 2.175781 -1.078125 2.382812 -1.144531 2.5625 -1.25 C 2.738281 -1.363281 2.878906 -1.523438 2.984375 -1.734375 C 3.085938 -1.953125 3.140625 -2.234375 3.140625 -2.578125 L 3.140625 -14.296875 C 3.140625 -14.640625 3.085938 -14.914062 2.984375 -15.125 C 2.878906 -15.34375 2.738281 -15.507812 2.5625 -15.625 C 2.382812 -15.738281 2.175781 -15.8125 1.9375 -15.84375 C 1.707031 -15.882812 1.460938 -15.90625 1.203125 -15.90625 L 0.90625 -15.90625 L 0.90625 -16.90625 L 6.296875 -16.90625 L 11.203125 -3.359375 L 16.0625 -16.90625 L 21.296875 -16.90625 L 21.296875 -15.90625 L 21 -15.90625 C 20.726562 -15.90625 20.472656 -15.882812 20.234375 -15.84375 C 20.003906 -15.800781 19.800781 -15.722656 19.625 -15.609375 C 19.445312 -15.492188 19.304688 -15.320312 19.203125 -15.09375 C 19.109375 -14.875 19.0625 -14.578125 19.0625 -14.203125 L 19.0625 -2.6875 C 19.0625 -2.320312 19.109375 -2.023438 19.203125 -1.796875 C 19.304688 -1.578125 19.445312 -1.40625 19.625 -1.28125 C 19.800781 -1.164062 20.003906 -1.085938 20.234375 -1.046875 C 20.472656 -1.015625 20.726562 -1 21 -1 L 21.296875 -1 L 21.296875 0 Z M 15 0" transform="translate(70.385 53.027)"/></g></g></g><g fill="#FFFFFF"><g><g><path d="M 5.53125 -1.171875 L 10.109375 -1.171875 C 10.484375 -1.171875 10.800781 -1.222656 11.0625 -1.328125 C 11.332031 -1.429688 11.554688 -1.570312 11.734375 -1.75 C 11.910156 -1.925781 12.046875 -2.132812 12.140625 -2.375 C 12.242188 -2.613281 12.316406 -2.863281 12.359375 -3.125 L 12.515625 -4.140625 L 13.75 -4.140625 L 13.59375 0 L 0.90625 0 L 0.90625 -1 L 1.203125 -1 C 1.460938 -1 1.707031 -1.015625 1.9375 -1.046875 C 2.175781 -1.078125 2.382812 -1.144531 2.5625 -1.25 C 2.738281 -1.363281 2.878906 -1.523438 2.984375 -1.734375 C 3.085938 -1.953125 3.140625 -2.234375 3.140625 -2.578125 L 3.140625 -14.203125 C 3.140625 -14.578125 3.085938 -14.875 2.984375 -15.09375 C 2.890625 -15.320312 2.753906 -15.492188 2.578125 -15.609375 C 2.398438 -15.722656 2.191406 -15.800781 1.953125 -15.84375 C 1.722656 -15.882812 1.472656 -15.90625 1.203125 -15.90625 L 0.90625 -15.90625 L 0.90625 -16.90625 L 12.828125 -16.90625 L 12.953125 -12.765625 L 11.71875 -12.765625 L 11.609375 -13.78125 C 11.578125 -14.039062 11.515625 -14.285156 11.421875 -14.515625 C 11.335938 -14.753906 11.210938 -14.960938 11.046875 -15.140625 C 10.878906 -15.316406 10.671875 -15.457031 10.421875 -15.5625 C 10.171875 -15.664062 9.867188 -15.71875 9.515625 -15.71875 L 5.53125 -15.71875 L 5.53125 -9.421875 L 11.25 -9.421875 L 11.25 -8.265625 L 5.53125 -8.265625 Z M 5.53125 -1.171875" transform="translate(95.504 53.027)"/></g></g></g><g fill="#FFFFFF"><g><g><path d="M 13.46875 0 L 4.59375 -13.640625 L 4.59375 -2.6875 C 4.59375 -2.320312 4.644531 -2.023438 4.75 -1.796875 C 4.851562 -1.578125 4.988281 -1.40625 5.15625 -1.28125 C 5.332031 -1.164062 5.539062 -1.085938 5.78125 -1.046875 C 6.019531 -1.015625 6.269531 -1 6.53125 -1 L 6.84375 -1 L 6.84375 0 L 0.90625 0 L 0.90625 -1 L 1.203125 -1 C 1.472656 -1 1.722656 -1.015625 1.953125 -1.046875 C 2.191406 -1.085938 2.398438 -1.164062 2.578125 -1.28125 C 2.753906 -1.40625 2.890625 -1.578125 2.984375 -1.796875 C 3.085938 -2.023438 3.140625 -2.320312 3.140625 -2.6875 L 3.140625 -14.296875 C 3.140625 -14.640625 3.085938 -14.914062 2.984375 -15.125 C 2.878906 -15.34375 2.738281 -15.507812 2.5625 -15.625 C 2.382812 -15.738281 2.175781 -15.8125 1.9375 -15.84375 C 1.707031 -15.882812 1.460938 -15.90625 1.203125 -15.90625 L 0.90625 -15.90625 L 0.90625 -16.90625 L 5.234375 -16.90625 L 13.703125 -3.8125 L 13.703125 -14.296875 C 13.703125 -14.640625 13.648438 -14.914062 13.546875 -15.125 C 13.441406 -15.34375 13.300781 -15.507812 13.125 -15.625 C 12.945312 -15.738281 12.738281 -15.8125 12.5 -15.84375 C 12.269531 -15.882812 12.023438 -15.90625 11.765625 -15.90625 L 11.453125 -15.90625 L 11.453125 -16.90625 L 17.390625 -16.90625 L 17.390625 -15.90625 L 17.09375 -15.90625 C 16.820312 -15.90625 16.566406 -15.882812 16.328125 -15.84375 C 16.097656 -15.800781 15.894531 -15.722656 15.71875 -15.609375 C 15.539062 -15.492188 15.398438 -15.320312 15.296875 -15.09375 C 15.203125 -14.875 15.15625 -14.578125 15.15625 -14.203125 L 15.15625 0 Z M 13.46875 0" transform="translate(113.167 53.027)"/></g></g></g><g fill="#FFFFFF"><g><g><path d="M 4.78125 -5.65625 L 3.890625 -3.171875 C 3.816406 -2.984375 3.757812 -2.796875 3.71875 -2.609375 C 3.675781 -2.429688 3.65625 -2.28125 3.65625 -2.15625 C 3.65625 -1.75 3.785156 -1.453125 4.046875 -1.265625 C 4.304688 -1.085938 4.703125 -1 5.234375 -1 L 5.78125 -1 L 5.78125 0 L 0 0 L 0 -1 L 0.453125 -1 C 0.679688 -1 0.875 -1.019531 1.03125 -1.0625 C 1.195312 -1.113281 1.34375 -1.207031 1.46875 -1.34375 C 1.601562 -1.488281 1.726562 -1.679688 1.84375 -1.921875 C 1.96875 -2.160156 2.101562 -2.46875 2.25 -2.84375 L 7.5 -16.90625 L 9.34375 -16.90625 L 14.703125 -2.25 C 14.796875 -2.007812 14.890625 -1.804688 14.984375 -1.640625 C 15.078125 -1.484375 15.1875 -1.351562 15.3125 -1.25 C 15.445312 -1.15625 15.597656 -1.085938 15.765625 -1.046875 C 15.941406 -1.015625 16.144531 -1 16.375 -1 L 16.6875 -1 L 16.6875 0 L 10.1875 0 L 10.1875 -1 L 10.71875 -1 C 11.664062 -1 12.140625 -1.375 12.140625 -2.125 C 12.140625 -2.257812 12.125 -2.394531 12.09375 -2.53125 C 12.0625 -2.664062 12.015625 -2.820312 11.953125 -3 L 11 -5.65625 Z M 9.109375 -10.984375 C 8.859375 -11.679688 8.628906 -12.335938 8.421875 -12.953125 C 8.222656 -13.566406 8.054688 -14.15625 7.921875 -14.71875 C 7.867188 -14.4375 7.804688 -14.160156 7.734375 -13.890625 C 7.660156 -13.628906 7.582031 -13.359375 7.5 -13.078125 C 7.414062 -12.804688 7.316406 -12.515625 7.203125 -12.203125 C 7.097656 -11.898438 6.976562 -11.566406 6.84375 -11.203125 L 5.234375 -6.84375 L 10.578125 -6.84375 Z M 9.109375 -10.984375" transform="translate(134.147 53.027)"/></g></g></g><g fill="#FFFFFF"><g><g><path d="M 13.125 -2.890625 C 13.519531 -2.253906 13.90625 -1.78125 14.28125 -1.46875 C 14.664062 -1.15625 15.109375 -1 15.609375 -1 L 15.671875 -1 L 15.671875 0 L 15.34375 0 C 14.601562 0 13.992188 -0.0234375 13.515625 -0.078125 C 13.046875 -0.128906 12.644531 -0.234375 12.3125 -0.390625 C 11.976562 -0.546875 11.691406 -0.757812 11.453125 -1.03125 C 11.222656 -1.3125 10.972656 -1.675781 10.703125 -2.125 L 7.5 -7.453125 L 5.53125 -7.453125 L 5.53125 -2.578125 C 5.53125 -2.234375 5.582031 -1.953125 5.6875 -1.734375 C 5.789062 -1.523438 5.929688 -1.363281 6.109375 -1.25 C 6.285156 -1.144531 6.488281 -1.078125 6.71875 -1.046875 C 6.957031 -1.015625 7.210938 -1 7.484375 -1 L 7.796875 -1 L 7.796875 0 L 0.90625 0 L 0.90625 -1 L 1.203125 -1 C 1.460938 -1 1.707031 -1.015625 1.9375 -1.046875 C 2.175781 -1.078125 2.382812 -1.144531 2.5625 -1.25 C 2.738281 -1.363281 2.878906 -1.523438 2.984375 -1.734375 C 3.085938 -1.953125 3.140625 -2.234375 3.140625 -2.578125 L 3.140625 -14.296875 C 3.140625 -14.640625 3.085938 -14.914062 2.984375 -15.125 C 2.878906 -15.34375 2.738281 -15.507812 2.5625 -15.625 C 2.382812 -15.738281 2.175781 -15.8125 1.9375 -15.84375 C 1.707031 -15.882812 1.460938 -15.90625 1.203125 -15.90625 L 0.90625 -15.90625 L 0.90625 -16.90625 L 7.265625 -16.90625 C 9.316406 -16.90625 10.84375 -16.523438 11.84375 -15.765625 C 12.84375 -15.003906 13.34375 -13.859375 13.34375 -12.328125 C 13.34375 -11.703125 13.238281 -11.148438 13.03125 -10.671875 C 12.832031 -10.203125 12.566406 -9.789062 12.234375 -9.4375 C 11.910156 -9.09375 11.539062 -8.804688 11.125 -8.578125 C 10.707031 -8.347656 10.289062 -8.160156 9.875 -8.015625 Z M 5.53125 -8.5625 L 7.203125 -8.5625 C 7.890625 -8.5625 8.460938 -8.640625 8.921875 -8.796875 C 9.390625 -8.953125 9.757812 -9.179688 10.03125 -9.484375 C 10.3125 -9.796875 10.507812 -10.179688 10.625 -10.640625 C 10.75 -11.109375 10.8125 -11.648438 10.8125 -12.265625 C 10.8125 -12.898438 10.742188 -13.4375 10.609375 -13.875 C 10.484375 -14.320312 10.273438 -14.6875 9.984375 -14.96875 C 9.691406 -15.25 9.3125 -15.453125 8.84375 -15.578125 C 8.382812 -15.703125 7.816406 -15.765625 7.140625 -15.765625 L 5.53125 -15.765625 Z M 5.53125 -8.5625" transform="translate(153.752 53.027)"/></g></g></g><g fill="#FFFFFF"><g><g><path d="M 4.78125 -5.65625 L 3.890625 -3.171875 C 3.816406 -2.984375 3.757812 -2.796875 3.71875 -2.609375 C 3.675781 -2.429688 3.65625 -2.28125 3.65625 -2.15625 C 3.65625 -1.75 3.785156 -1.453125 4.046875 -1.265625 C 4.304688 -1.085938 4.703125 -1 5.234375 -1 L 5.78125 -1 L 5.78125 0 L 0 0 L 0 -1 L 0.453125 -1 C 0.679688 -1 0.875 -1.019531 1.03125 -1.0625 C 1.195312 -1.113281 1.34375 -1.207031 1.46875 -1.34375 C 1.601562 -1.488281 1.726562 -1.679688 1.84375 -1.921875 C 1.96875 -2.160156 2.101562 -2.46875 2.25 -2.84375 L 7.5 -16.90625 L 9.34375 -16.90625 L 14.703125 -2.25 C 14.796875 -2.007812 14.890625 -1.804688 14.984375 -1.640625 C 15.078125 -1.484375 15.1875 -1.351562 15.3125 -1.25 C 15.445312 -1.15625 15.597656 -1.085938 15.765625 -1.046875 C 15.941406 -1.015625 16.144531 -1 16.375 -1 L 16.6875 -1 L 16.6875 0 L 10.1875 0 L 10.1875 -1 L 10.71875 -1 C 11.664062 -1 12.140625 -1.375 12.140625 -2.125 C 12.140625 -2.257812 12.125 -2.394531 12.09375 -2.53125 C 12.0625 -2.664062 12.015625 -2.820312 11.953125 -3 L 11 -5.65625 Z M 9.109375 -10.984375 C 8.859375 -11.679688 8.628906 -12.335938 8.421875 -12.953125 C 8.222656 -13.566406 8.054688 -14.15625 7.921875 -14.71875 C 7.867188 -14.4375 7.804688 -14.160156 7.734375 -13.890625 C 7.660156 -13.628906 7.582031 -13.359375 7.5 -13.078125 C 7.414062 -12.804688 7.316406 -12.515625 7.203125 -12.203125 C 7.097656 -11.898438 6.976562 -11.566406 6.84375 -11.203125 L 5.234375 -6.84375 L 10.578125 -6.84375 Z M 9.109375 -10.984375" transform="translate(172.189 53.027)"/></g></g></g><g fill="#FFFFFF"><g><g><path d="M 0.34375 -7.078125 C 0.34375 -7.835938 0.519531 -8.414062 0.875 -8.8125 C 1.238281 -9.21875 1.78125 -9.421875 2.5 -9.421875 C 3.21875 -9.421875 3.753906 -9.21875 4.109375 -8.8125 C 4.472656 -8.414062 4.65625 -7.835938 4.65625 -7.078125 L 4.65625 -6.796875 L 3.28125 -6.796875 L 3.28125 -7.171875 C 3.28125 -7.515625 3.210938 -7.753906 3.078125 -7.890625 C 2.953125 -8.023438 2.773438 -8.09375 2.546875 -8.09375 C 2.316406 -8.09375 2.132812 -8.023438 2 -7.890625 C 1.875 -7.753906 1.8125 -7.515625 1.8125 -7.171875 C 1.8125 -6.859375 1.878906 -6.578125 2.015625 -6.328125 C 2.160156 -6.085938 2.335938 -5.859375 2.546875 -5.640625 C 2.765625 -5.421875 2.992188 -5.203125 3.234375 -4.984375 C 3.484375 -4.765625 3.710938 -4.523438 3.921875 -4.265625 C 4.140625 -4.015625 4.316406 -3.722656 4.453125 -3.390625 C 4.597656 -3.066406 4.671875 -2.679688 4.671875 -2.234375 C 4.671875 -1.484375 4.484375 -0.90625 4.109375 -0.5 C 3.742188 -0.09375 3.203125 0.109375 2.484375 0.109375 C 1.765625 0.109375 1.222656 -0.09375 0.859375 -0.5 C 0.492188 -0.90625 0.3125 -1.484375 0.3125 -2.234375 L 0.3125 -2.8125 L 1.6875 -2.8125 L 1.6875 -2.140625 C 1.6875 -1.804688 1.753906 -1.570312 1.890625 -1.4375 C 2.035156 -1.300781 2.222656 -1.234375 2.453125 -1.234375 C 2.679688 -1.234375 2.863281 -1.300781 3 -1.4375 C 3.132812 -1.570312 3.203125 -1.804688 3.203125 -2.140625 C 3.203125 -2.460938 3.128906 -2.742188 2.984375 -2.984375 C 2.847656 -3.234375 2.671875 -3.460938 2.453125 -3.671875 C 2.242188 -3.890625 2.015625 -4.109375 1.765625 -4.328125 C 1.523438 -4.546875 1.296875 -4.785156 1.078125 -5.046875 C 0.867188 -5.304688 0.691406 -5.597656 0.546875 -5.921875 C 0.410156 -6.253906 0.34375 -6.640625 0.34375 -7.078125 Z M 0.34375 -7.078125" transform="translate(48.286 73.938)"/></g></g></g><g fill="#FFFFFF"><g><g><path d="M 0.53125 -9.3125 L 2 -9.3125 L 2 0 L 0.53125 0 Z M 0.53125 -9.3125" transform="translate(59.631 73.938)"/></g></g></g><g fill="#FFFFFF"><g><g><path d="M 2 -5.390625 L 4 -5.390625 L 4 -4.0625 L 2 -4.0625 L 2 -1.328125 L 4.53125 -1.328125 L 4.53125 0 L 0.53125 0 L 0.53125 -9.3125 L 4.53125 -9.3125 L 4.53125 -7.984375 L 2 -7.984375 Z M 2 -5.390625" transform="translate(68.527 73.938)"/></g></g></g><g fill="#FFFFFF"><g><g><path d="M 3.59375 0 C 3.570312 -0.0625 3.550781 -0.117188 3.53125 -0.171875 C 3.519531 -0.222656 3.503906 -0.289062 3.484375 -0.375 C 3.472656 -0.457031 3.46875 -0.554688 3.46875 -0.671875 C 3.46875 -0.796875 3.46875 -0.953125 3.46875 -1.140625 L 3.46875 -2.609375 C 3.46875 -3.046875 3.390625 -3.351562 3.234375 -3.53125 C 3.085938 -3.707031 2.84375 -3.796875 2.5 -3.796875 L 2 -3.796875 L 2 0 L 0.53125 0 L 0.53125 -9.3125 L 2.75 -9.3125 C 3.507812 -9.3125 4.054688 -9.132812 4.390625 -8.78125 C 4.734375 -8.425781 4.90625 -7.890625 4.90625 -7.171875 L 4.90625 -6.4375 C 4.90625 -5.476562 4.585938 -4.847656 3.953125 -4.546875 C 4.328125 -4.398438 4.582031 -4.15625 4.71875 -3.8125 C 4.851562 -3.46875 4.921875 -3.050781 4.921875 -2.5625 L 4.921875 -1.125 C 4.921875 -0.894531 4.929688 -0.691406 4.953125 -0.515625 C 4.972656 -0.347656 5.015625 -0.175781 5.078125 0 Z M 2 -7.984375 L 2 -5.125 L 2.5625 -5.125 C 2.84375 -5.125 3.0625 -5.191406 3.21875 -5.328125 C 3.375 -5.472656 3.453125 -5.734375 3.453125 -6.109375 L 3.453125 -7.03125 C 3.453125 -7.363281 3.390625 -7.601562 3.265625 -7.75 C 3.148438 -7.90625 2.960938 -7.984375 2.703125 -7.984375 Z M 2 -7.984375" transform="translate(79.793 73.938)"/></g></g></g><g fill="#FFFFFF"><g><g><path d="M 3.59375 0 C 3.570312 -0.0625 3.550781 -0.117188 3.53125 -0.171875 C 3.519531 -0.222656 3.503906 -0.289062 3.484375 -0.375 C 3.472656 -0.457031 3.46875 -0.554688 3.46875 -0.671875 C 3.46875 -0.796875 3.46875 -0.953125 3.46875 -1.140625 L 3.46875 -2.609375 C 3.46875 -3.046875 3.390625 -3.351562 3.234375 -3.53125 C 3.085938 -3.707031 2.84375 -3.796875 2.5 -3.796875 L 2 -3.796875 L 2 0 L 0.53125 0 L 0.53125 -9.3125 L 2.75 -9.3125 C 3.507812 -9.3125 4.054688 -9.132812 4.390625 -8.78125 C 4.734375 -8.425781 4.90625 -7.890625 4.90625 -7.171875 L 4.90625 -6.4375 C 4.90625 -5.476562 4.585938 -4.847656 3.953125 -4.546875 C 4.328125 -4.398438 4.582031 -4.15625 4.71875 -3.8125 C 4.851562 -3.46875 4.921875 -3.050781 4.921875 -2.5625 L 4.921875 -1.125 C 4.921875 -0.894531 4.929688 -0.691406 4.953125 -0.515625 C 4.972656 -0.347656 5.015625 -0.175781 5.078125 0 Z M 2 -7.984375 L 2 -5.125 L 2.5625 -5.125 C 2.84375 -5.125 3.0625 -5.191406 3.21875 -5.328125 C 3.375 -5.472656 3.453125 -5.734375 3.453125 -6.109375 L 3.453125 -7.03125 C 3.453125 -7.363281 3.390625 -7.601562 3.265625 -7.75 C 3.148438 -7.90625 2.960938 -7.984375 2.703125 -7.984375 Z M 2 -7.984375" transform="translate(91.51 73.938)"/></g></g></g><g fill="#FFFFFF"><g><g><path d="M 5.265625 0 L 3.796875 0 L 3.546875 -1.6875 L 1.75 -1.6875 L 1.484375 0 L 0.140625 0 L 1.640625 -9.3125 L 3.78125 -9.3125 Z M 1.9375 -2.953125 L 3.34375 -2.953125 L 2.640625 -7.671875 Z M 1.9375 -2.953125" transform="translate(103.229 73.938)"/></g></g></g><g fill="#FFFFFF"><g><g><path d="M 1.875 -2.140625 C 1.875 -1.804688 1.941406 -1.566406 2.078125 -1.421875 C 2.222656 -1.285156 2.410156 -1.21875 2.640625 -1.21875 C 2.867188 -1.21875 3.050781 -1.285156 3.1875 -1.421875 C 3.320312 -1.566406 3.390625 -1.804688 3.390625 -2.140625 L 3.390625 -7.171875 C 3.390625 -7.515625 3.320312 -7.753906 3.1875 -7.890625 C 3.050781 -8.023438 2.867188 -8.09375 2.640625 -8.09375 C 2.410156 -8.09375 2.222656 -8.023438 2.078125 -7.890625 C 1.941406 -7.753906 1.875 -7.515625 1.875 -7.171875 Z M 0.40625 -7.078125 C 0.40625 -7.835938 0.597656 -8.414062 0.984375 -8.8125 C 1.367188 -9.21875 1.921875 -9.421875 2.640625 -9.421875 C 3.359375 -9.421875 3.90625 -9.21875 4.28125 -8.8125 C 4.664062 -8.414062 4.859375 -7.835938 4.859375 -7.078125 L 4.859375 -2.234375 C 4.859375 -1.484375 4.664062 -0.90625 4.28125 -0.5 C 3.90625 -0.09375 3.359375 0.109375 2.640625 0.109375 C 1.921875 0.109375 1.367188 -0.09375 0.984375 -0.5 C 0.597656 -0.90625 0.40625 -1.484375 0.40625 -2.234375 Z M 0.40625 -7.078125" transform="translate(123.444 73.938)"/></g></g></g><g fill="#FFFFFF"><g><g><path d="M 2 -5.390625 L 4 -5.390625 L 4 -4.0625 L 2 -4.0625 L 2 -1.328125 L 4.53125 -1.328125 L 4.53125 0 L 0.53125 0 L 0.53125 -9.3125 L 4.53125 -9.3125 L 4.53125 -7.984375 L 2 -7.984375 Z M 2 -5.390625" transform="translate(135.082 73.938)"/></g></g></g><g fill="#FFFFFF"><g><g><path d="M 0.34375 -7.078125 C 0.34375 -7.835938 0.519531 -8.414062 0.875 -8.8125 C 1.238281 -9.21875 1.78125 -9.421875 2.5 -9.421875 C 3.21875 -9.421875 3.753906 -9.21875 4.109375 -8.8125 C 4.472656 -8.414062 4.65625 -7.835938 4.65625 -7.078125 L 4.65625 -6.796875 L 3.28125 -6.796875 L 3.28125 -7.171875 C 3.28125 -7.515625 3.210938 -7.753906 3.078125 -7.890625 C 2.953125 -8.023438 2.773438 -8.09375 2.546875 -8.09375 C 2.316406 -8.09375 2.132812 -8.023438 2 -7.890625 C 1.875 -7.753906 1.8125 -7.515625 1.8125 -7.171875 C 1.8125 -6.859375 1.878906 -6.578125 2.015625 -6.328125 C 2.160156 -6.085938 2.335938 -5.859375 2.546875 -5.640625 C 2.765625 -5.421875 2.992188 -5.203125 3.234375 -4.984375 C 3.484375 -4.765625 3.710938 -4.523438 3.921875 -4.265625 C 4.140625 -4.015625 4.316406 -3.722656 4.453125 -3.390625 C 4.597656 -3.066406 4.671875 -2.679688 4.671875 -2.234375 C 4.671875 -1.484375 4.484375 -0.90625 4.109375 -0.5 C 3.742188 -0.09375 3.203125 0.109375 2.484375 0.109375 C 1.765625 0.109375 1.222656 -0.09375 0.859375 -0.5 C 0.492188 -0.90625 0.3125 -1.484375 0.3125 -2.234375 L 0.3125 -2.8125 L 1.6875 -2.8125 L 1.6875 -2.140625 C 1.6875 -1.804688 1.753906 -1.570312 1.890625 -1.4375 C 2.035156 -1.300781 2.222656 -1.234375 2.453125 -1.234375 C 2.679688 -1.234375 2.863281 -1.300781 3 -1.4375 C 3.132812 -1.570312 3.203125 -1.804688 3.203125 -2.140625 C 3.203125 -2.460938 3.128906 -2.742188 2.984375 -2.984375 C 2.847656 -3.234375 2.671875 -3.460938 2.453125 -3.671875 C 2.242188 -3.890625 2.015625 -4.109375 1.765625 -4.328125 C 1.523438 -4.546875 1.296875 -4.785156 1.078125 -5.046875 C 0.867188 -5.304688 0.691406 -5.597656 0.546875 -5.921875 C 0.410156 -6.253906 0.34375 -6.640625 0.34375 -7.078125 Z M 0.34375 -7.078125" transform="translate(146.348 73.938)"/></g></g></g><g fill="#FFFFFF"><g><g><path d="M 0.109375 -9.3125 L 4.625 -9.3125 L 4.625 -7.984375 L 3.109375 -7.984375 L 3.109375 0 L 1.640625 0 L 1.640625 -7.984375 L 0.109375 -7.984375 Z M 0.109375 -9.3125" transform="translate(157.693 73.938)"/></g></g></g><g fill="#FFFFFF"><g><g><path d="M 2 -5.390625 L 4 -5.390625 L 4 -4.0625 L 2 -4.0625 L 2 -1.328125 L 4.53125 -1.328125 L 4.53125 0 L 0.53125 0 L 0.53125 -9.3125 L 4.53125 -9.3125 L 4.53125 -7.984375 L 2 -7.984375 Z M 2 -5.390625" transform="translate(168.799 73.938)"/></g></g></g></svg>